<svg xmlns="http://www.w3.org/2000/svg" width="16" height="16" version="1.1">
 <defs>
  <style id="current-color-scheme" type="text/css">
    .ColorScheme-Text { color: #d3dae3; } .ColorScheme-Highlight { color:#5294e2; }
  </style>
  <linearGradient id="grey" x1="0%" x2="0%" y1="0%" y2="100%">
    <stop offset="0%" style="stop-color:#8C8C8C; stop-opacity:1"/>
    <stop offset="100%" style="stop-color:#4B4B4B; stop-opacity:1"/>
  </linearGradient>
 </defs>
 <g transform="translate(-532 -32)">
  <path fill="url(#grey)" class="ColorScheme-Text" d="M533 34v13h1v-1h1v1h11v-1h1v1h1V34h-1v1h-1v-1h-11v1h-1v-1zm3 1h9v5h-9zm-2 1h1v1h-1zm12 0h1v1h-1zm-12 2h1v1h-1zm12 0h1v1h-1zm-12 2h1v1h-1zm12 0h1v1h-1zm-10 1h9v5h-9zm-2 1h1v1h-1zm12 0h1v1h-1zm-12 2h1v1h-1zm12 0h1v1h-1z" overflow="visible"/>
 </g>
</svg>
