<svg xmlns="http://www.w3.org/2000/svg" width="16" height="16" version="1.1">
 <defs>
  <style id="current-color-scheme" type="text/css">
    .ColorScheme-Text { color: #d3dae3; } .ColorScheme-Highlight { color:#5294e2; }
  </style>
  <linearGradient id="bark" x1="0%" x2="0%" y1="0%" y2="100%">
    <stop offset="0%" style="stop-color:#9D9D87; stop-opacity:1"/>
    <stop offset="100%" style="stop-color:#52523F; stop-opacity:1"/>
  </linearGradient>
 </defs>
  <path fill="url(#bark)" class="ColorScheme-Text" d="M 6.5,1 C 3.47,1 1,3.47 1,6.5 1,7.74 1.4163,8.88 2.1094,9.8 L 3.543,8.36 C 3.2039,7.82 3,7.19 3,6.5 3,4.56 4.55,3 6.5,3 7.1897,3 7.8245,3.2 8.3633,3.54 L 9.8008,2.1 C 8.8759,1.41 7.7334,1 6.5,1 Z M 11.266,9.83 9.8398,11.25 13.43,14.84 14.84,13.4 Z"/>
  <path fill="url(#bark)" class="ColorScheme-Text" d="M 2,11.32 V 14 H 4.67 L 11.42,7.25 8.75,4.57 Z M 13.79,4.89 C 14.07,4.61 14.07,4.16 13.79,3.88 L 12.12,2.21 C 11.83,1.93 11.39,1.93 11.11,2.21 L 9.71,3.61 12.38,6.29 Z"/>
</svg>
