<svg xmlns="http://www.w3.org/2000/svg" width="16" height="16" version="1.1">
 <defs>
  <style id="current-color-scheme" type="text/css">
    .ColorScheme-Text { color: #d3dae3; } .ColorScheme-Highlight { color:#5294e2; }
  </style>
  <linearGradient id="bark" x1="0%" x2="0%" y1="0%" y2="100%">
    <stop offset="0%" style="stop-color:#9D9D87; stop-opacity:1"/>
    <stop offset="100%" style="stop-color:#52523F; stop-opacity:1"/>
  </linearGradient>
 </defs>
  <path fill="url(#bark)" class="ColorScheme-Text" d="M 6.5,1 C 9.53,1 12.03,3.47 12.03,6.5 12.03,7.65 11.64,8.71 11.03,9.59 L 14.84,13.4 13.43,14.84 9.62,11.03 C 8.74,11.64 7.65,12 6.5,12 3.47,12 1,9.53 1,6.5 1,3.47 3.47,1 6.5,1 Z M 6.5,3 C 4.55,3 3,4.56 3,6.5 3,8.44 4.55,10 6.5,10 8.45,10 10,8.44 10,6.5 10,4.56 8.45,3 6.5,3 Z"/>
</svg>
