<svg xmlns="http://www.w3.org/2000/svg" width="16" height="16" version="1.1">
 <defs>
  <style id="current-color-scheme" type="text/css">
    .ColorScheme-Text { color: #d3dae3; } .ColorScheme-Highlight { color:#5294e2; }
  </style>
  <linearGradient id="bark" x1="0%" x2="0%" y1="0%" y2="100%">
    <stop offset="0%" style="stop-color:#9D9D87; stop-opacity:1"/>
    <stop offset="100%" style="stop-color:#52523F; stop-opacity:1"/>
  </linearGradient>
 </defs>
  <path fill="url(#bark)" class="ColorScheme-Text" d="M 10,2 V 14 H 9 V 2 Z M 14,3 V 4 H 12 V 3 Z M 7,3 V 5 H 5 V 3 Z M 3,3 V 5 H 1 V 3 Z M 14,6 V 7 H 12 V 6 Z M 7,7 V 9 H 5 V 7 Z M 3,7 V 9 H 1 V 7 Z M 14,9 V 10 H 12 V 9 Z M 7,11 V 13 H 5 V 11 Z M 3,11 V 13 H 1 V 11 Z M 14,12 V 13 H 12 V 12 Z"/>
</svg>
