<svg xmlns="http://www.w3.org/2000/svg" width="22" height="22" version="1.1">
 <defs>
  <style id="current-color-scheme" type="text/css">
    .ColorScheme-Text { color: #d3dae3; } .ColorScheme-Highlight { color:#5294e2; }
  </style>
  <linearGradient id="fitdance" x1="0%" x2="0%" y1="0%" y2="100%">
    <stop offset="0%" style="stop-color:#1AD6AB; stop-opacity:1"/>
    <stop offset="100%" style="stop-color:#329DB6; stop-opacity:1"/>
  </linearGradient>
 </defs>
  <path fill="url(#fitdance)" class="ColorScheme-Text" d="m 6,3 0,16 11,0 c 0.554,0 1,-0.446 1,-1 L 18,4 C 18,3.446 17.554,3 17,3 L 12,3 6,3 Z"/>
  <path fill="currentColor" class="ColorScheme-Highlight" d="m 13,3 0,7 2,0 0,-7 z"/>
  <path fill="url(#fitdance)" class="ColorScheme-Text" opacity="0.3" d="M 5,3 C 4.446,3 4,3.446 4,4 l 0,14 c 0,0.554 0.446,1 1,1 L 6,19 6,3 5,3 Z"/>
</svg>
