<svg xmlns="http://www.w3.org/2000/svg" width="22" height="22" version="1.1">
 <defs>
  <style id="current-color-scheme" type="text/css">
    .ColorScheme-Text { color: #d3dae3; } .ColorScheme-Highlight { color:#5294e2; }
  </style>
  <linearGradient id="fitdance" x1="0%" x2="0%" y1="0%" y2="100%">
    <stop offset="0%" style="stop-color:#1AD6AB; stop-opacity:1"/>
    <stop offset="100%" style="stop-color:#329DB6; stop-opacity:1"/>
  </linearGradient>
 </defs>
 <g transform="translate(-105 -767.36)">
  <path fill="url(#fitdance)" class="ColorScheme-Text" opacity="0.3" d="m108.5 770.36c-0.27701 0-0.5 0.22301-0.5 0.50001v0.5l-2-0.002v-0.00026l-0.00001 14.502c0 0.277 0.22299 0.5 0.5 0.5h6c0.27699 0 0.5-0.223 0.5-0.5l0.00001-14.501-0.50001 0.002h-1.5v-0.5c0-0.277-0.22301-0.50001-0.5-0.50001z"/>
  <path fill="url(#fitdance)" class="ColorScheme-Text" d="m106 780.36-0.00001 5.5017c-0.00001 0.277 0.22299 0.5 0.5 0.5h6c0.27699 0 0.5-0.223 0.5-0.5l0.00001-5.5017z"/>
  <path fill="url(#fitdance)" class="ColorScheme-Text" d="m120 770.36c-2.77 0-5 2.676-5 6h5zm1 0v6h5c0-3.324-2.23-6-5-6zm-6 7v3c0 3.324 2.23 6 5 6h1c2.77 0 5-2.676 5-6v-3h-5z"/>
 </g>
</svg>
