<svg xmlns="http://www.w3.org/2000/svg" width="24" height="24" version="1.1">
 <defs>
  <style id="current-color-scheme" type="text/css">
    .ColorScheme-Text { color: #d3dae3; } .ColorScheme-Highlight { color:#5294e2; }
  </style>
  <linearGradient id="sage" x1="0%" x2="0%" y1="0%" y2="100%">
    <stop offset="0%" style="stop-color:#919D87; stop-opacity:1"/>
    <stop offset="100%" style="stop-color:#49594C; stop-opacity:1"/>
  </linearGradient>
 </defs>
  <path fill="url(#sage)" class="ColorScheme-Text" d="m8 4a4 4 0 0 0 -4 4 4 4 0 0 0 1.1152 2.77 7 7 0 0 0 -0.1152 1.23 7 7 0 0 0 7 7 7 7 0 0 0 1.238 -0.113 4 4 0 0 0 2.762 1.113 4 4 0 0 0 4 -4 4 4 0 0 0 -1.115 -2.77 7 7 0 0 0 0.115 -1.23 7 7 0 0 0 -7 -7 7 7 0 0 0 -1.238 0.1133 4 4 0 0 0 -2.762 -1.1133zm4 5.0898v2h4v2h-4v2l-5-3 5-3z"/>
</svg>
