<svg xmlns="http://www.w3.org/2000/svg" width="16" height="16" version="1.1">
 <defs>
  <style id="current-color-scheme" type="text/css">
    .ColorScheme-Text { color: #d3dae3; } .ColorScheme-Highlight { color:#5294e2; }
  </style>
  <linearGradient id="60spsycho" x1="0%" x2="0%" y1="0%" y2="100%">
    <stop offset="0%" style="stop-color:#df5940; stop-opacity:1"/>
    <stop offset="100%" style="stop-color:#d8d15f; stop-opacity:1"/>
    <stop offset="0%" style="stop-color:#e9882a; stop-opacity:1"/>
    <stop offset="100%" style="stop-color:#279362; stop-opacity:1"/>
  </linearGradient>
 </defs>
  <path fill="url(#60spsycho)" class="ColorScheme-Text" d="M 3,1 C 3,1 2,1 2,2 V 11 C 2,11 2,12 3,12 H 4 V 3 H 12 V 2 C 12,1 11,1 11,1 Z M 6,4 C 6,4 5,4 5,5 V 15 C 5,16 6,16 6,16 H 14 C 14,16 15,16 15,15 V 5 C 15,4 14,4 14,4 Z M 7,6 H 13 V 14 H 7 Z"/>
</svg>
