<svg xmlns="http://www.w3.org/2000/svg" width="16" height="16" version="1.1">
 <defs>
  <style id="current-color-scheme" type="text/css">
    .ColorScheme-Text { color: #d3dae3; } .ColorScheme-Highlight { color:#5294e2; }
  </style>
  <linearGradient id="60spsycho" x1="0%" x2="0%" y1="0%" y2="100%">
    <stop offset="0%" style="stop-color:#df5940; stop-opacity:1"/>
    <stop offset="100%" style="stop-color:#d8d15f; stop-opacity:1"/>
    <stop offset="0%" style="stop-color:#e9882a; stop-opacity:1"/>
    <stop offset="100%" style="stop-color:#279362; stop-opacity:1"/>
  </linearGradient>
 </defs>
  <path fill="url(#60spsycho)" class="ColorScheme-Text" d="M 6 1 C 4.53 1 3.2505 1.81 2.5605 3 L 13.439 3 C 12.749 1.81 11.47 1 10 1 L 6 1 z M 0 4 L 0 6 L 4 6 C 4 6 5 6 5 5 C 5 4 4 4 4 4 L 0 4 z M 12 4 C 12 4 11 4 11 5 C 11 6 12 6 12 6 L 16 6 L 16 4 L 12 4 z M 2.5605 7 C 3.2505 8.19 4.53 9 6 9 L 10 9 C 11.47 9 12.749 8.19 13.439 7 L 2.5605 7 z M 5 12 L 8 16 L 11 12 L 5 12 z"/>
</svg>
