<svg xmlns="http://www.w3.org/2000/svg" width="16" height="16" version="1.1">
 <defs>
  <style id="current-color-scheme" type="text/css">
    .ColorScheme-Text { color: #d3dae3; } .ColorScheme-Highlight { color:#5294e2; }
  </style>
  <linearGradient id="60spsycho" x1="0%" x2="0%" y1="0%" y2="100%">
    <stop offset="0%" style="stop-color:#df5940; stop-opacity:1"/>
    <stop offset="100%" style="stop-color:#d8d15f; stop-opacity:1"/>
    <stop offset="0%" style="stop-color:#e9882a; stop-opacity:1"/>
    <stop offset="100%" style="stop-color:#279362; stop-opacity:1"/>
  </linearGradient>
 </defs>
  <path fill="url(#60spsycho)" class="ColorScheme-Text" d="M 8,5 H 12 V 6 H 8 Z"/>
  <path fill="url(#60spsycho)" class="ColorScheme-Text" d="M 4.25,4 H 6.75 C 6.8885,4 7,4.1115 7,4.25 V 6.75 C 7,6.8885 6.8885,7 6.75,7 H 4.25 C 4.1115,7 4,6.8885 4,6.75 V 4.25 C 4,4.1115 4.1115,4 4.25,4 Z"/>
  <path fill="url(#60spsycho)" class="ColorScheme-Text" d="M 8,10 H 12 V 11 H 8 Z"/>
  <path fill="url(#60spsycho)" class="ColorScheme-Text" d="M 4.25,9 H 6.75 C 6.8885,9 7,9.1115 7,9.25 V 11.75 C 7,11.889 6.8885,12 6.75,12 H 4.25 C 4.1115,12 4,11.889 4,11.75 V 9.25 C 4,9.1115 4.1115,9 4.25,9 Z"/>
</svg>
