<svg xmlns="http://www.w3.org/2000/svg" width="16" height="16" version="1.1">
 <defs>
  <style id="current-color-scheme" type="text/css">
    .ColorScheme-Text { color: #d3dae3; } .ColorScheme-Highlight { color:#5294e2; }
  </style>
  <linearGradient id="bark" x1="0%" x2="0%" y1="0%" y2="100%">
    <stop offset="0%" style="stop-color:#9D9D87; stop-opacity:1"/>
    <stop offset="100%" style="stop-color:#52523F; stop-opacity:1"/>
  </linearGradient>
 </defs>
  <path fill="url(#bark)" class="ColorScheme-Text" d="M 1.500001,16 1.754533,14.467981 8.664614,8.47395 4.384699,1.01491 4.554387,0 H 14.5 l -0.461928,2.82464 h -0.989849 c -1.1e-5,-0.14043 0.03456,-0.37663 0.103698,-0.70857 0.0754,-0.31278 0.113113,-0.54897 0.113126,-0.70857 -1.3e-5,-0.35744 -0.411663,-0.53617 -1.234954,-0.53617 H 6.892312 l 3.761422,6.68341 -7.937636,6.913241 h 7.343727 c 0.641035,0 1.071539,-0.130842 1.291516,-0.392579 0.22624,-0.280856 0.399071,-0.817076 0.518491,-1.608607 h 0.95214 L 12.256344,16 H 1.5"/>
</svg>
