<svg xmlns="http://www.w3.org/2000/svg" width="24" height="24" version="1.1">
 <defs>
  <style id="current-color-scheme" type="text/css">
    .ColorScheme-Text { color: #d3dae3; } .ColorScheme-Highlight { color:#5294e2; }
  </style>
  <linearGradient id="sunrise" x1="0%" x2="0%" y1="0%" y2="100%">
    <stop offset="0%" style="stop-color:#FF8501; stop-opacity:1"/>
    <stop offset="100%" style="stop-color:#FFCB01; stop-opacity:1"/>
  </linearGradient>
 </defs>
 <g transform="translate(-104 -744.36)">
  <path fill="url(#sunrise)" class="ColorScheme-Text" d="m117 748.36c-1 0-1 1-1 1v14s0 1 1 1h8c1 0 1-1 1-1v-14s0-1-1-1zm0.9998 2.0034h6v11h-6z"/>
  <path fill="currentColor" opacity=".35" class="ColorScheme-Text" d="m109.5 748.36c-0.27701 0-0.5 0.22301-0.5 0.50001v0.5l-2-0.002v-0.00026l-0.00001 14.502c0 0.277 0.22299 0.5 0.5 0.5h6c0.27699 0 0.5-0.223 0.5-0.5l0.00001-14.501-0.50001 0.002h-1.5v-0.5c0-0.277-0.22301-0.50001-0.5-0.50001z"/>
  <path fill="url(#sunrise)" class="ColorScheme-Text" d="m107 758.36-0.00001 5.5017c-0.00001 0.277 0.22299 0.5 0.5 0.5h6c0.27699 0 0.5-0.223 0.5-0.5l0.00001-5.5017z"/>
 </g>
</svg>
