<svg xmlns="http://www.w3.org/2000/svg" width="16" height="16" version="1.1">
 <defs>
  <style id="current-color-scheme" type="text/css">
    .ColorScheme-Text { color: #d3dae3; } .ColorScheme-Highlight { color:#5294e2; }
  </style>
  <linearGradient id="aurora" x1="0%" x2="0%" y1="0%" y2="100%">
    <stop offset="0%" style="stop-color:#09D4DF; stop-opacity:1"/>
    <stop offset="100%" style="stop-color:#ad6c16; stop-opacity:1"/>
  </linearGradient>
 </defs>
  <path fill="url(#aurora)" class="ColorScheme-Text" fill-rule="evenodd" d="M 6.571 10.857 L 3.151 10.857 L 3.151 14.286 L 1.714 14.286 L 1.714 6 L 3.135 6 L 3.135 9.429 L 6.571 9.429 L 6.571 6 L 8 6 L 8 14.286 L 6.571 14.286 L 6.571 10.857 L 6.571 10.857 L 6.571 10.857 Z M 16 15.2 L 16 0.8 C 16 0.359 15.641 0 15.2 0 L 0.8 0 C 0.359 0 0 0.359 0 0.8 L 0 15.2 C 0 15.642 0.359 16 0.8 16 L 15.2 16 C 15.641 16 16 15.642 16 15.2 L 16 15.2 L 16 15.2 Z M 14 1.143 L 14 2 L 13.143 2 L 13.143 2.857 L 14 2.857 L 14 6 L 14.857 6 L 14.857 1.143 L 14 1.143 Z"/>
</svg>
