<svg xmlns="http://www.w3.org/2000/svg" width="16" height="16" version="1.1">
 <defs>
  <style id="current-color-scheme" type="text/css">
    .ColorScheme-Text { color: #d3dae3; } .ColorScheme-Highlight { color:#5294e2; }
  </style>
  <linearGradient id="aurora" x1="0%" x2="0%" y1="0%" y2="100%">
    <stop offset="0%" style="stop-color:#09D4DF; stop-opacity:1"/>
    <stop offset="100%" style="stop-color:#ad6c16; stop-opacity:1"/>
  </linearGradient>
 </defs>
  <path fill="url(#aurora)" class="ColorScheme-Text" d="M 1 0 L 1 4 L 2 4 L 2 1 L 14 1 L 14 4 L 15 4 L 15 0 L 1 0 z M 10 3 L 10 4 L 13 4 L 13 3 L 10 3 z"/>
  <path fill="url(#aurora)" class="ColorScheme-Text" d="M 1 5 L 1 9 L 2 9 L 2 6 L 14 6 L 14 9 L 15 9 L 15 5 L 1 5 z M 10 8 L 10 9 L 13 9 L 13 8 L 10 8 z"/>
  <path fill="url(#aurora)" class="ColorScheme-Text" d="M 1 10 L 1 16 L 15 16 L 15 10 L 1 10 z M 2 11 L 14 11 L 14 15 L 2 15 L 2 11 z M 10 13 L 10 14 L 13 14 L 13 13 L 10 13 z"/>
</svg>
