<svg xmlns="http://www.w3.org/2000/svg" width="16" height="16" version="1.1">
 <defs>
  <style id="current-color-scheme" type="text/css">
    .ColorScheme-Text { color: #d3dae3; } .ColorScheme-Highlight { color:#5294e2; }
  </style>
  <linearGradient id="telinkrin" x1="0%" x2="0%" y1="0%" y2="100%">
    <stop offset="0%" style="stop-color:#b2ced6; stop-opacity:1"/>
    <stop offset="100%" style="stop-color:#6da5b7; stop-opacity:1"/>
  </linearGradient>
 </defs>
  <path fill="url(#telinkrin)" class="ColorScheme-Text" d="M 4.5,4 C 2.02,4 0,6.01 0,8.5 0,10.99 2.02,13 4.5,13 6.41,13 8.1,11.8 8.74,10 H 12 V 12 H 15 V 10 H 16 V 7 H 8.74 C 8.1,5.2 6.41,4 4.5,4 Z M 4.5,7 C 5.33,7 6,7.67 6,8.5 6,9.33 5.33,10 4.5,10 3.67,10 3,9.33 3,8.5 3,7.67 3.67,7 4.5,7 Z"/>
</svg>
