<svg xmlns="http://www.w3.org/2000/svg" width="22" height="22" version="1.1">
 <defs>
  <style id="current-color-scheme" type="text/css">
    .ColorScheme-Text { color: #d3dae3; } .ColorScheme-Highlight { color:#5294e2; }
  </style>
  <linearGradient id="grey" x1="0%" x2="0%" y1="0%" y2="100%">
    <stop offset="0%" style="stop-color:#8C8C8C; stop-opacity:1"/>
    <stop offset="100%" style="stop-color:#4B4B4B; stop-opacity:1"/>
  </linearGradient>
 </defs>
  <path fill="url(#grey)" class="ColorScheme-Text" d="M 6.5 1 C 6 1 6 1.5 6 1.5 L 6 9.5 C 6 10 6.5 10 6.5 10 L 15.5 10 C 15.5 10 16 10 16 9.5 L 16 1.5 C 16 1 15.5 1 15.5 1 L 6.5 1 z M 8 4 L 14 4 L 14 7.9960938 L 8 7.9960938 L 8 4 z M 1.5195312 6 C 1.5195312 6 1 6 1 6.5 L 1 14.5 C 1 15 1.5 15 1.5 15 L 10.5 15 C 10.5 15 11 14.97672 11 14.5 L 11 11.001953 L 9 11.001953 L 9 13.001953 L 3 13.001953 L 3 9 L 5 9 L 5 6 L 1.5195312 6 z" transform="translate(3 3)"/>
</svg>
