<svg xmlns="http://www.w3.org/2000/svg" width="22" height="22" version="1.1">
 <defs>
  <style id="current-color-scheme" type="text/css">
    .ColorScheme-Text { color: #d3dae3; } .ColorScheme-Highlight { color:#5294e2; }
  </style>
  <linearGradient id="arrongin" x1="0%" x2="0%" y1="0%" y2="100%">
    <stop offset="0%" style="stop-color:#dd9b44; stop-opacity:1"/>
    <stop offset="100%" style="stop-color:#ad6c16; stop-opacity:1"/>
  </linearGradient>
 </defs>
 <g transform="translate(0 -1030.4)">
  <path fill="url(#arrongin)" class="ColorScheme-Text" d="m11 3a7 8 0 0 0 -7 8 7 8 0 0 0 7 8 7 8 0 0 0 3.795 -1.285l-1.281-1.537a5 6 0 0 1 -2.514 0.822 5 6 0 0 1 -5 -6 5 6 0 0 1 5 -6 5 6 0 0 1 4.238 2.8242l2.742 2.7418a7 8 0 0 0 -6.98 -7.566zm3 5l2 4.5-3 1.5 5 6-2-5 3-2-5-5z" transform="translate(0 1030.4)"/>
 </g>
</svg>
