<svg xmlns="http://www.w3.org/2000/svg" width="22" height="22" version="1.1">
 <defs>
  <style id="current-color-scheme" type="text/css">
    .ColorScheme-Text { color: #d3dae3; } .ColorScheme-Highlight { color:#5294e2; }
  </style>
  <linearGradient id="arrongin" x1="0%" x2="0%" y1="0%" y2="100%">
    <stop offset="0%" style="stop-color:#dd9b44; stop-opacity:1"/>
    <stop offset="100%" style="stop-color:#ad6c16; stop-opacity:1"/>
  </linearGradient>
 </defs>
 <g transform="translate(-385 125)">
  <path fill="url(#arrongin)" class="ColorScheme-Text" d="m4.8613 3a1.8185 1.6245 0 0 0 -1.8613 1.623v6.377 6.377a1.8185 1.6245 0 0 0 2.7285 1.406l6.1815-3.189 6.182-3.188a1.8185 1.6245 0 0 0 0 -2.8122l-6.182-3.1876-6.1815-3.1894a1.8185 1.6245 0 0 0 -0.8672 -0.2168zm1.1387 3l4.5 2.5 4.5 2.5-4.5 2.5-4.5 2.5v-5-5z" transform="translate(385 -125)"/>
 </g>
</svg>
