<svg xmlns="http://www.w3.org/2000/svg" width="22" height="22" version="1.1">
 <defs>
  <style id="current-color-scheme" type="text/css">
    .ColorScheme-Text { color: #d3dae3; } .ColorScheme-Highlight { color:#5294e2; }
  </style>
  <linearGradient id="arrongin" x1="0%" x2="0%" y1="0%" y2="100%">
    <stop offset="0%" style="stop-color:#dd9b44; stop-opacity:1"/>
    <stop offset="100%" style="stop-color:#ad6c16; stop-opacity:1"/>
  </linearGradient>
 </defs>
  <path fill="url(#arrongin)" class="ColorScheme-Text" d="m11 3a4 4 0 0 0 -4 4 4 4 0 0 0 4 4 4 4 0 0 0 4 -4 4 4 0 0 0 -4 -4zm-1 2h2v1h1v2h-1v1h-2v-1h-1v-2h1v-1zm1 8c-8.0004 0.004-8 5.145-8 5.145v0.855h16v-0.855s0-5.149-8-5.145z"/>
</svg>
