<svg xmlns="http://www.w3.org/2000/svg" width="16" height="16" version="1.1">
 <defs>
  <style id="current-color-scheme" type="text/css">
    .ColorScheme-Text { color: #d3dae3; } .ColorScheme-Highlight { color:#5294e2; }
  </style>
  <linearGradient id="cyberneon" x1="0%" x2="0%" y1="0%" y2="100%">
    <stop offset="0%" style="stop-color:#0abdc6; stop-opacity:1"/>
    <stop offset="100%" style="stop-color:#ea00d9; stop-opacity:1"/>
  </linearGradient>
 </defs>
  <path fill="url(#cyberneon)" class="ColorScheme-Text" opacity="0.3" d="M 6,3 A 4,4 0 0 0 2,7 4,4 0 0 0 2.0058594,7.171875 3,3 0 0 0 0,10 3,3 0 0 0 3,13 l 10,0 A 3,3 0 0 0 16,10 3,3 0 0 0 13.990234,7.171875 3,3 0 0 0 14,7 3,3 0 0 0 11,4 3,3 0 0 0 9.1992188,4.6054688 4,4 0 0 0 6,3 Z"/>
</svg>
