<svg xmlns="http://www.w3.org/2000/svg" width="22" height="22" version="1.1">
 <defs>
  <style id="current-color-scheme" type="text/css">
    .ColorScheme-Text { color: #d3dae3; } .ColorScheme-Highlight { color:#5294e2; }
  </style>
  <linearGradient id="cyberneon" x1="0%" x2="0%" y1="0%" y2="100%">
    <stop offset="0%" style="stop-color:#0abdc6; stop-opacity:1"/>
    <stop offset="100%" style="stop-color:#ea00d9; stop-opacity:1"/>
  </linearGradient>
 </defs>
  <path fill="url(#cyberneon)" class="ColorScheme-Text" d="M 8 2 A 6.0000019 6.0000148 0 0 0 2 8 A 6.0000019 6.0000148 0 0 0 8 14 A 6.0000019 6.0000148 0 0 0 14 8 A 6.0000019 6.0000148 0 0 0 8 2 z M 8 3 L 8 8 L 13 8 A 5 5 0 0 1 8 13 A 5 5 0 0 1 3 8 A 5 5 0 0 1 8 3 z" transform="translate(3 3)"/>
</svg>
