<svg xmlns="http://www.w3.org/2000/svg" width="16" height="16" version="1.1">
 <defs>
  <style id="current-color-scheme" type="text/css">
    .ColorScheme-Text { color: #d3dae3; } .ColorScheme-Highlight { color:#5294e2; }
  </style>
  <linearGradient id="90ssummer" x1="0%" x2="0%" y1="0%" y2="100%">
    <stop offset="0%" style="stop-color:#f618c7; stop-opacity:1"/>
    <stop offset="100%" style="stop-color:#94ffab; stop-opacity:1"/>
    <stop offset="0%" style="stop-color:#fbfd54; stop-opacity:1"/>
    <stop offset="100%" style="stop-color:#0f83ae; stop-opacity:1"/>
  </linearGradient>
 </defs>
  <path fill="url(#90ssummer)" class="ColorScheme-Text" d="M 1.778 0 C 0.798 0 0 0.798 0 1.778 L 0 14.222 C 0 15.202 0.798 16 1.778 16 L 14.222 16 C 15.202 16 16 15.202 16 14.222 L 16 1.778 C 16 0.798 15.202 0 14.222 0 L 1.778 0 Z M 11.111 4 C 11.399 4 11.665 4.154 11.809 4.403 C 11.953 4.653 11.953 4.96 11.809 5.21 C 11.664 5.459 11.398 5.613 11.11 5.612 C 10.665 5.612 10.304 5.251 10.304 4.806 C 10.305 4.361 10.666 4 11.111 4 L 11.111 4 Z M 5.944 4.361 L 7.389 4.361 L 9.778 11.916 L 8.084 11.916 L 7.639 10.389 L 5.612 10.389 L 5.167 11.916 L 3.556 11.916 L 5.944 4.361 Z M 10.388 6.306 L 11.917 6.306 L 11.917 11.916 L 10.388 11.916 L 10.388 6.306 Z M 6.667 6.389 L 5.944 9.056 L 7.389 9.056 L 6.667 6.389 Z"/>
</svg>
