<svg xmlns="http://www.w3.org/2000/svg" width="16" height="16" version="1.1">
 <defs>
  <style id="current-color-scheme" type="text/css">
    .ColorScheme-Text { color: #d3dae3; } .ColorScheme-Highlight { color:#5294e2; }
  </style>
  <linearGradient id="oomox" x1="0%" x2="0%" y1="0%" y2="100%">
    <stop offset="0%" style="stop-color:#a4d8d4; stop-opacity:1"/>
    <stop offset="100%" style="stop-color:#318c85; stop-opacity:1"/>
  </linearGradient>
 </defs>
  <path fill="url(#oomox)" class="ColorScheme-Text" d="M 12.017578,3.2500426 C 8.1763435,3.3107871 5.9918263,5.6036404 4.8632812,7.8150324 3.9252712,9.6530696 3.7099286,11.186068 3.6445312,11.747736 H 0 v 1.002262 h 4.0664062 a 0.50005,0.50118106 0 0 0 0.5,-0.46198 c 0,0 0.1624301,-2.008246 1.1875,-4.0168782 0.9416165,-1.8451039 2.596563,-3.5760494 5.5312498,-3.8994252 -1.7331998,3.7998137 0.138672,8.0866094 0.138672,8.0866094 a 0.50005,0.50118106 0 0 0 0.453125,0.291674 H 16 V 11.747736 H 12.251953 C 12.060975,11.297664 10.38824,7.2479572 12.445312,4.0213145 A 0.50005,0.50118106 0 0 0 12.017578,3.2500426 Z"/>
</svg>
