<svg xmlns="http://www.w3.org/2000/svg" width="16" height="16" version="1.1">
 <defs>
  <style id="current-color-scheme" type="text/css">
    .ColorScheme-Text { color: #d3dae3; } .ColorScheme-Highlight { color:#5294e2; }
  </style>
  <linearGradient id="grey" x1="0%" x2="0%" y1="0%" y2="100%">
    <stop offset="0%" style="stop-color:#8C8C8C; stop-opacity:1"/>
    <stop offset="100%" style="stop-color:#4B4B4B; stop-opacity:1"/>
  </linearGradient>
 </defs>
  <path fill="url(#grey)" class="ColorScheme-Text" d="M 0,1.3333335 V 3.5565966 A 4.4444747,4.4444747 0 0 1 4.4444444,8.0010411 4.4444747,4.4444747 0 0 1 0,12.445484 v 2.221182 A 6.6667121,6.6667121 0 0 0 6.6677076,8.0010411 6.6667121,6.6667121 0 0 0 0,1.3333335 Z m 16,0 A 6.6667109,6.6667109 0 0 0 9.3343739,8.0010411 6.6667109,6.6667109 0 0 0 16,14.666666 V 12.445484 A 4.4444739,4.4444739 0 0 1 11.555556,8.0010411 4.4444739,4.4444739 0 0 1 16,3.5565966 Z"/>
</svg>
