<svg xmlns="http://www.w3.org/2000/svg" width="16" height="16" version="1.1">
 <defs>
  <style id="current-color-scheme" type="text/css">
    .ColorScheme-Text { color: #d3dae3; } .ColorScheme-Highlight { color:#5294e2; }
  </style>
  <linearGradient id="cyberneon" x1="0%" x2="0%" y1="0%" y2="100%">
    <stop offset="0%" style="stop-color:#0abdc6; stop-opacity:1"/>
    <stop offset="100%" style="stop-color:#ea00d9; stop-opacity:1"/>
  </linearGradient>
 </defs>
  <path fill="url(#cyberneon)" class="ColorScheme-Text" d="M 5,8.5 A 1.5,1.5 0 0 1 3.5,10 1.5,1.5 0 0 1 2,8.5 1.5,1.5 0 0 1 3.5,7 1.5,1.5 0 0 1 5,8.5 Z"/>
  <path fill="url(#cyberneon)" class="ColorScheme-Text" d="M 9,8.5 A 1.5,1.5 0 0 1 7.5,10 1.5,1.5 0 0 1 6,8.5 1.5,1.5 0 0 1 7.5,7 1.5,1.5 0 0 1 9,8.5 Z"/>
  <path fill="url(#cyberneon)" class="ColorScheme-Text" d="M 13,8.5 A 1.5,1.5 0 0 1 11.5,10 1.5,1.5 0 0 1 10,8.5 1.5,1.5 0 0 1 11.5,7 1.5,1.5 0 0 1 13,8.5 Z"/>
</svg>
