<svg xmlns="http://www.w3.org/2000/svg" width="16" height="16" version="1.1">
 <defs>
  <style id="current-color-scheme" type="text/css">
    .ColorScheme-Text { color: #d3dae3; } .ColorScheme-Highlight { color:#5294e2; }
  </style>
  <linearGradient id="rainblue" x1="0%" x2="0%" y1="0%" y2="100%">
    <stop offset="0%" style="stop-color:#00F260; stop-opacity:1"/>
    <stop offset="100%" style="stop-color:#0575E6; stop-opacity:1"/>
  </linearGradient>
 </defs>
  <path fill="url(#rainblue)" class="ColorScheme-Text" d="m 3,0.9999999 c -1,0 -1,1 -1,1 V 14 c 0,0 0,1 1,1 h 10 c 0,0 1,0 1,-1 V 1.9999999 c 0,0 0,-1 -1,-1 z m 5,2 c 2.2091,0 4,1.7909 4,4 C 12,9.2090999 10.2091,11 8,11 H 4 V 6.9999999 c 0,-2.2091 1.7909,-4 4,-4 z m 0,2 c -1.1046,0 -2,0.89543 -2,2 0,1.10457 0.89543,2 2,2 1.10457,0 2,-0.89543 2,-2 0,-1.10457 -0.89543,-2 -2,-2 z"/>
</svg>
