<svg xmlns="http://www.w3.org/2000/svg" width="16" height="16" version="1.1">
 <defs>
  <style id="current-color-scheme" type="text/css">
    .ColorScheme-Text { color: #d3dae3; } .ColorScheme-Highlight { color:#5294e2; }
  </style>
  <linearGradient id="rainblue" x1="0%" x2="0%" y1="0%" y2="100%">
    <stop offset="0%" style="stop-color:#00F260; stop-opacity:1"/>
    <stop offset="100%" style="stop-color:#0575E6; stop-opacity:1"/>
  </linearGradient>
 </defs>
  <path fill="url(#rainblue)" class="ColorScheme-Text" d="m6 1c-0.5523 0.0001-0.9999 0.4477-1 1v3h-3c-0.5523 0.0001-0.9999 0.4477-1 1v4c0.0001 0.552 0.4477 1 1 1h3v3c0.0001 0.552 0.4477 1 1 1h4c0.552 0 1-0.448 1-1v-3h3c0.552 0 1-0.448 1-1v-4c0-0.5523-0.448-0.9999-1-1h-3v-3c0-0.5523-0.448-0.9999-1-1h-4zm1 2h2v4h4v2h-4v4h-2v-4h-4v-2h4v-4z"/>
</svg>
