<svg xmlns="http://www.w3.org/2000/svg" width="22" height="22" version="1.1">
 <defs>
  <style id="current-color-scheme" type="text/css">
    .ColorScheme-Text { color: #d3dae3; } .ColorScheme-Highlight { color:#5294e2; }
  </style>
  <linearGradient id="oomox" x1="0%" x2="0%" y1="0%" y2="100%">
    <stop offset="0%" style="stop-color:#a4d8d4; stop-opacity:1"/>
    <stop offset="100%" style="stop-color:#318c85; stop-opacity:1"/>
  </linearGradient>
 </defs>
  <path fill="url(#oomox)" class="ColorScheme-Text" d="M 12,3 C 10.36,3 9,4.35 9,6 V 14 H 11 V 6 C 11,5 12,5 12,5 12,5 13,5 13,6 V 14.5 C 13,15.89 11.89,17 10.5,17 9.11,17 8,15.89 8,14.5 V 7 H 6 V 14.5 C 6,16.97 8.03,19 10.5,19 12.97,19 15,16.97 15,14.5 V 6 C 15,4.35 13.64,3 12,3 Z"/>
</svg>
