<svg xmlns="http://www.w3.org/2000/svg" width="16" height="16" version="1.1">
 <defs>
  <style id="current-color-scheme" type="text/css">
    .ColorScheme-Text { color: #d3dae3; } .ColorScheme-Highlight { color:#5294e2; }
  </style>
  <linearGradient id="grey" x1="0%" x2="0%" y1="0%" y2="100%">
    <stop offset="0%" style="stop-color:#8C8C8C; stop-opacity:1"/>
    <stop offset="100%" style="stop-color:#4B4B4B; stop-opacity:1"/>
  </linearGradient>
 </defs>
  <path fill="url(#grey)" class="ColorScheme-Text" d="m 14.498326,10.517045 q -0.07477,1.624566 -0.876416,2.875104 -0.8016,1.239798 -2.255179,1.92383 Q 9.9238395,16 8.0641278,16 4.9966612,16 3.2331305,14.001344 1.4696105,12.002645 1.4696105,8.3580587 v -0.769536 q 0,-2.287264 0.790912,-3.997344 0.8016,-1.720768 2.2979307,-2.650592 Q 6.0547732,0 8.0213758,0 10.853707,0 12.574475,1.4963307 14.295254,2.982016 14.53039,5.6005547 H 10.789579 Q 10.746806,4.1790507 10.073472,3.5591253 9.4001278,2.9392 8.0213758,2.9392 q -1.400128,0 -2.0521066,1.0474667 -0.651968,1.0474666 -0.684032,3.345376 v 1.1008426 q 0,2.4903357 0.619904,3.5591257 0.630592,1.068789 2.1589866,1.068789 1.2932587,0 1.9772912,-0.609248 0.684032,-0.609152 0.726784,-1.934507 z"/>
</svg>
