<svg xmlns="http://www.w3.org/2000/svg" width="16" height="16" version="1.1">
 <defs>
  <style id="current-color-scheme" type="text/css">
    .ColorScheme-Text { color: #d3dae3; } .ColorScheme-Highlight { color:#5294e2; }
  </style>
  <linearGradient id="aurora" x1="0%" x2="0%" y1="0%" y2="100%">
    <stop offset="0%" style="stop-color:#09D4DF; stop-opacity:1"/>
    <stop offset="100%" style="stop-color:#ad6c16; stop-opacity:1"/>
  </linearGradient>
 </defs>
  <path fill="url(#aurora)" class="ColorScheme-Text" opacity="0.3" d="M 15,1.01 1,15.01 H 9 V 11.01 H 10.01 C 10.03,9.37 11.36,8.01 13,8.01 13.77,8.01 14.47,8.32 15,8.81 Z"/>
  <path fill="url(#aurora)" class="ColorScheme-Text" d="M 5,11.01 1,15.01 H 5 Z"/>
  <path fill="url(#aurora)" class="ColorScheme-Text" d="M 13,9 C 11.89,9 11,9.91 11,11.03 V 12 H 10 V 16 H 16 V 12 H 15 V 11.03 C 15,9.91 14.11,9 13,9 Z M 13,10 C 13.55,10 14,10.44 14,11 V 12 H 12 V 11 C 12,10.44 12.45,10 13,10 Z"/>
</svg>
