<svg xmlns="http://www.w3.org/2000/svg" width="16" height="16" version="1.1">
 <defs>
  <style id="current-color-scheme" type="text/css">
    .ColorScheme-Text { color: #d3dae3; } .ColorScheme-Highlight { color:#5294e2; }
  </style>
  <linearGradient id="aurora" x1="0%" x2="0%" y1="0%" y2="100%">
    <stop offset="0%" style="stop-color:#09D4DF; stop-opacity:1"/>
    <stop offset="100%" style="stop-color:#ad6c16; stop-opacity:1"/>
  </linearGradient>
 </defs>
 <rect fill="url(#aurora)" class="ColorScheme-Text" width="2" height="2" x="3" y="3" rx=".5" ry=".5"/>
 <rect fill="url(#aurora)" class="ColorScheme-Text" width="2" height="2" x="7" y="3" rx=".5" ry=".5"/>
 <rect fill="url(#aurora)" class="ColorScheme-Text" width="2" height="2" x="11" y="3" rx=".5" ry=".5"/>
 <rect fill="url(#aurora)" class="ColorScheme-Text" width="2" height="2" x="3" y="7" rx=".5" ry=".5"/>
 <rect fill="url(#aurora)" class="ColorScheme-Text" width="2" height="2" x="7" y="7" rx=".5" ry=".5"/>
 <rect fill="url(#aurora)" class="ColorScheme-Text" width="2" height="2" x="11" y="7" rx=".5" ry=".5"/>
 <rect fill="url(#aurora)" class="ColorScheme-Text" width="2" height="2" x="3" y="11" rx=".5" ry=".5"/>
 <rect fill="url(#aurora)" class="ColorScheme-Text" width="2" height="2" x="7" y="11" rx=".5" ry=".5"/>
 <rect fill="url(#aurora)" class="ColorScheme-Text" width="2" height="2" x="11" y="11" rx=".5" ry=".5"/>
</svg>
