<svg xmlns="http://www.w3.org/2000/svg" width="22" height="22" version="1.1">
 <defs>
  <style id="current-color-scheme" type="text/css">
    .ColorScheme-Text { color: #d3dae3; } .ColorScheme-Highlight { color:#5294e2; }
  </style>
  <linearGradient id="grey" x1="0%" x2="0%" y1="0%" y2="100%">
    <stop offset="0%" style="stop-color:#8C8C8C; stop-opacity:1"/>
    <stop offset="100%" style="stop-color:#4B4B4B; stop-opacity:1"/>
  </linearGradient>
 </defs>
 <rect fill="url(#grey)" class="ColorScheme-Text" width="7" height="2" x="3" y="17" rx=".538" ry=".5"/>
 <rect fill="url(#grey)" class="ColorScheme-Text" opacity="0.3" width="7" height="2" x="3" y="15" rx=".538" ry=".5"/>
 <rect fill="url(#grey)" class="ColorScheme-Text" width="7" height="2" x="3" y="13" rx=".538" ry=".5"/>
 <rect fill="url(#grey)" class="ColorScheme-Text" opacity="0.3" width="7" height="2" x="3" y="11" rx=".538" ry=".5"/>
 <rect fill="url(#grey)" class="ColorScheme-Text" width="7" height="2" x="3" y="9" rx=".538" ry=".5"/>
 <rect fill="url(#grey)" class="ColorScheme-Text" opacity="0.3" width="7" height="2" x="3" y="7" rx=".538" ry=".5"/>
 <rect fill="url(#grey)" class="ColorScheme-Text" width="7" height="2" x="3" y="5" rx=".538" ry=".5"/>
 <rect fill="url(#grey)" class="ColorScheme-Text" opacity="0.3" width="7" height="2" x="3" y="3" rx=".538" ry=".5"/>
 <rect fill="url(#grey)" class="ColorScheme-Text" opacity="0.3" width="7" height="2" x="12" y="17" rx=".538" ry=".5"/>
 <rect fill="url(#grey)" class="ColorScheme-Text" width="7" height="2" x="12" y="15" rx=".538" ry=".5"/>
 <rect fill="url(#grey)" class="ColorScheme-Text" opacity="0.3" width="7" height="2" x="12" y="13" rx=".538" ry=".5"/>
 <rect fill="url(#grey)" class="ColorScheme-Text" width="7" height="2" x="12" y="11" rx=".538" ry=".5"/>
  <path fill="url(#grey)" class="ColorScheme-Text" d="m 15,3 v 2 h -2 v 2 h 2 v 2 h 2 V 7 h 2 V 5 H 17 V 3 Z"/>
</svg>
