<svg xmlns="http://www.w3.org/2000/svg" width="22" height="22" version="1.1">
 <defs>
  <style id="current-color-scheme" type="text/css">
    .ColorScheme-Text { color: #d3dae3; } .ColorScheme-Highlight { color:#5294e2; }
  </style>
  <linearGradient id="grey" x1="0%" x2="0%" y1="0%" y2="100%">
    <stop offset="0%" style="stop-color:#8C8C8C; stop-opacity:1"/>
    <stop offset="100%" style="stop-color:#4B4B4B; stop-opacity:1"/>
  </linearGradient>
 </defs>
  <path fill="url(#grey)" class="ColorScheme-Text" d="M 5 2 L 5 4 L 1 4 L 1 5 L 5 5 L 5 8 L 11 8 L 11 5 L 15 5 L 15 4 L 11 4 L 11 2 L 5 2 z M 10.833984 9 L 10 9.8339844 L 11.666016 11.5 L 10 13.166016 L 10.833984 14 L 12.5 12.333984 L 14.166016 14 L 15 13.166016 L 13.333984 11.5 L 15 9.8339844 L 14.166016 9 L 12.5 10.666016 L 10.833984 9 z" transform="translate(3 3)"/>
</svg>
