<svg xmlns="http://www.w3.org/2000/svg" width="22" height="22" version="1.1">
 <defs>
  <style id="current-color-scheme" type="text/css">
    .ColorScheme-Text { color: #d3dae3; } .ColorScheme-Highlight { color:#5294e2; }
  </style>
  <linearGradient id="grey" x1="0%" x2="0%" y1="0%" y2="100%">
    <stop offset="0%" style="stop-color:#8C8C8C; stop-opacity:1"/>
    <stop offset="100%" style="stop-color:#4B4B4B; stop-opacity:1"/>
  </linearGradient>
 </defs>
  <path fill="url(#grey)" class="ColorScheme-Text" d="M 11,3 A 8,8 0 0 0 2.9999999,11 8,8 0 0 0 11,19 8,8 0 0 0 19,11 8,8 0 0 0 11,3 Z M 9,5.9999999 h 6 V 14 a 2,2 0 0 1 -2,2 2,2 0 0 1 -2,-2 2,2 0 0 1 2,-2 2,2 0 0 1 1,0.269531 V 8.0000001 H 10 V 14 A 2,2 0 0 1 8,16 2,2 0 0 1 6,14 2,2 0 0 1 8,12 2,2 0 0 1 9,12.269531 V 8.0000001 Z"/>
</svg>
