<svg xmlns="http://www.w3.org/2000/svg" width="16" height="16" version="1.1">
 <defs>
  <style id="current-color-scheme" type="text/css">
    .ColorScheme-Text { color: #d3dae3; } .ColorScheme-Highlight { color:#5294e2; }
  </style>
  <linearGradient id="rainblue" x1="0%" x2="0%" y1="0%" y2="100%">
    <stop offset="0%" style="stop-color:#00F260; stop-opacity:1"/>
    <stop offset="100%" style="stop-color:#0575E6; stop-opacity:1"/>
  </linearGradient>
 </defs>
  <path fill="url(#rainblue)" class="ColorScheme-Text" d="M 4.019,5.725 H 1.213 L 0,11.867 h 1.441 l 0.303,-1.592 h 1.365 c 1.289,0.076 2.73,-0.986 2.73,-2.806 0,-1.061 -0.607,-1.668 -1.82,-1.744 z M 2.957,9.138 h -0.91 l 0.38,-2.275 h 0.985 c 0.531,0 0.91,0.227 0.91,0.682 C 4.246,8.834 3.64,9.062 2.957,9.138 Z M 5.384,10.275 6.597,4.133 H 8.038 L 7.734,5.725 h 1.365 c 1.214,0.076 1.669,0.683 1.517,1.441 l -0.531,3.109 H 8.568 L 9.099,7.469 C 9.175,7.09 9.175,6.863 8.644,6.863 H 7.507 l -0.683,3.412 z m 8.796,-4.55 h -2.806 l -1.213,6.142 h 1.441 l 0.303,-1.592 H 13.27 C 14.559,10.351 16,9.289 16,7.469 16,6.408 15.393,5.801 14.18,5.725 Z m -1.062,3.413 h -0.91 l 0.38,-2.275 h 0.985 c 0.531,0 0.91,0.227 0.91,0.682 -0.075,1.289 -0.682,1.517 -1.365,1.593 z"/>
</svg>
