<svg xmlns="http://www.w3.org/2000/svg" width="16" height="16" version="1.1">
 <defs>
  <style id="current-color-scheme" type="text/css">
    .ColorScheme-Text { color: #d3dae3; } .ColorScheme-Highlight { color:#5294e2; }
  </style>
  <linearGradient id="bark" x1="0%" x2="0%" y1="0%" y2="100%">
    <stop offset="0%" style="stop-color:#9D9D87; stop-opacity:1"/>
    <stop offset="100%" style="stop-color:#52523F; stop-opacity:1"/>
  </linearGradient>
 </defs>
  <path fill="url(#bark)" class="ColorScheme-Text" d="M 1,5 V 8 C 1,9 1.06,10.15 1.2,11 1.34,11.85 2,14 2,14 2,14 2.48,15 3,15 H 12 C 12.52,15 13,14 13,14 13,14 13.66,11.85 13.8,11 13.94,10.15 14,9 14,8 V 5 Z"/>
  <path fill="url(#bark)" class="ColorScheme-Text" d="M 1,3 V 4 H 14 V 3 C 14,2 13,2 13,2 H 10 C 10,2 10,1 9,1 H 6 C 5,1 5,2 5,2 H 2 C 2,2 1,2 1,3 Z"/>
</svg>
