<svg xmlns="http://www.w3.org/2000/svg" width="16" height="16" version="1.1">
 <defs>
  <style id="current-color-scheme" type="text/css">
    .ColorScheme-Text { color: #d3dae3; } .ColorScheme-Highlight { color:#5294e2; }
  </style>
  <linearGradient id="grey" x1="0%" x2="0%" y1="0%" y2="100%">
    <stop offset="0%" style="stop-color:#8C8C8C; stop-opacity:1"/>
    <stop offset="100%" style="stop-color:#4B4B4B; stop-opacity:1"/>
  </linearGradient>
 </defs>
  <path fill="url(#grey)" class="ColorScheme-Text" d="M 8 0 C 8 0 4.364 1.455 4.364 4.364 L 4.364 8.727 L 2.182 10.909 L 2.182 12.364 L 13.818 12.364 L 13.818 10.909 L 11.636 8.727 L 11.636 4.364 C 11.636 1.455 8 0 8 0 Z M 8 3.636 C 8.803 3.636 9.455 4.288 9.455 5.091 C 9.455 5.894 8.803 6.545 8 6.545 C 7.197 6.545 6.545 5.894 6.545 5.091 C 6.545 4.288 7.197 3.636 8 3.636 Z M 5.818 13.818 C 5.818 15.273 8 16 8 16 C 8 16 10.182 15.273 10.182 13.818 L 8.918 13.818 C 8.503 14.349 8 14.642 8 14.642 C 8 14.642 7.497 14.349 7.082 13.818 L 5.818 13.818 Z"/>
</svg>
