<svg xmlns="http://www.w3.org/2000/svg" width="16" height="16" version="1.1">
 <defs>
  <style id="current-color-scheme" type="text/css">
    .ColorScheme-Text { color: #d3dae3; } .ColorScheme-Highlight { color:#5294e2; }
  </style>
  <linearGradient id="grey" x1="0%" x2="0%" y1="0%" y2="100%">
    <stop offset="0%" style="stop-color:#8C8C8C; stop-opacity:1"/>
    <stop offset="100%" style="stop-color:#4B4B4B; stop-opacity:1"/>
  </linearGradient>
 </defs>
  <path fill="url(#grey)" class="ColorScheme-Text" fill-rule="evenodd" d="M 8 1.777 C 4.564 1.777 1.777 4.564 1.777 8 C 1.777 11.436 4.564 14.223 8 14.223 C 11.436 14.223 14.223 11.436 14.223 8 C 14.223 4.564 11.436 1.777 8 1.777 L 8 1.777 Z M 8 0 C 12.418 0 16 3.582 16 8 C 16 12.418 12.418 16 8 16 C 3.582 16 0 12.418 0 8 C 0 3.582 3.582 0 8 0 L 8 0 Z M 4.486 8 C 4.486 6.06 6.06 4.486 8 4.486 C 9.94 4.486 11.514 6.06 11.514 8 C 11.514 9.94 9.94 11.514 8 11.514 C 6.06 11.514 4.486 9.94 4.486 8 Z"/>
</svg>
