<svg xmlns="http://www.w3.org/2000/svg" width="16" height="16" version="1.1">
 <defs>
  <style id="current-color-scheme" type="text/css">
    .ColorScheme-Text { color: #d3dae3; } .ColorScheme-Highlight { color:#5294e2; }
  </style>
  <linearGradient id="telinkrin" x1="0%" x2="0%" y1="0%" y2="100%">
    <stop offset="0%" style="stop-color:#b2ced6; stop-opacity:1"/>
    <stop offset="100%" style="stop-color:#6da5b7; stop-opacity:1"/>
  </linearGradient>
 </defs>
  <path fill="url(#telinkrin)" class="ColorScheme-Text" d="M 2,1 C 2,1 1,1 1,2 V 7 H 3 V 6 H 3.8 L 6.21,3.586 8.63,6 H 13 V 13 H 7.66 L 6.22,14.459 4.76,13 H 3 V 11 H 1 V 14 C 1,14 1,15 2,15 H 14 C 15,15 15,14 15,14 V 2 C 15,2 15,1 14,1 Z"/>
  <path fill="url(#telinkrin)" class="ColorScheme-Text" d="M 6.21,5 4.83,6.386 6.46,8.021 0,8 V 10 L 6.46,10.021 4.83,11.655 6.21,13.041 10.21,9 Z"/>
</svg>
