<svg xmlns="http://www.w3.org/2000/svg" width="16" height="16" version="1.1">
 <defs>
  <style id="current-color-scheme" type="text/css">
    .ColorScheme-Text { color: #d3dae3; } .ColorScheme-Highlight { color:#5294e2; }
  </style>
  <linearGradient id="telinkrin" x1="0%" x2="0%" y1="0%" y2="100%">
    <stop offset="0%" style="stop-color:#b2ced6; stop-opacity:1"/>
    <stop offset="100%" style="stop-color:#6da5b7; stop-opacity:1"/>
  </linearGradient>
 </defs>
  <path fill="url(#telinkrin)" class="ColorScheme-Text" d="M 6,2 V 14 H 7 V 2 Z M 2,3 V 4 H 4 V 3 Z M 9,3 V 5 H 11 V 3 Z M 13,3 V 5 H 15 V 3 Z M 2,6 V 7 H 4 V 6 Z M 9,7 V 9 H 11 V 7 Z M 13,7 V 9 H 15 V 7 Z M 2,9 V 10 H 4 V 9 Z M 9,11 V 13 H 11 V 11 Z M 13,11 V 13 H 15 V 11 Z M 2,12 V 13 H 4 V 12 Z"/>
</svg>
