<svg xmlns="http://www.w3.org/2000/svg" width="16" height="16" version="1.1">
 <defs>
  <style id="current-color-scheme" type="text/css">
    .ColorScheme-Text { color: #d3dae3; } .ColorScheme-Highlight { color:#5294e2; }
  </style>
  <linearGradient id="telinkrin" x1="0%" x2="0%" y1="0%" y2="100%">
    <stop offset="0%" style="stop-color:#b2ced6; stop-opacity:1"/>
    <stop offset="100%" style="stop-color:#6da5b7; stop-opacity:1"/>
  </linearGradient>
 </defs>
  <path fill="url(#telinkrin)" class="ColorScheme-Text" d="M 5,4 A 1,1 0 0 0 4,5 1,1 0 0 0 4.29,5.71 L 6.59,8 4.29,10.29 A 1,1 0 0 0 4,11 1,1 0 0 0 5,12 1,1 0 0 0 5.71,11.71 L 8,9.41 10.28,11.7 A 1,1 0 0 0 11,12 1,1 0 0 0 12,11 1,1 0 0 0 11.71,10.29 L 9.41,8 11.7,5.72 A 1,1 0 0 0 12,5 1,1 0 0 0 11,4 1,1 0 0 0 10.29,4.29 L 8,6.59 5.72,4.3 A 1,1 0 0 0 5.71,4.29 1,1 0 0 0 5,4 Z"/>
</svg>
