<svg xmlns="http://www.w3.org/2000/svg" width="16" height="16" version="1.1">
 <defs>
  <style id="current-color-scheme" type="text/css">
    .ColorScheme-Text { color: #d3dae3; } .ColorScheme-Highlight { color:#5294e2; }
  </style>
  <linearGradient id="rainblue" x1="0%" x2="0%" y1="0%" y2="100%">
    <stop offset="0%" style="stop-color:#00F260; stop-opacity:1"/>
    <stop offset="100%" style="stop-color:#0575E6; stop-opacity:1"/>
  </linearGradient>
 </defs>
  <path fill="url(#rainblue)" class="ColorScheme-Text" d="M 2,13.5 A 1.5,1.5 0 0 0 3.5,15 1.5,1.5 0 0 0 5,13.5 1.5,1.5 0 0 0 3.5,12 1.5,1.5 0 0 0 2,13.5 Z M 2,6 9,11 V 8 h 4 V 4 H 9 V 1 Z m 4,7.5 A 1.5,1.5 0 0 0 7.5,15 1.5,1.5 0 0 0 9,13.5 1.5,1.5 0 0 0 7.5,12 1.5,1.5 0 0 0 6,13.5 Z m 4,0 A 1.5,1.5 0 0 0 11.5,15 1.5,1.5 0 0 0 13,13.5 1.5,1.5 0 0 0 11.5,12 1.5,1.5 0 0 0 10,13.5 Z"/>
</svg>
