<svg xmlns="http://www.w3.org/2000/svg" width="22" height="22" version="1.1">
 <defs>
  <style id="current-color-scheme" type="text/css">
    .ColorScheme-Text { color: #d3dae3; } .ColorScheme-Highlight { color:#5294e2; }
  </style>
  <linearGradient id="aurora" x1="0%" x2="0%" y1="0%" y2="100%">
    <stop offset="0%" style="stop-color:#09D4DF; stop-opacity:1"/>
    <stop offset="100%" style="stop-color:#ad6c16; stop-opacity:1"/>
  </linearGradient>
 </defs>
  <path fill="url(#aurora)" class="ColorScheme-Text" d="M 3 1 C 3 1 2 1 2 2 L 2 14 C 2 15 3 15 3 15 L 7 15 L 7 13 L 4 13 L 4 3.0039062 L 12 3.0039062 L 12 7.9902344 L 14 7.9902344 L 14 2 C 14 1 13 1 13 1 L 3 1 z M 12 9 L 8 13 L 8 15 L 10 15 L 14 11 L 12 9 z" transform="translate(3 3)"/>
</svg>
