<svg xmlns="http://www.w3.org/2000/svg" width="22" height="22" version="1.1">
 <defs>
  <style id="current-color-scheme" type="text/css">
    .ColorScheme-Text { color: #d3dae3; } .ColorScheme-Highlight { color:#5294e2; }
  </style>
  <linearGradient id="bark" x1="0%" x2="0%" y1="0%" y2="100%">
    <stop offset="0%" style="stop-color:#9D9D87; stop-opacity:1"/>
    <stop offset="100%" style="stop-color:#52523F; stop-opacity:1"/>
  </linearGradient>
 </defs>
  <path fill="url(#bark)" class="ColorScheme-Text" d="M 0.99609375 0.00390625 L 0.99609375 2.0039062 L 2.9960938 2.0039062 L 2.9960938 7.0039062 L 6.9960938 7.0039062 L 6.9960938 2.0039062 L 8.9960938 2.0039062 L 8.9960938 7.0039062 L 12.996094 7.0039062 L 12.996094 2.0039062 L 14.996094 2.0039062 L 14.996094 0.00390625 L 0.99609375 0.00390625 z M 0.99609375 9.0039062 L 0.99609375 11.003906 L 2.9960938 11.003906 L 2.9960938 16.003906 L 6.9960938 16.003906 L 6.9960938 11.003906 L 8.9960938 11.003906 L 8.9960938 16.003906 L 12.996094 16.003906 L 12.996094 11.003906 L 14.996094 11.003906 L 14.996094 9.0039062 L 0.99609375 9.0039062 z" transform="translate(3 3)"/>
</svg>
