<svg xmlns="http://www.w3.org/2000/svg" width="22" height="22" version="1.1">
 <defs>
  <style id="current-color-scheme" type="text/css">
    .ColorScheme-Text { color: #d3dae3; } .ColorScheme-Highlight { color:#5294e2; }
  </style>
  <linearGradient id="bark" x1="0%" x2="0%" y1="0%" y2="100%">
    <stop offset="0%" style="stop-color:#9D9D87; stop-opacity:1"/>
    <stop offset="100%" style="stop-color:#52523F; stop-opacity:1"/>
  </linearGradient>
 </defs>
  <path fill="url(#bark)" class="ColorScheme-Text" d="M 3 1.0039062 C 3 1.0039062 2 1.0039062 2 2.0039062 L 2 4.7539062 L 4 5.9101562 L 4 3.0039062 L 12 3.0039062 L 12 11.980469 L 0 4.9921875 L 0 11.992188 L 12 11.992188 L 12 13.003906 L 2 13.003906 L 2 14.003906 C 2 15.003906 3 15.003906 3 15.003906 L 13 15.003906 C 13 15.003906 14 15.003906 14 14.003906 L 14 2.0039062 C 14 1.0039062 13 1.0039062 13 1.0039062 L 3 1.0039062 z M 2 8.046875 L 5.1152344 10.023438 L 2 10.023438 L 2 8.046875 z" transform="translate(3 3)"/>
</svg>
