<svg xmlns="http://www.w3.org/2000/svg" width="22" height="22" version="1.1">
 <defs>
  <style id="current-color-scheme" type="text/css">
    .ColorScheme-Text { color: #d3dae3; } .ColorScheme-Highlight { color:#5294e2; }
  </style>
  <linearGradient id="bark" x1="0%" x2="0%" y1="0%" y2="100%">
    <stop offset="0%" style="stop-color:#9D9D87; stop-opacity:1"/>
    <stop offset="100%" style="stop-color:#52523F; stop-opacity:1"/>
  </linearGradient>
 </defs>
  <path fill="url(#bark)" class="ColorScheme-Text" d="M 3.5 1 A 2.5 2.5 0 0 0 1 3.5 A 2.5 2.5 0 0 0 3.5 6 A 2.5 2.5 0 0 0 5.9453125 4 L 7 4 L 7 12 L 7 13 L 8.5 13 L 9.0507812 13 A 2.5 2.5 0 0 0 11.5 15 A 2.5 2.5 0 0 0 14 12.5 A 2.5 2.5 0 0 0 11.5 10 A 2.5 2.5 0 0 0 9.0546875 12 L 8 12 L 8 3 L 7.5 3 L 5.9492188 3 A 2.5 2.5 0 0 0 3.5 1 z" transform="translate(3 3)"/>
</svg>
