<svg xmlns="http://www.w3.org/2000/svg" width="24" height="24" version="1.1">
 <defs>
  <style id="current-color-scheme" type="text/css">
    .ColorScheme-Text { color: #d3dae3; } .ColorScheme-Highlight { color:#5294e2; }
  </style>
  <linearGradient id="fitdance" x1="0%" x2="0%" y1="0%" y2="100%">
    <stop offset="0%" style="stop-color:#1AD6AB; stop-opacity:1"/>
    <stop offset="100%" style="stop-color:#329DB6; stop-opacity:1"/>
  </linearGradient>
 </defs>
  <path fill="url(#fitdance)" class="ColorScheme-Text" d="M 0 1 L 0 15 L 2 15 L 2 13 L 7 13 L 7 9 L 2 9 L 2 7 L 7 7 L 7 3 L 2 3 L 2 1 L 0 1 z M 9 1 L 9 15 L 11 15 L 11 13 L 16 13 L 16 9 L 11 9 L 11 7 L 16 7 L 16 3 L 11 3 L 11 1 L 9 1 z" transform="translate(4 4)"/>
</svg>
