<svg xmlns="http://www.w3.org/2000/svg" width="24" height="24" version="1.1">
 <defs>
  <style id="current-color-scheme" type="text/css">
    .ColorScheme-Text { color: #d3dae3; } .ColorScheme-Highlight { color:#5294e2; }
  </style>
  <linearGradient id="telinkrin" x1="0%" x2="0%" y1="0%" y2="100%">
    <stop offset="0%" style="stop-color:#b2ced6; stop-opacity:1"/>
    <stop offset="100%" style="stop-color:#6da5b7; stop-opacity:1"/>
  </linearGradient>
 </defs>
  <path fill="url(#telinkrin)" class="ColorScheme-Text" d="m 7,4 0,16 11,0 c 0.554,0 1,-0.446 1,-1 L 19,5 C 19,4.446 18.554,4 18,4 L 13,4 7,4 Z"/>
  <path fill="currentColor" class="ColorScheme-Highlight" d="m 14,4 0,7 2,0 0,-7 z"/>
  <path fill="url(#telinkrin)" class="ColorScheme-Text" opacity="0.3" d="M 6,4 C 5.446,4 5,4.446 5,5 l 0,14 c 0,0.554 0.446,1 1,1 L 7,20 7,4 6,4 Z"/>
</svg>
