<svg xmlns="http://www.w3.org/2000/svg" width="22" height="22" version="1.1">
 <defs>
  <style id="current-color-scheme" type="text/css">
    .ColorScheme-Text { color: #d3dae3; } .ColorScheme-Highlight { color:#5294e2; }
  </style>
  <linearGradient id="60spsycho" x1="0%" x2="0%" y1="0%" y2="100%">
    <stop offset="0%" style="stop-color:#df5940; stop-opacity:1"/>
    <stop offset="100%" style="stop-color:#d8d15f; stop-opacity:1"/>
    <stop offset="0%" style="stop-color:#e9882a; stop-opacity:1"/>
    <stop offset="100%" style="stop-color:#279362; stop-opacity:1"/>
  </linearGradient>
 </defs>
  <path fill="url(#60spsycho)" class="ColorScheme-Text" d="m10.467 5a5.3333 5.4545 0 0 0 -5.0479 3.7073 4.2667 4.3636 0 0 0 -2.4188 3.929 4.2667 4.3636 0 0 0 4.2667 4.3636 4.2667 4.3636 0 0 0 2.8354 -1.1105 5.3333 5.4545 0 0 0 0.36459 0.01964 5.3333 5.4545 0 0 0 2.2539 -0.51818 4.2667 4.3636 0 0 0 2.0128 0.51818 4.2667 4.3636 0 0 0 4.266 -4.365 4.2667 4.3636 0 0 0 -4.267 -4.3632 4.2667 4.3636 0 0 0 -0.0085 0 5.3333 5.4545 0 0 0 -4.2581 -2.1818z"/>
</svg>
