<svg xmlns="http://www.w3.org/2000/svg" width="22" height="22" version="1.1">
 <defs>
  <style id="current-color-scheme" type="text/css">
    .ColorScheme-Text { color: #d3dae3; } .ColorScheme-Highlight { color:#5294e2; }
  </style>
  <linearGradient id="60spsycho" x1="0%" x2="0%" y1="0%" y2="100%">
    <stop offset="0%" style="stop-color:#df5940; stop-opacity:1"/>
    <stop offset="100%" style="stop-color:#d8d15f; stop-opacity:1"/>
    <stop offset="0%" style="stop-color:#e9882a; stop-opacity:1"/>
    <stop offset="100%" style="stop-color:#279362; stop-opacity:1"/>
  </linearGradient>
 </defs>
  <path fill="url(#60spsycho)" class="ColorScheme-Text" opacity="0.3" d="m5 5s-2 0-2 2v8c0 2 2 2 2 2h11s2 0 2-2v-8c0-2-2-2-2-2h-11zm0.25 2h1.5c0.1385 0 0.25 0.1115 0.25 0.25v1.5c0 0.1385-0.1115 0.25-0.25 0.25h-1.5c-0.1385 0-0.25-0.1115-0.25-0.25v-1.5c0-0.1385 0.1115-0.25 0.25-0.25zm3 0h1.5c0.1385 0 0.25 0.1115 0.25 0.25v1.5c0 0.1385-0.1115 0.25-0.25 0.25h-1.5c-0.1385 0-0.25-0.1115-0.25-0.25v-1.5c0-0.1385 0.1115-0.25 0.25-0.25zm3 0h1.5c0.138 0 0.25 0.1115 0.25 0.25v1.5c0 0.1385-0.112 0.25-0.25 0.25h-1.5c-0.138 0-0.25-0.1115-0.25-0.25v-1.5c0-0.1385 0.112-0.25 0.25-0.25zm3 0h1.5c0.138 0 0.25 0.1115 0.25 0.25v1.5c0 0.1385-0.112 0.25-0.25 0.25h-1.5c-0.138 0-0.25-0.1115-0.25-0.25v-1.5c0-0.1385 0.112-0.25 0.25-0.25zm-9 3h1.5c0.1385 0 0.25 0.112 0.25 0.25v1.5c0 0.138-0.1115 0.25-0.25 0.25h-1.5c-0.1385 0-0.25-0.112-0.25-0.25v-1.5c0-0.138 0.1115-0.25 0.25-0.25zm3 0h1.5c0.1385 0 0.25 0.112 0.25 0.25v1.5c0 0.138-0.1115 0.25-0.25 0.25h-1.5c-0.1385 0-0.25-0.112-0.25-0.25v-1.5c0-0.138 0.1115-0.25 0.25-0.25zm3 0h1.5c0.1385 0 0.25 0.1115 0.25 0.25v1.5c0 0.138-0.112 0.25-0.25 0.25h-1.5c-0.138 0-0.25-0.112-0.25-0.25v-1.5c0-0.138 0.112-0.25 0.25-0.25zm3 0h1.5c0.1385 0 0.25 0.1115 0.25 0.25v1.5c0 0.138-0.112 0.25-0.25 0.25h-1.5c-0.138 0-0.25-0.112-0.25-0.25v-1.5c0-0.138 0.112-0.25 0.25-0.25zm-7 3h6.5c0.1385 0 0.25 0.1115 0.25 0.25v1.5c0 0.138-0.112 0.25-0.25 0.25h-6.5c-0.1385 0-0.25-0.112-0.25-0.25v-1.5c0-0.138 0.1115-0.25 0.25-0.25z"/>
</svg>
