<svg xmlns="http://www.w3.org/2000/svg" width="22" height="22" version="1.1">
 <defs>
  <style id="current-color-scheme" type="text/css">
    .ColorScheme-Text { color: #d3dae3; } .ColorScheme-Highlight { color:#5294e2; }
  </style>
  <linearGradient id="60spsycho" x1="0%" x2="0%" y1="0%" y2="100%">
    <stop offset="0%" style="stop-color:#df5940; stop-opacity:1"/>
    <stop offset="100%" style="stop-color:#d8d15f; stop-opacity:1"/>
    <stop offset="0%" style="stop-color:#e9882a; stop-opacity:1"/>
    <stop offset="100%" style="stop-color:#279362; stop-opacity:1"/>
  </linearGradient>
 </defs>
 <g transform="translate(-153.0002,-551.36047)">
  <path fill="url(#60spsycho)" class="ColorScheme-Text" d="m 158,556.3622 c 0,0 -1,0 -1,1 l 0,9 c 0,1 1,1 1,1 l 2,0 1,1 6,0 1,-1 2,0 c 0,0 1,0.12994 1,-1 l 0,-9 c 0,-1 -1,-1 -1,-1 l -12,0 z m 6,2 c 1.10457,0 2,0.89543 2,2 0,1.10457 -0.89543,2 -2,2 l 0,1 -1,0 0,-2 1,0 c 0.55229,0 1,-0.44772 1,-1 0,-0.55228 -0.44771,-1 -1,-1 -0.55228,0 -1,0.44772 -1,1 l -1,0 c 0,-1.10457 0.89543,-2 2,-2 z m -0.5,5.75 c 0.41421,0 0.75,0.33579 0.75,0.75 0,0.41421 -0.33579,0.75 -0.75,0.75 -0.41421,0 -0.75,-0.33579 -0.75,-0.75 0,-0.41421 0.33579,-0.75 0.75,-0.75 z"/>
 </g>
</svg>
