<svg xmlns="http://www.w3.org/2000/svg" width="22" height="22" version="1.1">
 <defs>
  <style id="current-color-scheme" type="text/css">
    .ColorScheme-Text { color: #d3dae3; } .ColorScheme-Highlight { color:#5294e2; }
  </style>
  <linearGradient id="60spsycho" x1="0%" x2="0%" y1="0%" y2="100%">
    <stop offset="0%" style="stop-color:#df5940; stop-opacity:1"/>
    <stop offset="100%" style="stop-color:#d8d15f; stop-opacity:1"/>
    <stop offset="0%" style="stop-color:#e9882a; stop-opacity:1"/>
    <stop offset="100%" style="stop-color:#279362; stop-opacity:1"/>
  </linearGradient>
 </defs>
  <path fill="url(#60spsycho)" class="ColorScheme-Text" d="m12.561 3c-1.28 0-2.5605-0.0007031-2.5605 1.2793v8.0625c-0.46846-0.22377-0.98084-0.34052-1.5-0.3418-1.933 0-3.5 1.567-3.5 3.5s1.567 3.5 3.5 3.5c1.8917-0.0024 3.4392-1.5075 3.4941-3.3984l0.0059 0.0039c0.000222-0.03496-0.00021-0.0705 0-0.10547 0.01427-2.3762 0-4.7806 0-7.166 0-3.5324 4.36 1.026 5 1.666 0-1.7069 0.04055-7-4.4395-7z"/>
</svg>
