<svg xmlns="http://www.w3.org/2000/svg" width="22" height="22" version="1.1">
 <defs>
  <style id="current-color-scheme" type="text/css">
    .ColorScheme-Text { color: #d3dae3; } .ColorScheme-Highlight { color:#5294e2; }
  </style>
  <linearGradient id="60spsycho" x1="0%" x2="0%" y1="0%" y2="100%">
    <stop offset="0%" style="stop-color:#df5940; stop-opacity:1"/>
    <stop offset="100%" style="stop-color:#d8d15f; stop-opacity:1"/>
    <stop offset="0%" style="stop-color:#e9882a; stop-opacity:1"/>
    <stop offset="100%" style="stop-color:#279362; stop-opacity:1"/>
  </linearGradient>
 </defs>
  <path fill="url(#60spsycho)" class="ColorScheme-Text" fill-rule="evenodd" d="m8 3v5h-5v6h5v5h6v-5h5v-6h-5v-5h-6zm3 2c0.554 0 1 0.446 1 1v3.2695a2 2 0 0 1 0.729 0.7305h3.271c0.554 0 1 0.446 1 1s-0.446 1-1 1h-3.27a2 2 0 0 1 -1.73 1 2 2 0 0 1 -2 -2 2 2 0 0 1 1 -1.7285v-3.2715c0-0.554 0.446-1 1-1z"/>
</svg>
