<svg xmlns="http://www.w3.org/2000/svg" width="16" height="16" version="1.1">
 <defs>
  <style id="current-color-scheme" type="text/css">
    .ColorScheme-Text { color: #d3dae3; } .ColorScheme-Highlight { color:#5294e2; }
  </style>
  <linearGradient id="cyberneon" x1="0%" x2="0%" y1="0%" y2="100%">
    <stop offset="0%" style="stop-color:#0abdc6; stop-opacity:1"/>
    <stop offset="100%" style="stop-color:#ea00d9; stop-opacity:1"/>
  </linearGradient>
 </defs>
  <path fill="url(#cyberneon)" class="ColorScheme-Text" d="m 10,10 v 1.414062 L 11.585938,13 10,14.585938 V 16 h 1.414062 L 13,14.414062 14.585938,16 H 16 V 14.585938 L 14.414062,13 16,11.414062 V 10 H 14.585938 L 13,11.585938 11.414062,10 Z"/>
  <path fill="url(#cyberneon)" class="ColorScheme-Text" opacity="0.3" d="M 2,1 C 1,1 1,2 1,2 v 12 c 0,1 1,1 1,1 H 9 V 13 H 3 V 6 h 10 v 3 h 2 V 2 C 15,1 14,1 14,1 Z"/>
</svg>
