<svg xmlns="http://www.w3.org/2000/svg" width="16" height="16" version="1.1">
 <defs>
  <style id="current-color-scheme" type="text/css">
    .ColorScheme-Text { color: #d3dae3; } .ColorScheme-Highlight { color:#5294e2; }
  </style>
  <linearGradient id="cyberneon" x1="0%" x2="0%" y1="0%" y2="100%">
    <stop offset="0%" style="stop-color:#0abdc6; stop-opacity:1"/>
    <stop offset="100%" style="stop-color:#ea00d9; stop-opacity:1"/>
  </linearGradient>
 </defs>
 <rect fill="url(#cyberneon)" class="ColorScheme-Text" opacity="0.3" width="14" height="14" x="1" y="1" rx="2" ry="2"/>
  <path fill="url(#cyberneon)" class="ColorScheme-Text" d="M 4 2 A 2 2 0 0 0 2 4 A 2 2 0 0 0 4 6 A 2 2 0 0 0 5.0136719 5.7207031 L 10.279297 10.986328 A 2 2 0 0 0 10 12 A 2 2 0 0 0 12 14 A 2 2 0 0 0 14 12 A 2 2 0 0 0 12 10 A 2 2 0 0 0 10.986328 10.279297 L 5.7207031 5.0136719 A 2 2 0 0 0 6 4 A 2 2 0 0 0 4 2 z"/>
</svg>
