<svg xmlns="http://www.w3.org/2000/svg" width="16" height="16" version="1.1">
 <defs>
  <style id="current-color-scheme" type="text/css">
    .ColorScheme-Text { color: #d3dae3; } .ColorScheme-Highlight { color:#5294e2; }
  </style>
  <linearGradient id="cyberneon" x1="0%" x2="0%" y1="0%" y2="100%">
    <stop offset="0%" style="stop-color:#0abdc6; stop-opacity:1"/>
    <stop offset="100%" style="stop-color:#ea00d9; stop-opacity:1"/>
  </linearGradient>
 </defs>
  <path fill="url(#cyberneon)" class="ColorScheme-Text" d="m1 1v4h2v-2h2v2h2v-2h2v2h2v-2h2v2h2v-4h-14zm0 5v1h1.2812l-0.2812 0.2812-1 1v1.4376l1-1 1.7188-1.7188h2.5624l-0.2812 0.2812-1 1-1.7188 1.7188h-2.2812v5h14v-4h-2v2h-2v-2h-2v2h-2v-2h1v-1.7188l-0.7188 0.7188h-2.5624l0.2812-0.2812 1-1 1.7188-1.7188h0.2812v-1h-7zm9 1l2 4 2-4h-4zm-7 4h2v2h-2v-2z"/>
</svg>
