<svg xmlns="http://www.w3.org/2000/svg" width="16" height="16" version="1.1">
 <defs>
  <style id="current-color-scheme" type="text/css">
    .ColorScheme-Text { color: #d3dae3; } .ColorScheme-Highlight { color:#5294e2; }
  </style>
  <linearGradient id="cyberneon" x1="0%" x2="0%" y1="0%" y2="100%">
    <stop offset="0%" style="stop-color:#0abdc6; stop-opacity:1"/>
    <stop offset="100%" style="stop-color:#ea00d9; stop-opacity:1"/>
  </linearGradient>
 </defs>
  <path fill="url(#cyberneon)" class="ColorScheme-Text" d="M 1,1 V 15 H 15 V 1 Z m 3,2 h 8 V 7 H 4 Z M 2,3 H 3 V 4 H 2 Z m 11,0 h 1 V 4 H 13 Z M 2,6 H 3 V 7 H 2 Z m 11,0 h 1 V 7 H 13 Z M 2,9 h 1 v 1 H 2 Z m 2,0 h 8 v 4 H 4 Z m 9,0 h 1 v 1 H 13 Z M 2,12 h 1 v 1 H 2 Z m 11,0 h 1 v 1 h -1 z"/>
</svg>
