<svg xmlns="http://www.w3.org/2000/svg" width="16" height="16" version="1.1">
 <defs>
  <style id="current-color-scheme" type="text/css">
    .ColorScheme-Text { color: #d3dae3; } .ColorScheme-Highlight { color:#5294e2; }
  </style>
  <linearGradient id="cyberneon" x1="0%" x2="0%" y1="0%" y2="100%">
    <stop offset="0%" style="stop-color:#0abdc6; stop-opacity:1"/>
    <stop offset="100%" style="stop-color:#ea00d9; stop-opacity:1"/>
  </linearGradient>
 </defs>
  <path fill="url(#cyberneon)" class="ColorScheme-Text" d="M 4.5 3 L 4.5 5 L 10.5 5 C 10.92816 5 11.09383 5.26733 10.96875 5.71875 L 10.625 7 L 5.375 7 C 3.5365 7 2.2499 8.3524 1.875 9.75 C 1.68757 10.44881 1.71281 11.22885 2.125 11.90625 C 2.53719 12.58367 3.37305 13 4.28125 13 L 10.28125 13 C 10.9998 12.99999 11.25 12.28125 11.25 12.28125 L 12.90625 6.28125 C 13.34093 4.71245 12.18015 3 10.5 3 L 4.5 3 z M 5.375 9 L 10.0625 9 L 9.5 11 L 4.28125 11 C 3.88338 11 3.85666 10.9163 3.8125 10.84375 C 3.7683 10.77115 3.7317 10.55119 3.8125 10.25 C 3.97407 9.64763 4.53028 9 5.375 9 z"/>
</svg>
