<svg xmlns="http://www.w3.org/2000/svg" width="16" height="16" version="1.1">
 <defs>
  <style id="current-color-scheme" type="text/css">
    .ColorScheme-Text { color: #d3dae3; } .ColorScheme-Highlight { color:#5294e2; }
  </style>
  <linearGradient id="cyberneon" x1="0%" x2="0%" y1="0%" y2="100%">
    <stop offset="0%" style="stop-color:#0abdc6; stop-opacity:1"/>
    <stop offset="100%" style="stop-color:#ea00d9; stop-opacity:1"/>
  </linearGradient>
 </defs>
  <path fill="url(#cyberneon)" class="ColorScheme-Text" d="M 13.720703 0 L 11.994141 2.9902344 L 11.994141 5 L 8.9941406 5 L 7.9941406 6 L 7.9941406 1 L 6.9941406 1 L 6.9941406 6.9941406 L 6.9882812 7 L 6.9941406 7 L 5.9921875 8 L -0.005859375 8 L -0.005859375 9 L 4.9902344 9 L 3.9941406 9.9980469 L 2.9941406 10.996094 L 2.9941406 15 L -0.005859375 15 L -0.005859375 16 L 3.9941406 16 L 3.9941406 11.410156 L 4.4042969 11 L 4.40625 11 L 6.40625 9 L 6.9941406 9 L 6.9941406 16 L 7.9941406 16 L 7.9941406 9 L 14.994141 9 L 14.994141 8 L 7.9941406 8 L 7.9941406 7.4121094 L 9.40625 6 L 12.994141 6 L 12.994141 3.2578125 L 14.296875 1 L 15.994141 1 L 15.994141 0 L 13.720703 0 z"/>
</svg>
