<svg xmlns="http://www.w3.org/2000/svg" width="16" height="16" version="1.1">
 <defs>
  <style id="current-color-scheme" type="text/css">
    .ColorScheme-Text { color: #d3dae3; } .ColorScheme-Highlight { color:#5294e2; }
  </style>
  <linearGradient id="cyberneon" x1="0%" x2="0%" y1="0%" y2="100%">
    <stop offset="0%" style="stop-color:#0abdc6; stop-opacity:1"/>
    <stop offset="100%" style="stop-color:#ea00d9; stop-opacity:1"/>
  </linearGradient>
 </defs>
  <path fill="url(#cyberneon)" class="ColorScheme-Text" d="M 5 2.0039062 L 4 3.0039062 L 3 3.0039062 C 1 3.0039062 1 5.0039062 1 5.0039062 L 1 12.003906 C 1 14.003906 3 14.003906 3 14.003906 L 13 14.003906 C 15 14.003906 15 12.003906 15 12.003906 L 15 5.0039062 C 15 3.0039062 13 3.0039062 13 3.0039062 L 12 3.0039062 L 11 2.0039062 L 5 2.0039062 z M 8 5.0039062 C 9.6568 5.0039062 11 6.3471062 11 8.0039062 C 11 9.6607063 9.6568 11.003906 8 11.003906 C 6.3432 11.003906 5 9.6607063 5 8.0039062 C 5 6.3471062 6.3432 5.0039062 8 5.0039062 z"/>
</svg>
