<svg xmlns="http://www.w3.org/2000/svg" width="16" height="16" version="1.1">
 <defs>
  <style id="current-color-scheme" type="text/css">
    .ColorScheme-Text { color: #d3dae3; } .ColorScheme-Highlight { color:#5294e2; }
  </style>
  <linearGradient id="oomox" x1="0%" x2="0%" y1="0%" y2="100%">
    <stop offset="0%" style="stop-color:#a4d8d4; stop-opacity:1"/>
    <stop offset="100%" style="stop-color:#318c85; stop-opacity:1"/>
  </linearGradient>
 </defs>
  <path fill="url(#oomox)" class="ColorScheme-Text" d="M 10,11 V 9 H 11 C 12,9 12,10 12,10 V 14 H 14 V 10 C 14,7 11,7 11,7 H 10 V 5 L 5.5,8 Z"/>
  <path fill="url(#oomox)" class="ColorScheme-Text" d="M 3,15 C 3,15 2,15 2,14 V 2 C 2,1 3,1 3,1 H 13 C 13,1 14,1 14,2 V 6 H 12 V 3 H 4 V 13 H 12 V 13 H 14 V 14 C 14,15 13,15 13,15 Z"/>
</svg>
