<svg xmlns="http://www.w3.org/2000/svg" width="16" height="16" version="1.1">
 <defs>
  <style id="current-color-scheme" type="text/css">
    .ColorScheme-Text { color: #d3dae3; } .ColorScheme-Highlight { color:#5294e2; }
  </style>
  <linearGradient id="cyberneon" x1="0%" x2="0%" y1="0%" y2="100%">
    <stop offset="0%" style="stop-color:#0abdc6; stop-opacity:1"/>
    <stop offset="100%" style="stop-color:#ea00d9; stop-opacity:1"/>
  </linearGradient>
 </defs>
  <path fill="url(#cyberneon)" class="ColorScheme-Text" d="M 10.285156 2 L 10.285156 3 L 0 3 L 0 5 L 10.285156 5 L 10.285156 6 L 12.572266 6 L 12.572266 5 L 12.572266 3 L 12.572266 2 L 10.285156 2 z M 13.714844 3 L 13.714844 5 L 16 5 L 16 3 L 13.714844 3 z M 3.4277344 6 L 3.4277344 7 L 0 7 L 0 9 L 3.4277344 9 L 3.4277344 10 L 5.7148438 10 L 5.7148438 9 L 5.7148438 7 L 5.7148438 6 L 3.4277344 6 z M 6.8574219 7 L 6.8574219 9 L 16 9 L 16 7 L 6.8574219 7 z M 8 10 L 8 11 L 0 11 L 0 13 L 8 13 L 8 14 L 10.285156 14 L 10.285156 13 L 10.285156 11 L 10.285156 10 L 8 10 z M 11.427734 11 L 11.427734 13 L 16 13 L 16 11 L 11.427734 11 z"/>
</svg>
