<svg xmlns="http://www.w3.org/2000/svg" width="16" height="16" version="1.1">
 <defs>
  <style id="current-color-scheme" type="text/css">
    .ColorScheme-Text { color: #d3dae3; } .ColorScheme-Highlight { color:#5294e2; }
  </style>
  <linearGradient id="cyberneon" x1="0%" x2="0%" y1="0%" y2="100%">
    <stop offset="0%" style="stop-color:#0abdc6; stop-opacity:1"/>
    <stop offset="100%" style="stop-color:#ea00d9; stop-opacity:1"/>
  </linearGradient>
 </defs>
  <path fill="url(#cyberneon)" class="ColorScheme-Text" d="M 8,0 C 3.58172,0 0,3.58172 0,8 c 0,4.41828 3.58172,8 8,8 4.41828,0 8,-3.58172 8,-8 C 16,3.58172 12.41828,0 8,0 Z m 0,1.23077 c 3.73855,0 6.76923,3.03068 6.76923,6.76923 0,3.73855 -3.03068,6.76923 -6.76923,6.76923 C 4.26145,14.76923 1.23077,11.73855 1.23077,8 1.23077,4.26145 4.26145,1.23077 8,1.23077 Z M 7.38462,3.69231 V 7.38462 H 4.61538 V 8.61538 H 7.38462 8.61538 V 7.38462 3.69231 Z"/>
</svg>
