<svg xmlns="http://www.w3.org/2000/svg" width="16" height="16" version="1.1">
 <defs>
  <style id="current-color-scheme" type="text/css">
    .ColorScheme-Text { color: #d3dae3; } .ColorScheme-Highlight { color:#5294e2; }
  </style>
  <linearGradient id="oomox" x1="0%" x2="0%" y1="0%" y2="100%">
    <stop offset="0%" style="stop-color:#a4d8d4; stop-opacity:1"/>
    <stop offset="100%" style="stop-color:#318c85; stop-opacity:1"/>
  </linearGradient>
 </defs>
  <path fill="url(#oomox)" class="ColorScheme-Text" d="M 2.857 0 C 1.274 0 0 1.274 0 2.857 C 0 4.44 1.274 5.714 2.857 5.714 L 6.246 5.714 L 0.839 11.119 C -0.28 12.239 -0.28 14.041 0.839 15.161 C 1.959 16.28 3.761 16.28 4.881 15.161 L 10.286 9.754 L 10.286 13.143 C 10.286 14.726 11.56 16 13.143 16 C 14.726 16 16 14.726 16 13.143 L 16 2.857 C 16 1.274 14.726 0 13.143 0 L 2.857 0 Z"/>
</svg>
