<svg xmlns="http://www.w3.org/2000/svg" width="16" height="16" version="1.1">
 <defs>
  <style id="current-color-scheme" type="text/css">
    .ColorScheme-Text { color: #d3dae3; } .ColorScheme-Highlight { color:#5294e2; }
  </style>
  <linearGradient id="oomox" x1="0%" x2="0%" y1="0%" y2="100%">
    <stop offset="0%" style="stop-color:#a4d8d4; stop-opacity:1"/>
    <stop offset="100%" style="stop-color:#318c85; stop-opacity:1"/>
  </linearGradient>
 </defs>
  <path fill="url(#oomox)" class="ColorScheme-Text" fill-rule="evenodd" d="M 0 3.304 L 0 5.391 L 2.087 5.391 L 2.087 3.304 L 0 3.304 L 0 3.304 Z M 13.913 3.304 L 13.913 5.391 L 16 5.391 L 16 3.304 L 13.913 3.304 L 13.913 3.304 Z M 5.217 6.783 L 5.217 7.826 L 10.435 7.826 L 10.435 6.783 L 5.217 6.783 L 5.217 6.783 Z M 10.435 7.826 L 10.435 8.87 L 11.826 8.87 L 11.826 9.913 L 3.861 9.913 L 3.861 8.87 L 5.217 8.87 L 5.217 7.826 L 3.861 7.826 L 2.783 7.826 L 2.783 9.913 L 1.739 9.913 L 1.739 12.348 L 2.783 12.348 L 2.783 10.957 L 11.826 10.957 L 11.826 12.696 L 12.939 12.696 L 12.939 7.826 L 11.826 7.826 L 10.435 7.826 L 10.435 7.826 Z"/>
</svg>
