<svg xmlns="http://www.w3.org/2000/svg" width="16" height="16" version="1.1">
 <defs>
  <style id="current-color-scheme" type="text/css">
    .ColorScheme-Text { color: #d3dae3; } .ColorScheme-Highlight { color:#5294e2; }
  </style>
  <linearGradient id="arrongin" x1="0%" x2="0%" y1="0%" y2="100%">
    <stop offset="0%" style="stop-color:#dd9b44; stop-opacity:1"/>
    <stop offset="100%" style="stop-color:#ad6c16; stop-opacity:1"/>
  </linearGradient>
 </defs>
  <path fill="url(#arrongin)" class="ColorScheme-Text" d="m 7.9999998,-9.9999999e-8 a 8,8 0 0 0 -7.99999995,8 A 8,8 0 0 0 7.9999999,16 8,8 0 0 0 16,7.9999999 a 8,8 0 0 0 -8.0000002,-8 z M 5.9999999,2.9999999 H 12 V 11 a 2,2 0 0 1 -2.0000001,2 2,2 0 0 1 -2,-2 2,2 0 0 1 2,-2.0000001 A 2,2 0 0 1 11,9.2695309 V 5 H 6.9999999 v 6 a 2,2 0 0 1 -2,2 2,2 0 0 1 -2,-2 2,2 0 0 1 2,-2.0000001 2,2 0 0 1 1,0.269531 V 5 Z"/>
</svg>
