<svg xmlns="http://www.w3.org/2000/svg" width="16" height="16" version="1.1">
 <defs>
  <style id="current-color-scheme" type="text/css">
    .ColorScheme-Text { color: #d3dae3; } .ColorScheme-Highlight { color:#5294e2; }
  </style>
  <linearGradient id="90ssummer" x1="0%" x2="0%" y1="0%" y2="100%">
    <stop offset="0%" style="stop-color:#f618c7; stop-opacity:1"/>
    <stop offset="100%" style="stop-color:#94ffab; stop-opacity:1"/>
    <stop offset="0%" style="stop-color:#fbfd54; stop-opacity:1"/>
    <stop offset="100%" style="stop-color:#0f83ae; stop-opacity:1"/>
  </linearGradient>
 </defs>
  <path fill="url(#90ssummer)" class="ColorScheme-Text" d="m 4.322266,1.5996095 c -2.379148,0 -4.322266,1.787248 -4.322266,4 0,1.151638 0.521137,2.202729 1.357422,2.933594 l 6.535156,5.8671875 6.75,-5.8671875 C 15.479364,7.8036195 16,6.7515845 16,5.5996095 16,3.3868575 14.056884,1.6015625 11.677734,1.6015625 10.11137,1.6015625 8.753583,2.3700285 8,3.5332035 7.246416,2.3700285 5.888631,1.6015625 4.322266,1.6015625 Z m 0.52539,0.916015 c 1.342265,0 2.506576,0.659492 3.152344,1.65625 0.645768,-0.996758 1.810079,-1.65625 3.152344,-1.65625 2.038764,0 3.703125,1.531561 3.703125,3.427735 0,0.987161 -0.445043,1.888469 -1.16211,2.513672 L 7.908203,13.484374 2.306641,8.4570315 c -0.716638,-0.6263 -1.16211,-1.526799 -1.16211,-2.513672 0,-1.896173 1.664363,-3.427735 3.703125,-3.427735 z"/>
</svg>
