<svg xmlns="http://www.w3.org/2000/svg" width="16" height="16" version="1.1">
 <defs>
  <style id="current-color-scheme" type="text/css">
    .ColorScheme-Text { color: #d3dae3; } .ColorScheme-Highlight { color:#5294e2; }
  </style>
  <linearGradient id="90ssummer" x1="0%" x2="0%" y1="0%" y2="100%">
    <stop offset="0%" style="stop-color:#f618c7; stop-opacity:1"/>
    <stop offset="100%" style="stop-color:#94ffab; stop-opacity:1"/>
    <stop offset="0%" style="stop-color:#fbfd54; stop-opacity:1"/>
    <stop offset="100%" style="stop-color:#0f83ae; stop-opacity:1"/>
  </linearGradient>
 </defs>
  <path fill="url(#90ssummer)" class="ColorScheme-Text" d="M 5.775 5.066 C 3.99 5.066 2.393 5.567 1.365 6.227 C 0.337 6.886 0 7.569 0 8 C 0 8.431 0.337 9.114 1.365 9.773 C 2.393 10.433 3.99 10.934 5.775 10.934 C 8.143 10.934 10.224 9.89 11.07 8.98 C 11.695 8.308 12.701 8.161 13.492 8.625 L 14.712 9.34 C 14.712 9.34 14.712 9.34 14.713 9.341 L 16 10.096 C 15.801 9.458 15.647 8.776 15.647 8 C 15.647 7.224 15.801 6.541 16 5.903 L 14.713 6.658 L 13.493 7.374 C 12.702 7.839 11.695 7.692 11.07 7.02 C 10.224 6.11 8.143 5.066 5.775 5.066 Z"/>
</svg>
