<svg xmlns="http://www.w3.org/2000/svg" width="16" height="16" version="1.1">
 <defs>
  <style id="current-color-scheme" type="text/css">
    .ColorScheme-Text { color: #d3dae3; } .ColorScheme-Highlight { color:#5294e2; }
  </style>
  <linearGradient id="90ssummer" x1="0%" x2="0%" y1="0%" y2="100%">
    <stop offset="0%" style="stop-color:#f618c7; stop-opacity:1"/>
    <stop offset="100%" style="stop-color:#94ffab; stop-opacity:1"/>
    <stop offset="0%" style="stop-color:#fbfd54; stop-opacity:1"/>
    <stop offset="100%" style="stop-color:#0f83ae; stop-opacity:1"/>
  </linearGradient>
 </defs>
  <path fill="url(#90ssummer)" class="ColorScheme-Text" d="M 4.635 10.846 L 4.635 11.851 L 0 11.851 L 4.253 7.163 L 16 7.163 L 12.357 11.851 L 10.997 11.851 L 10.997 10.846 L 11.864 10.846 L 13.947 8.167 L 4.698 8.167 L 2.267 10.846 L 4.635 10.846 Z"/>
  <path fill="url(#90ssummer)" class="ColorScheme-Text" d="M 4.635 4.149 L 4.635 10.512 L 5.639 10.512 L 5.639 6.516 L 7.415 10.512 L 8.217 10.512 L 9.992 6.516 L 9.992 10.512 L 10.997 10.512 L 10.997 4.149 L 9.945 4.149 L 7.816 8.939 L 5.687 4.149 L 4.635 4.149 Z"/>
</svg>
