<svg xmlns="http://www.w3.org/2000/svg" width="16" height="16" version="1.1">
 <defs>
  <style id="current-color-scheme" type="text/css">
    .ColorScheme-Text { color: #d3dae3; } .ColorScheme-Highlight { color:#5294e2; }
  </style>
  <linearGradient id="90ssummer" x1="0%" x2="0%" y1="0%" y2="100%">
    <stop offset="0%" style="stop-color:#f618c7; stop-opacity:1"/>
    <stop offset="100%" style="stop-color:#94ffab; stop-opacity:1"/>
    <stop offset="0%" style="stop-color:#fbfd54; stop-opacity:1"/>
    <stop offset="100%" style="stop-color:#0f83ae; stop-opacity:1"/>
  </linearGradient>
 </defs>
  <path fill="url(#90ssummer)" class="ColorScheme-Text" d="M 8 2.545 C 4.364 2.545 1.258 4.807 0 8 C 1.258 11.193 4.364 13.455 8 13.455 C 11.636 13.455 14.742 11.193 16 8 C 14.742 4.807 11.636 2.545 8 2.545 Z M 8 11.636 C 5.993 11.636 4.364 10.007 4.364 8 C 4.364 5.993 5.993 4.364 8 4.364 C 10.007 4.364 11.636 5.993 11.636 8 C 11.636 10.007 10.007 11.636 8 11.636 Z M 8 5.818 C 6.793 5.818 5.818 6.793 5.818 8 C 5.818 9.207 6.793 10.182 8 10.182 C 9.207 10.182 10.182 9.207 10.182 8 C 10.182 6.793 9.207 5.818 8 5.818 Z"/>
</svg>
