<svg xmlns="http://www.w3.org/2000/svg" width="24" height="24" version="1.1">
 <defs>
  <style id="current-color-scheme" type="text/css">
    .ColorScheme-Text { color: #d3dae3; } .ColorScheme-Highlight { color:#5294e2; }
  </style>
  <linearGradient id="oomox" x1="0%" x2="0%" y1="0%" y2="100%">
    <stop offset="0%" style="stop-color:#a4d8d4; stop-opacity:1"/>
    <stop offset="100%" style="stop-color:#318c85; stop-opacity:1"/>
  </linearGradient>
 </defs>
  <path fill="currentColor" fill-rule="evenodd" opacity=".3" class="ColorScheme-Text" d="m9 4v5h-5v6h5v5h6v-5h5v-6h-5v-5h-6zm3 2c0.554 0 1 0.446 1 1v3.2695a2 2 0 0 1 0.729 0.73h3.271c0.554 0 1 0.446 1 1s-0.446 1-1 1h-3.2695a2 2 0 0 1 -1.73 1 2 2 0 0 1 -2 -2 2 2 0 0 1 1 -1.729v-3.271c0-0.554 0.446-1 1-1z"/>
</svg>
