<svg xmlns="http://www.w3.org/2000/svg" width="24" height="24" version="1.1">
 <defs>
  <style id="current-color-scheme" type="text/css">
    .ColorScheme-Text { color: #d3dae3; } .ColorScheme-Highlight { color:#5294e2; }
  </style>
  <linearGradient id="60spsycho" x1="0%" x2="0%" y1="0%" y2="100%">
    <stop offset="0%" style="stop-color:#df5940; stop-opacity:1"/>
    <stop offset="100%" style="stop-color:#d8d15f; stop-opacity:1"/>
    <stop offset="0%" style="stop-color:#e9882a; stop-opacity:1"/>
    <stop offset="100%" style="stop-color:#279362; stop-opacity:1"/>
  </linearGradient>
 </defs>
 <g transform="translate(-385 127)">
  <path fill="url(#60spsycho)" class="ColorScheme-Text" d="m390.86-123a1.8185 1.6243 0 0 0 -1.8613 1.6229v6.3763 6.3763a1.8185 1.6243 0 0 0 2.7285 1.4061l6.1816-3.1891 6.1816-3.1872a1.8185 1.6243 0 0 0 0 -2.8122l-6.1816-3.1872-6.1816-3.1891a1.8185 1.6243 0 0 0 -0.86719 -0.21678zm1.1387 2.9997 4.5 2.4997 4.5 2.4998-4.5 2.4997-4.5 2.4997v-4.9995-4.9995z"/>
 </g>
</svg>
