<svg xmlns="http://www.w3.org/2000/svg" width="24" height="24" version="1.1">
 <defs>
  <style id="current-color-scheme" type="text/css">
    .ColorScheme-Text { color: #d3dae3; } .ColorScheme-Highlight { color:#5294e2; }
  </style>
  <linearGradient id="60spsycho" x1="0%" x2="0%" y1="0%" y2="100%">
    <stop offset="0%" style="stop-color:#df5940; stop-opacity:1"/>
    <stop offset="100%" style="stop-color:#d8d15f; stop-opacity:1"/>
    <stop offset="0%" style="stop-color:#e9882a; stop-opacity:1"/>
    <stop offset="100%" style="stop-color:#279362; stop-opacity:1"/>
  </linearGradient>
 </defs>
  <path fill="url(#60spsycho)" class="ColorScheme-Text" opacity="0.3" d="m8 4a4 4 0 0 0 -4 4 4 4 0 0 0 1.1152 2.77 7 7 0 0 0 -0.1152 1.23 7 7 0 0 0 7 7 7 7 0 0 0 1.238 -0.113 4 4 0 0 0 2.762 1.113 4 4 0 0 0 4 -4 4 4 0 0 0 -1.115 -2.77 7 7 0 0 0 0.115 -1.23 7 7 0 0 0 -7 -7 7 7 0 0 0 -1.238 0.1133 4 4 0 0 0 -2.762 -1.1133zm1.707 4.3828 2.293 2.2932 2.293-2.2932 1.414 1.4141-2.293 2.2931 2.293 2.293-1.414 1.414-2.293-2.293-2.293 2.293-1.414-1.414 2.293-2.293-2.293-2.2931 1.414-1.4141z"/>
</svg>
