<svg xmlns="http://www.w3.org/2000/svg" width="24" height="24" version="1.1">
 <defs>
  <style id="current-color-scheme" type="text/css">
    .ColorScheme-Text { color: #d3dae3; } .ColorScheme-Highlight { color:#5294e2; }
  </style>
  <linearGradient id="60spsycho" x1="0%" x2="0%" y1="0%" y2="100%">
    <stop offset="0%" style="stop-color:#df5940; stop-opacity:1"/>
    <stop offset="100%" style="stop-color:#d8d15f; stop-opacity:1"/>
    <stop offset="0%" style="stop-color:#e9882a; stop-opacity:1"/>
    <stop offset="100%" style="stop-color:#279362; stop-opacity:1"/>
  </linearGradient>
 </defs>
  <path fill="url(#60spsycho)" class="ColorScheme-Text" d="m 12,6.0000001 a 1,1 0 0 0 -1,1 1,1 0 0 0 1,1 A 4,4 0 0 1 16,12 l -2,0 3,4 3,-4 -2,0 A 6,6 0 0 0 12,6.0000001 Z m -5.0000002,2 L 3.9999999,12 5.9999998,12 A 6,6 0 0 0 12,18 1,1 0 0 0 13,17 1,1 0 0 0 12,16 4,4 0 0 1 8.0000004,12 L 10,12 Z"/>
</svg>
