<svg xmlns="http://www.w3.org/2000/svg" width="24" height="24" version="1.1">
 <defs>
  <style id="current-color-scheme" type="text/css">
    .ColorScheme-Text { color: #d3dae3; } .ColorScheme-Highlight { color:#5294e2; }
  </style>
  <linearGradient id="90ssummer" x1="0%" x2="0%" y1="0%" y2="100%">
    <stop offset="0%" style="stop-color:#f618c7; stop-opacity:1"/>
    <stop offset="100%" style="stop-color:#94ffab; stop-opacity:1"/>
    <stop offset="0%" style="stop-color:#fbfd54; stop-opacity:1"/>
    <stop offset="100%" style="stop-color:#0f83ae; stop-opacity:1"/>
  </linearGradient>
 </defs>
  <path fill="url(#90ssummer)" class="ColorScheme-Text" d="m 8,4 0,4 -4,0 0,2 4,0 0,4 -4,0 0,2 4,0 0,4 2,0 0,-4 4,0 0,4 2,0 0,-4 4,0 0,-2 -4,0 0,-4 4,0 0,-2 -4,0 0,-4 -2,0 0,4 -4,0 0,-4 z m 2,6 4,0 0,4 -4,0 z"/>
</svg>
