<svg xmlns="http://www.w3.org/2000/svg" width="24" height="24" version="1.1">
 <defs>
  <style id="current-color-scheme" type="text/css">
    .ColorScheme-Text { color: #d3dae3; } .ColorScheme-Highlight { color:#5294e2; }
  </style>
  <linearGradient id="90ssummer" x1="0%" x2="0%" y1="0%" y2="100%">
    <stop offset="0%" style="stop-color:#f618c7; stop-opacity:1"/>
    <stop offset="100%" style="stop-color:#94ffab; stop-opacity:1"/>
    <stop offset="0%" style="stop-color:#fbfd54; stop-opacity:1"/>
    <stop offset="100%" style="stop-color:#0f83ae; stop-opacity:1"/>
  </linearGradient>
 </defs>
 <g transform="matrix(1,0,0,1,1,1)">
  <path fill="url(#90ssummer)" class="ColorScheme-Text" opacity="0.3" d="M 4,4 C 2.892,4 2,4.892 2,6 V 14 C 2,15.108 2.892,16 4,16 H 2 V 17 C 2,17.554 2.892,18 4,18 H 18 C 19.108,18 20,17.554 20,17 V 16 H 18 C 19.108,16 20,15.108 20,14 V 6 C 20,4.892 19.108,4 18,4 Z M 10,5 H 12 V 5.5 H 10 Z M 5,6 H 17 V 14 H 5 Z M 9,16 H 13 V 16.5 H 9 Z"/>
 </g>
</svg>
