<svg xmlns="http://www.w3.org/2000/svg" width="24" height="24" version="1.1">
 <defs>
  <style id="current-color-scheme" type="text/css">
    .ColorScheme-Text { color: #d3dae3; } .ColorScheme-Highlight { color:#5294e2; }
  </style>
  <linearGradient id="90ssummer" x1="0%" x2="0%" y1="0%" y2="100%">
    <stop offset="0%" style="stop-color:#f618c7; stop-opacity:1"/>
    <stop offset="100%" style="stop-color:#94ffab; stop-opacity:1"/>
    <stop offset="0%" style="stop-color:#fbfd54; stop-opacity:1"/>
    <stop offset="100%" style="stop-color:#0f83ae; stop-opacity:1"/>
  </linearGradient>
 </defs>
  <path fill="url(#90ssummer)" class="ColorScheme-Text" fill-rule="evenodd" d="m7.5 20c-0.831 0-1.5-0.669-1.5-1.5v-13c0-0.831 0.669-1.5 1.5-1.5h8c0.831 0 1.5 0.669 1.5 1.5v13c0 0.831-0.669 1.5-1.5 1.5h-8zm4-2c1.933 0 3.5-1.567 3.5-3.5s-1.567-3.5-3.5-3.5c-1.9334 0-3.5005 1.567-3.5 3.5-0.0005 1.933 1.5666 3.5 3.5 3.5zm0-2c-0.828 0-1.5-0.672-1.5-1.5s0.672-1.5 1.5-1.5 1.5 0.672 1.5 1.5-0.672 1.5-1.5 1.5zm-2.5-8c0.5524 0 1-0.4478 1-1s-0.4476-1-1-1-1.0002 0.4478-1 1c-0.0002 0.5522 0.4476 1 1 1zm5 0c0.55243 0 1.0002-0.44778 1-1 0.000202-0.55222-0.44757-1-1-1s-1.0002 0.44778-1 1c-0.000202 0.55222 0.44757 1 1 1z"/>
</svg>
