<svg xmlns="http://www.w3.org/2000/svg" width="16" height="16" version="1.1">
 <defs>
  <style id="current-color-scheme" type="text/css">
    .ColorScheme-Text { color: #d3dae3; } .ColorScheme-Highlight { color:#5294e2; }
  </style>
  <linearGradient id="sage" x1="0%" x2="0%" y1="0%" y2="100%">
    <stop offset="0%" style="stop-color:#919D87; stop-opacity:1"/>
    <stop offset="100%" style="stop-color:#49594C; stop-opacity:1"/>
  </linearGradient>
 </defs>
  <path fill="url(#sage)" class="ColorScheme-Text" d="M 11.017,1.38 C 10.098,0.961 9.076,0.727 8,0.727 7.697,0.727 7.399,0.746 7.106,0.781 6.024,2.278 5.463,4.709 5.508,6.198 c 0,0 -0.071,2.213 1.445,2.998 0,0 1.364,0.597 2.292,-1.335 0,0 0.639,-1.091 0.379,-3.556 0,0 0.249,0.044 0.277,0.083 0.028,0.039 0.549,1.898 0.183,3.463 0,0 -0.337,1.84 -1.994,2.26 C 6.433,10.532 5.142,9.514 4.266,8.556 3.616,7.844 2.651,5.938 2.172,3.649 1.265,4.862 0.727,6.368 0.727,8 c 0,1.133 0.259,2.204 0.721,3.16 1.59,0.473 5.707,1.419 8.321,-0.497 1.721,-1.261 1.499,-3.282 1.499,-3.282 -0.029,-1.536 -0.964,-3.063 -0.964,-3.063 3.638,3.291 1.488,6.948 1.488,6.948 -0.999,2.039 -3.048,3.345 -4.845,3.931 0.344,0.05 0.695,0.076 1.053,0.076 4.017,0 7.273,-3.256 7.273,-7.273 0,-1.724 -0.6,-3.308 -1.603,-4.555 -0.357,0.025 -0.772,0.039 -1.203,0.025 0,0 -1.936,0.091 -3.021,0.632 0,0 -0.809,0.361 -1.618,0.973 0,0 -0.172,0.086 -0.164,0.401 0.007,0.315 -0.165,1.153 -0.738,1.644 0,0 -0.409,0.21 -0.204,0.512 0,0 0.276,0.401 0.665,-0.021 0,0 1.004,-1.032 1.065,-2.696 0,0 0.318,-0.272 0.819,-0.351 0,0 0.093,2.496 -1.146,3.749 0,0 -1.179,1.284 -1.557,-0.621 0,0 -0.461,-1.815 1.915,-3.971 0,0 1.591,-1.588 2.534,-2.341 z M 8,16 C 3.582,16 0,12.418 0,8 0,3.582 3.582,0 8,0 c 4.418,0 8,3.582 8,8 0,4.418 -3.582,8 -8,8 z"/>
</svg>
