<svg xmlns="http://www.w3.org/2000/svg" width="22" height="22" version="1.1">
 <defs>
  <style id="current-color-scheme" type="text/css">
    .ColorScheme-Text { color: #d3dae3; } .ColorScheme-Highlight { color:#5294e2; }
  </style>
  <linearGradient id="telinkrin" x1="0%" x2="0%" y1="0%" y2="100%">
    <stop offset="0%" style="stop-color:#b2ced6; stop-opacity:1"/>
    <stop offset="100%" style="stop-color:#6da5b7; stop-opacity:1"/>
  </linearGradient>
 </defs>
  <path fill="url(#telinkrin)" class="ColorScheme-Text" d="M 8,11 A 2,2 0 0 1 6,13 2,2 0 0 1 4,11 2,2 0 0 1 6,9 2,2 0 0 1 8,11 Z"/>
  <path fill="url(#telinkrin)" class="ColorScheme-Text" d="m 13,11 a 2,2 0 0 1 -2,2 2,2 0 0 1 -2,-2 2,2 0 0 1 2,-2 2,2 0 0 1 2,2 z"/>
  <path fill="url(#telinkrin)" class="ColorScheme-Text" d="m 18,11 a 2,2 0 0 1 -2,2 2,2 0 0 1 -2,-2 2,2 0 0 1 2,-2 2,2 0 0 1 2,2 z"/>
  <path fill="url(#telinkrin)" class="ColorScheme-Text" opacity="0.3" d="M 11,4 C 7.9494,4 5.0806,5.0732 3,7 L 3.7265625,8 H 18.273438 L 19,7 C 16.919,5.0731 14.051,4 11,4 Z M 8.0917969,14 11,18 13.908203,14 Z"/>
</svg>
