<svg xmlns="http://www.w3.org/2000/svg" width="24" height="24" version="1.1">
 <defs>
  <style id="current-color-scheme" type="text/css">
    .ColorScheme-Text { color: #d3dae3; } .ColorScheme-Highlight { color:#5294e2; }
  </style>
  <linearGradient id="arrongin" x1="0%" x2="0%" y1="0%" y2="100%">
    <stop offset="0%" style="stop-color:#dd9b44; stop-opacity:1"/>
    <stop offset="100%" style="stop-color:#ad6c16; stop-opacity:1"/>
  </linearGradient>
 </defs>
  <path fill="url(#arrongin)" class="ColorScheme-Text" opacity="0.3" d="m 12,4 c -4.418278,0 -8,3.581722 -8,8 0,4.418278 3.581722,8 8,8 4.418278,0 8,-3.581722 8,-8 l -2,0 a 6,6 0 0 1 -6,6 6,6 0 0 1 -6,-6 6,6 0 0 1 6,-6 l 0,-2 z m 0,3 a 5,5 0 0 0 -5,5 5,5 0 0 0 5,5 5,5 0 0 0 5,-5 l -2,0 a 3,3 0 0 1 -3,3 3,3 0 0 1 -3,-3 3,3 0 0 1 3,-3 l 0,-2 z"/>
  <path fill="url(#arrongin)" class="ColorScheme-Text" d="m 12,4 0,2 a 6,6 0 0 1 6,6 l 2,0 C 20,7.581722 16.418278,4 12,4 Z m 0,3 0,2 a 3,3 0 0 1 3,3 l 2,0 A 5,5 0 0 0 12,7 Z"/>
</svg>
