<svg xmlns="http://www.w3.org/2000/svg" width="24" height="24" version="1.1">
 <defs>
  <style id="current-color-scheme" type="text/css">
    .ColorScheme-Text { color: #d3dae3; } .ColorScheme-Highlight { color:#5294e2; }
  </style>
  <linearGradient id="arrongin" x1="0%" x2="0%" y1="0%" y2="100%">
    <stop offset="0%" style="stop-color:#dd9b44; stop-opacity:1"/>
    <stop offset="100%" style="stop-color:#ad6c16; stop-opacity:1"/>
  </linearGradient>
 </defs>
 <g transform="translate(1,1)">
 <rect fill="url(#arrongin)" class="ColorScheme-Text" width="3" height="3" x="4" y="4" rx=".5" ry=".5"/>
 <rect fill="url(#arrongin)" class="ColorScheme-Text" width="3" height="3" x="4" y="9" rx=".5" ry=".5"/>
 <rect fill="url(#arrongin)" class="ColorScheme-Text" width="3" height="3" x="4" y="14" rx=".5" ry=".5"/>
 <rect fill="url(#arrongin)" class="ColorScheme-Text" width="3" height="3" x="9" y="4" rx=".5" ry=".5"/>
 <rect fill="url(#arrongin)" class="ColorScheme-Text" width="3" height="3" x="9" y="9" rx=".5" ry=".5"/>
 <rect fill="url(#arrongin)" class="ColorScheme-Text" width="3" height="3" x="9" y="14" rx=".5" ry=".5"/>
 <rect fill="url(#arrongin)" class="ColorScheme-Text" width="3" height="3" x="14" y="4" rx=".5" ry=".5"/>
 <rect fill="url(#arrongin)" class="ColorScheme-Text" width="3" height="3" x="14" y="9" rx=".5" ry=".5"/>
 <rect fill="url(#arrongin)" class="ColorScheme-Text" width="3" height="3" x="14" y="14" rx=".5" ry=".5"/>
 </g>
</svg>
