<svg xmlns="http://www.w3.org/2000/svg" width="24" height="24" version="1.1">
 <defs>
  <style id="current-color-scheme" type="text/css">
    .ColorScheme-Text { color: #d3dae3; } .ColorScheme-Highlight { color:#5294e2; }
  </style>
  <linearGradient id="arrongin" x1="0%" x2="0%" y1="0%" y2="100%">
    <stop offset="0%" style="stop-color:#dd9b44; stop-opacity:1"/>
    <stop offset="100%" style="stop-color:#ad6c16; stop-opacity:1"/>
  </linearGradient>
 </defs>
 <g transform="translate(-33 -811.27)">
  <path fill="currentColor" opacity=".72" class="ColorScheme-Text" d="m38 817.27c-1 0-1 1-1 1v8.9375 2.7188c0.21549 0.23277 0.54729 0.35699 0.875 0.3125 0.0445 0.006 0.0788 0.0312 0.125 0.0312h14c0.554 0 1-0.446 1-1v-11c0-0.554-0.446-1-1-1h-2.9062-1.0625zm0 1h10.406 1.0625 2.5312v7 1.0938 1.9062h-4.5625-9.4375v-0.15625zm8 1c-0.55228 0-1 0.44772-1 1s0.44772 1 1 1 1-0.44772 1-1-0.44772-1-1-1zm-4 3c-1.5 0-3 2-3 4.5312v0.46875h12s-1-4-2.5-4-1.5 2-2.5 2-2.5-3-4-3z"/>
 </g>
</svg>
