<svg xmlns="http://www.w3.org/2000/svg" width="22" height="22" version="1.1">
 <defs>
  <style id="current-color-scheme" type="text/css">
    .ColorScheme-Text { color: #d3dae3; } .ColorScheme-Highlight { color:#5294e2; }
  </style>
  <linearGradient id="aurora" x1="0%" x2="0%" y1="0%" y2="100%">
    <stop offset="0%" style="stop-color:#09D4DF; stop-opacity:1"/>
    <stop offset="100%" style="stop-color:#ad6c16; stop-opacity:1"/>
  </linearGradient>
 </defs>
 <g transform="translate(-81 -551.36)">
  <path fill="url(#aurora)" class="ColorScheme-Text" opacity="0.3" d="m86 556.36s-1 0-1 1v2h2v-1h10v1h2v-2c0-1-1-1-1-1h-12zm-1 9v1c0 1 1 1 1 1h2l1 1h6l1-1h2s1 0.12994 1-1v-1h-4l-1 1h-4l-1-1h-4z"/>
  <path fill="url(#aurora)" class="ColorScheme-Text" d="m87 560.36c-1.108 0-2 0.892-2 2s0.892 2 2 2 2-0.892 2-2-0.892-2-2-2zm5 0c-1.108 0-2 0.892-2 2s0.892 2 2 2 2-0.892 2-2-0.892-2-2-2zm5 0c-1.108 0-2 0.892-2 2s0.892 2 2 2 2-0.892 2-2-0.892-2-2-2z"/>
 </g>
</svg>
