<svg xmlns="http://www.w3.org/2000/svg" width="16" height="16" version="1.1">
 <defs>
  <style id="current-color-scheme" type="text/css">
    .ColorScheme-Text { color: #d3dae3; } .ColorScheme-Highlight { color:#5294e2; }
  </style>
  <linearGradient id="rainblue" x1="0%" x2="0%" y1="0%" y2="100%">
    <stop offset="0%" style="stop-color:#00F260; stop-opacity:1"/>
    <stop offset="100%" style="stop-color:#0575E6; stop-opacity:1"/>
  </linearGradient>
 </defs>
  <path fill="url(#rainblue)" class="ColorScheme-Text" d="M 4,2 C 2.89,2 2,2.89 2,4 V 12 C 2,13.11 2.89,14 4,14 H 12 C 13.11,14 14,13.11 14,12 V 4 C 14,2.89 13.11,2 12,2 Z M 4,3 H 12 C 12.55,3 13,3.45 13,4 V 12 C 13,12.55 12.55,13 12,13 H 4 C 3.45,13 3,12.55 3,12 V 4 C 3,3.45 3.45,3 4,3 Z"/>
  <path fill="url(#rainblue)" class="ColorScheme-Text" d="M 6,7 H 10 C 11.108,7 12,7.446 12,8 12,8.554 11.108,9 10,9 H 6 C 4.892,9 4,8.554 4,8 4,7.446 4.892,7 6,7 Z"/>
</svg>
