<svg xmlns="http://www.w3.org/2000/svg" width="16" height="16" version="1.1">
 <defs>
  <style id="current-color-scheme" type="text/css">
    .ColorScheme-Text { color: #d3dae3; } .ColorScheme-Highlight { color:#5294e2; }
  </style>
  <linearGradient id="aurora" x1="0%" x2="0%" y1="0%" y2="100%">
    <stop offset="0%" style="stop-color:#09D4DF; stop-opacity:1"/>
    <stop offset="100%" style="stop-color:#ad6c16; stop-opacity:1"/>
  </linearGradient>
 </defs>
  <path fill="url(#aurora)" class="ColorScheme-Text" d="M 2 2 C 2 2 1 2 1 3 L 1 12 C 1 13 2 13 2 13 L 4 13 L 5 14 L 11 14 L 12 13 L 14 13 C 14 13 15 13.13 15 12 L 15 3 C 15 2 14 2 14 2 L 2 2 z M 8 4 C 9.1 4 10 4.895 10 6 C 10 7.105 9.1 8 8 8 L 8 9 L 7 9 L 7 7 L 8 7 C 8.55 7 9 6.552 9 6 C 9 5.448 8.55 5 8 5 C 7.45 5 7 5.448 7 6 L 6 6 C 6 4.895 6.9 4 8 4 z M 7 10 L 8 10 L 8 11 L 7 11 L 7 10 z"/>
</svg>
