<svg xmlns="http://www.w3.org/2000/svg" width="16" height="16" version="1.1">
 <defs>
  <style id="current-color-scheme" type="text/css">
    .ColorScheme-Text { color: #d3dae3; } .ColorScheme-Highlight { color:#5294e2; }
  </style>
  <linearGradient id="aurora" x1="0%" x2="0%" y1="0%" y2="100%">
    <stop offset="0%" style="stop-color:#09D4DF; stop-opacity:1"/>
    <stop offset="100%" style="stop-color:#ad6c16; stop-opacity:1"/>
  </linearGradient>
 </defs>
  <path fill="url(#aurora)" class="ColorScheme-Text" d="M 11,11 V 12 C 11,12.27 11.1,12.53 11.28,12.72 L 12.06,13.5 11.28,14.28 C 11.1,14.46 11,14.72 11,15 V 16 H 12 C 12.28,16 12.54,15.9 12.72,15.72 L 13.5,14.93 14.28,15.72 C 14.46,15.9 14.72,16 15,16 H 16 V 15 C 16,14.72 15.9,14.46 15.72,14.28 L 14.94,13.5 15.72,12.72 C 15.9,12.53 16,12.27 16,12 V 11 H 15 C 14.72,11 14.46,11.1 14.28,11.28 L 13.5,12.06 12.72,11.28 C 12.54,11.1 12.28,11 12,11 Z"/>
  <path fill="url(#aurora)" class="ColorScheme-Text" opacity="0.3" d="M 1,1 C 0,1 0,2 0,2 V 13 C 0,13 0,14 1,14 H 10 V 12 H 9 V 10 H 16 V 2 C 16,1 15,1 15,1 Z M 2,3 H 14 V 9 H 2 Z M 2,10 H 7 V 12 H 2 Z"/>
</svg>
