<svg xmlns="http://www.w3.org/2000/svg" width="16" height="16" version="1.1">
 <defs>
  <style id="current-color-scheme" type="text/css">
    .ColorScheme-Text { color: #d3dae3; } .ColorScheme-Highlight { color:#5294e2; }
  </style>
  <linearGradient id="arrongin" x1="0%" x2="0%" y1="0%" y2="100%">
    <stop offset="0%" style="stop-color:#dd9b44; stop-opacity:1"/>
    <stop offset="100%" style="stop-color:#ad6c16; stop-opacity:1"/>
  </linearGradient>
 </defs>
  <path fill="url(#arrongin)" class="ColorScheme-Text" opacity="0.3" d="M 8.5,0 C 5.45,0 3,2.68 3,6 V 10 C 3,13.32 5.45,16 8.5,16 11.55,16 14,13.32 14,10 V 6 C 14,2.68 11.55,0 8.5,0 Z M 8,1.29 12.24,5.53 9.3,8 12.24,10.47 8,14.71 V 9.09 L 5.57,11.13 4.93,10.37 7.75,8 4.93,5.63 5.57,4.87 8,6.91 Z M 9,3.71 V 6.95 L 10.76,5.47 Z M 9,9.05 V 12.29 L 10.76,10.53 Z"/>
</svg>
