<svg xmlns="http://www.w3.org/2000/svg" width="16" height="16" version="1.1">
 <defs>
  <style id="current-color-scheme" type="text/css">
    .ColorScheme-Text { color: #d3dae3; } .ColorScheme-Highlight { color:#5294e2; }
  </style>
  <linearGradient id="fitdance" x1="0%" x2="0%" y1="0%" y2="100%">
    <stop offset="0%" style="stop-color:#1AD6AB; stop-opacity:1"/>
    <stop offset="100%" style="stop-color:#329DB6; stop-opacity:1"/>
  </linearGradient>
 </defs>
  <path fill="url(#fitdance)" class="ColorScheme-Text" d="M 10.101902,3.264915 12.245609,3.6945855 12.707795,5.1450137 13.649586,4.0267092 16,4.543475 13.895776,6.9972419 15.083757,10.649441 12.554507,10.391639 12.103934,8.4093482 10.95892,10.038612 8.989403,9.401074 10.965888,6.4816373 M 4.1306431,5.2379154 6.5855712,5.5839744 7.3148498,7.1737552 8.231093,5.7999709 10.70344,6.1286107 8.4377994,9.50675 7.8827116,12.735085 5.5880389,12.354188 5.98171,9.457976 M 2.4386703,11.178981 0,5.2866888 1.9637103,4.3263172 2.0124837,4.261286 3.5952969,8.2665117 4.746117,7.6196835 5.5996516,9.457976"/>
</svg>
