<svg xmlns="http://www.w3.org/2000/svg" width="16" height="16" version="1.1">
 <defs>
  <style id="current-color-scheme" type="text/css">
    .ColorScheme-Text { color: #d3dae3; } .ColorScheme-Highlight { color:#5294e2; }
  </style>
  <linearGradient id="grey" x1="0%" x2="0%" y1="0%" y2="100%">
    <stop offset="0%" style="stop-color:#8C8C8C; stop-opacity:1"/>
    <stop offset="100%" style="stop-color:#4B4B4B; stop-opacity:1"/>
  </linearGradient>
 </defs>
  <path fill="url(#grey)" class="ColorScheme-Text" d="M 13,13.5 A 1.5,1.5 0 0 1 11.5,15 1.5,1.5 0 0 1 10,13.5 1.5,1.5 0 0 1 11.5,12 1.5,1.5 0 0 1 13,13.5 Z M 13,6 6,11 V 8 H 2 V 4 H 6 V 1 Z M 9,13.5 A 1.5,1.5 0 0 1 7.5,15 1.5,1.5 0 0 1 6,13.5 1.5,1.5 0 0 1 7.5,12 1.5,1.5 0 0 1 9,13.5 Z m -4,0 A 1.5,1.5 0 0 1 3.5,15 1.5,1.5 0 0 1 2,13.5 1.5,1.5 0 0 1 3.5,12 1.5,1.5 0 0 1 5,13.5 Z"/>
</svg>
