<svg xmlns="http://www.w3.org/2000/svg" width="16" height="16" version="1.1">
 <defs>
  <style id="current-color-scheme" type="text/css">
    .ColorScheme-Text { color: #d3dae3; } .ColorScheme-Highlight { color:#5294e2; }
  </style>
  <linearGradient id="grey" x1="0%" x2="0%" y1="0%" y2="100%">
    <stop offset="0%" style="stop-color:#8C8C8C; stop-opacity:1"/>
    <stop offset="100%" style="stop-color:#4B4B4B; stop-opacity:1"/>
  </linearGradient>
 </defs>
  <path fill="url(#grey)" class="ColorScheme-Text" opacity="0.3" d="M 1,2 V 13 C 1,13 1,14 2,14 H 14 C 14,14 15,14 15,13 V 4 C 15,3 14,3 14,3 H 9 L 7,1 H 2 C 2,1 1,1 1,2 Z"/>
  <path fill="url(#grey)" class="ColorScheme-Text" d="M 2,1 C 2,1 1.9084,1.0089 1.7891,1.0332 L 15,8.6602 V 6.6602 L 5.1953,1 Z M 1,2.5781 V 4.5781 L 15,12.66 V 10.66 Z M 12.125,3 15,4.6602 V 4 C 15,3 14,3 14,3 Z M 1,6.5781 V 8.5781 L 10.393,14 H 13.855 Z M 1,10.578 V 12.578 L 3.4648,14 H 6.9277 Z"/>
</svg>
