<svg xmlns="http://www.w3.org/2000/svg" width="24" height="24" version="1.1">
 <defs>
  <style id="current-color-scheme" type="text/css">
    .ColorScheme-Text { color: #d3dae3; } .ColorScheme-Highlight { color:#5294e2; }
  </style>
  <linearGradient id="60spsycho" x1="0%" x2="0%" y1="0%" y2="100%">
    <stop offset="0%" style="stop-color:#df5940; stop-opacity:1"/>
    <stop offset="100%" style="stop-color:#d8d15f; stop-opacity:1"/>
    <stop offset="0%" style="stop-color:#e9882a; stop-opacity:1"/>
    <stop offset="100%" style="stop-color:#279362; stop-opacity:1"/>
  </linearGradient>
 </defs>
  <path fill="url(#60spsycho)" class="ColorScheme-Text" d="m2.9688 2s-1.9688 0-1.9688 2v6c0 1.108 0.892 2 2 2h5l2 3.004 2-3.004h1s2 0 2-2v-6c0-2-2-2-2-2h-10.031zm3.6171 2.1719l1.4141 1.414 1.4141-1.414 1.4139 1.414-1.4139 1.4141 1.4139 1.4141-1.4139 1.414-1.4141-1.414-1.4141 1.414-1.414-1.414 1.414-1.4141-1.414-1.4141 1.414-1.414z" transform="translate(4 4)"/>
</svg>
