<svg xmlns="http://www.w3.org/2000/svg" width="24" height="24" version="1.1">
 <defs>
  <style id="current-color-scheme" type="text/css">
    .ColorScheme-Text { color: #d3dae3; } .ColorScheme-Highlight { color:#5294e2; }
  </style>
  <linearGradient id="60spsycho" x1="0%" x2="0%" y1="0%" y2="100%">
    <stop offset="0%" style="stop-color:#df5940; stop-opacity:1"/>
    <stop offset="100%" style="stop-color:#d8d15f; stop-opacity:1"/>
    <stop offset="0%" style="stop-color:#e9882a; stop-opacity:1"/>
    <stop offset="100%" style="stop-color:#279362; stop-opacity:1"/>
  </linearGradient>
 </defs>
  <path fill="url(#60spsycho)" class="ColorScheme-Text" d="M 3 10 A 1.0001 1.0001 0 0 0 2 11 L 2 13 A 1.0001 1.0001 0 0 0 3 14 L 13 14 A 1.0001 1.0001 0 0 0 14 13 L 14 11 A 1.0001 1.0001 0 0 0 13 10 L 12 10 A 1.0001 1.0001 0 0 0 11 11 L 5 11 A 1.0001 1.0001 0 0 0 4 10 L 3 10 z" transform="translate(4 4)"/>
</svg>
