<svg xmlns="http://www.w3.org/2000/svg" width="24" height="24" version="1.1">
 <defs>
  <style id="current-color-scheme" type="text/css">
    .ColorScheme-Text { color: #d3dae3; } .ColorScheme-Highlight { color:#5294e2; }
  </style>
  <linearGradient id="60spsycho" x1="0%" x2="0%" y1="0%" y2="100%">
    <stop offset="0%" style="stop-color:#df5940; stop-opacity:1"/>
    <stop offset="100%" style="stop-color:#d8d15f; stop-opacity:1"/>
    <stop offset="0%" style="stop-color:#e9882a; stop-opacity:1"/>
    <stop offset="100%" style="stop-color:#279362; stop-opacity:1"/>
  </linearGradient>
 </defs>
  <path fill="url(#60spsycho)" class="ColorScheme-Text" d="M 12,4 A 2,2 0 0 0 10,6 H 6 C 5.446,6 5,6.446 5,7 v 11 c 0,0.554 0.446,1 1,1 h 9 V 16 H 8 v -1 h 7 V 13 H 8 v -1 h 7 V 10 H 8 V 9 h 8 v 1 h 3 V 7 C 19,6.446 18.554,6 18,6 H 14 A 2,2 0 0 0 12,4 Z m 0,1 a 1,1 0 0 1 1,1 1,1 0 0 1 -1,1 1,1 0 0 1 -1,-1 1,1 0 0 1 1,-1 z"/>
  <path fill="currentColor" class="ColorScheme-Highlight" d="m 16,11 v 4 l 0.25,2 h 1.5 L 18,15 v -4 z m 0,7 v 2 h 2 v -2 z"/>
</svg>
