<svg xmlns="http://www.w3.org/2000/svg" width="24" height="24" version="1.1">
 <defs>
  <style id="current-color-scheme" type="text/css">
    .ColorScheme-Text { color: #d3dae3; } .ColorScheme-Highlight { color:#5294e2; }
  </style>
  <linearGradient id="60spsycho" x1="0%" x2="0%" y1="0%" y2="100%">
    <stop offset="0%" style="stop-color:#df5940; stop-opacity:1"/>
    <stop offset="100%" style="stop-color:#d8d15f; stop-opacity:1"/>
    <stop offset="0%" style="stop-color:#e9882a; stop-opacity:1"/>
    <stop offset="100%" style="stop-color:#279362; stop-opacity:1"/>
  </linearGradient>
 </defs>
  <path fill="url(#60spsycho)" class="ColorScheme-Text" d="m 15,5 -3,4 h 2 v 3 h 2 V 9 h 2 z M 6.5,6 A 1.5,1.5 0 0 0 5,7.5 1.5,1.5 0 0 0 6.5,9 1.5,1.5 0 0 0 8,7.5 1.5,1.5 0 0 0 6.5,6 Z m 0,4 A 1.5,1.5 0 0 0 5,11.5 1.5,1.5 0 0 0 6.5,13 1.5,1.5 0 0 0 8,11.5 1.5,1.5 0 0 0 6.5,10 Z m 4.5,1 v 3 H 9 l 3,4 3,-4 H 13 V 11 Z M 6.5,14 A 1.5,1.5 0 0 0 5,15.5 1.5,1.5 0 0 0 6.5,17 1.5,1.5 0 0 0 8,15.5 1.5,1.5 0 0 0 6.5,14 Z"/>
</svg>
