<svg xmlns="http://www.w3.org/2000/svg" width="16" height="16" version="1.1">
 <defs>
  <style id="current-color-scheme" type="text/css">
    .ColorScheme-Text { color: #d3dae3; } .ColorScheme-Highlight { color:#5294e2; }
  </style>
  <linearGradient id="sunrise" x1="0%" x2="0%" y1="0%" y2="100%">
    <stop offset="0%" style="stop-color:#FF8501; stop-opacity:1"/>
    <stop offset="100%" style="stop-color:#FFCB01; stop-opacity:1"/>
  </linearGradient>
 </defs>
  <path fill="url(#sunrise)" class="ColorScheme-Text" fill-rule="evenodd" d="M 6.887 4.875 L 1.031 4.875 L 1.031 4.875 L 1.031 14.531 L 15.031 14.531 L 15.031 4.875 L 8.765 4.875 L 11.88 1.89 L 12.24 1.55 L 11.55 0.82 L 11.19 1.17 L 7.82 4.39 L 5.54 2.09 L 5.19 1.73 L 4.48 2.43 L 4.83 2.79 L 6.887 4.875 Z M 2.03 5.87 L 2.03 13.53 L 14.03 13.53 L 14.03 5.87 L 2.03 5.87 L 2.03 5.87 Z"/>
 <rect fill="url(#sunrise)" class="ColorScheme-Text" width="4.625" height="3.594" x="17.63" y="-.28" transform="matrix(1,0,0,1,0,0)"/>
</svg>
