<svg xmlns="http://www.w3.org/2000/svg" width="16" height="16" version="1.1">
 <defs>
  <style id="current-color-scheme" type="text/css">
    .ColorScheme-Text { color: #d3dae3; } .ColorScheme-Highlight { color:#5294e2; }
  </style>
  <linearGradient id="sunrise" x1="0%" x2="0%" y1="0%" y2="100%">
    <stop offset="0%" style="stop-color:#FF8501; stop-opacity:1"/>
    <stop offset="100%" style="stop-color:#FFCB01; stop-opacity:1"/>
  </linearGradient>
 </defs>
  <path fill="url(#sunrise)" class="ColorScheme-Text" d="M 8.24 1.667 L 9.617 1.667 L 12.553 15.016 C 12.632 15.375 12.995 15.667 13.363 15.667 L 15.333 15.667 C 15.51 15.667 15.68 15.597 15.803 15.47 C 15.93 15.347 16 15.177 16 15 C 16 14.823 15.93 14.653 15.803 14.53 C 15.68 14.403 15.51 14.333 15.333 14.333 L 13.767 14.333 L 10.833 0.984 C 10.754 0.625 10.391 0.333 10.023 0.333 L 8.24 0.333 L 7.76 0.333 L 7.76 0.333 L 5.977 0.333 C 5.609 0.333 5.246 0.625 5.167 0.984 L 2.233 14.333 L 0.667 14.333 C 0.49 14.333 0.32 14.403 0.197 14.53 C 0.07 14.653 0 14.823 0 15 C 0 15.177 0.07 15.347 0.197 15.47 C 0.32 15.597 0.49 15.667 0.667 15.667 L 2.637 15.667 C 3.005 15.667 3.368 15.375 3.447 15.016 L 6.383 1.667 L 7.76 1.667 L 7.76 1.667 L 8.24 1.667 Z"/>
</svg>
