<svg xmlns="http://www.w3.org/2000/svg" width="16" height="16" version="1.1">
 <defs>
  <style id="current-color-scheme" type="text/css">
    .ColorScheme-Text { color: #d3dae3; } .ColorScheme-Highlight { color:#5294e2; }
  </style>
  <linearGradient id="sunrise" x1="0%" x2="0%" y1="0%" y2="100%">
    <stop offset="0%" style="stop-color:#FF8501; stop-opacity:1"/>
    <stop offset="100%" style="stop-color:#FFCB01; stop-opacity:1"/>
  </linearGradient>
 </defs>
  <path fill="url(#sunrise)" class="ColorScheme-Text" d="M 10.303224 8.000771 L 13.022345 3.165394 L 14.314956 8.000771 L 13.022345 12.834463 L 10.303224 8.000771 Z M 8.978022 9.193146 L 11.697309 13.620147 L 6.962219 12.370462 L 3.540374 9.193061 L 8.978022 9.193146 Z M 11.69672 2.379963 L 8.978022 7.593143 L 3.540037 7.593143 L 6.961462 3.629985 L 11.69672 2.379963 Z M 15.578771 6.315799 L 13.919846 0 L 7.728777 1.70316 L 6.81258 3.362532 L 4.952396 3.349058 L 0.421092 8.000854 L 4.952648 12.651894 L 4.95287 12.651894 L 6.811707 12.637721 L 7.729505 14.297094 L 13.919984 16 L 15.578908 9.684202 L 14.736815 8.00083"/>
</svg>
