<svg xmlns="http://www.w3.org/2000/svg" width="22" height="22" version="1.1">
 <defs>
  <style id="current-color-scheme" type="text/css">
    .ColorScheme-Text { color: #d3dae3; } .ColorScheme-Highlight { color:#5294e2; }
  </style>
  <linearGradient id="90ssummer" x1="0%" x2="0%" y1="0%" y2="100%">
    <stop offset="0%" style="stop-color:#f618c7; stop-opacity:1"/>
    <stop offset="100%" style="stop-color:#94ffab; stop-opacity:1"/>
    <stop offset="0%" style="stop-color:#fbfd54; stop-opacity:1"/>
    <stop offset="100%" style="stop-color:#0f83ae; stop-opacity:1"/>
  </linearGradient>
 </defs>
  <path fill="url(#90ssummer)" class="ColorScheme-Text" opacity="0.3" d="m11 4c-3.3137 0-6 2.6863-6 6 0 2.087 1.0708 3.9251 2.6875 5h-0.6875c-2 0-2 2-2 2v1h12v-1s0-2-2-2h-0.6875c1.617-1.075 2.688-2.913 2.688-5 0-3.3137-2.686-6-6-6zm0 4.0039a2 2 0 0 1 2 2 2 2 0 0 1 -2 2 2 2 0 0 1 -2 -2 2 2 0 0 1 2 -2z"/>
</svg>
