<svg xmlns="http://www.w3.org/2000/svg" width="22" height="22" version="1.1">
 <defs>
  <style id="current-color-scheme" type="text/css">
    .ColorScheme-Text { color: #d3dae3; } .ColorScheme-Highlight { color:#5294e2; }
  </style>
  <linearGradient id="90ssummer" x1="0%" x2="0%" y1="0%" y2="100%">
    <stop offset="0%" style="stop-color:#f618c7; stop-opacity:1"/>
    <stop offset="100%" style="stop-color:#94ffab; stop-opacity:1"/>
    <stop offset="0%" style="stop-color:#fbfd54; stop-opacity:1"/>
    <stop offset="100%" style="stop-color:#0f83ae; stop-opacity:1"/>
  </linearGradient>
 </defs>
 <g transform="translate(-153 -623.36)">
  <path fill="url(#90ssummer)" class="ColorScheme-Text" opacity="0.3" d="m171 627.37-4 4h4v-4zm-10 10-4 4h14v-4h-10z"/>
  <path fill="url(#90ssummer)" class="ColorScheme-Text" d="m159 632.37c-1.108 0-2 0.892-2 2s0.892 2 2 2 2-0.892 2-2-0.892-2-2-2zm5 0c-1.108 0-2 0.892-2 2s0.892 2 2 2 2-0.892 2-2-0.892-2-2-2zm5 0c-1.108 0-2 0.892-2 2s0.892 2 2 2 2-0.892 2-2-0.892-2-2-2z"/>
 </g>
</svg>
