<svg xmlns="http://www.w3.org/2000/svg" width="22" height="22" version="1.1">
 <defs>
  <style id="current-color-scheme" type="text/css">
    .ColorScheme-Text { color: #d3dae3; } .ColorScheme-Highlight { color:#5294e2; }
  </style>
  <linearGradient id="90ssummer" x1="0%" x2="0%" y1="0%" y2="100%">
    <stop offset="0%" style="stop-color:#f618c7; stop-opacity:1"/>
    <stop offset="100%" style="stop-color:#94ffab; stop-opacity:1"/>
    <stop offset="0%" style="stop-color:#fbfd54; stop-opacity:1"/>
    <stop offset="100%" style="stop-color:#0f83ae; stop-opacity:1"/>
  </linearGradient>
 </defs>
  <path fill="url(#90ssummer)" class="ColorScheme-Text" d="m5 9h0.0000031v7c0 2 0.0000031 2.9996 1.5 2.9998 1.5 0 1.5-1 1.5-3-0.0000031 2-0.0000031 3 1.5 2.9998 1.5 0 1.5-1 1.5-3-0.000003 2 0.000002 2.9996 1.5 2.9998 1.5 0 1.5-1 1.5-3-0.000003 2 0.000002 2.9996 1.5 2.9998 1.5 0 1.5-1 1.5-3v-7h-0.002c0.002-3-0.998-6-5.998-6.0002s-6 3.0002-6 6.0002zm3.5-1.0002c0.831 0 1.5 0.669 1.5 1.5s-0.669 1.5-1.5 1.5-1.5-0.669-1.5-1.5 0.669-1.5 1.5-1.5zm6 0c0.831 0 1.5 0.669 1.5 1.5s-0.669 1.5-1.5 1.5-1.5-0.669-1.5-1.5 0.669-1.5 1.5-1.5z"/>
</svg>
