<svg xmlns="http://www.w3.org/2000/svg" width="22" height="22" version="1.1">
 <defs>
  <style id="current-color-scheme" type="text/css">
    .ColorScheme-Text { color: #d3dae3; } .ColorScheme-Highlight { color:#5294e2; }
  </style>
  <linearGradient id="90ssummer" x1="0%" x2="0%" y1="0%" y2="100%">
    <stop offset="0%" style="stop-color:#f618c7; stop-opacity:1"/>
    <stop offset="100%" style="stop-color:#94ffab; stop-opacity:1"/>
    <stop offset="0%" style="stop-color:#fbfd54; stop-opacity:1"/>
    <stop offset="100%" style="stop-color:#0f83ae; stop-opacity:1"/>
  </linearGradient>
 </defs>
  <path fill="url(#90ssummer)" class="ColorScheme-Text" d="m 6,2.9999998 c -0.554,0 -1,0.446 -1,1 L 5,6.0000002 C 5,5.4459998 5.446,4.9999998 6,4.9999998 l 10,0 c 0.554,0 1,0.446 1,1.0000004 l 0,-2.0000004 c 0,-0.554 -0.446,-1 -1,-1 z m 0,3.0000004 c -0.554,0 -1,0.446 -1,1 l 0,1 12,0 0,-1 c 0,-0.554 -0.446,-1 -1,-1 z m -2,3 c -0.554,0 -1,0.446 -1,0.9999998 l 0,8 c 0,0.554 0.446,1 1,1 l 14,0 c 0.554,0 1,-0.446 1,-1 l 0,-8 C 19,9.4460002 18.554,9.0000002 18,9.0000002 Z M 9.25,13 l 3.5,0 c 0.139,0 0.25,0.111 0.25,0.25 l 0,0.5 C 13,13.889 12.888,14 12.75,14 l -3.5,0 C 9.111,14 9,13.889 9,13.75 l 0,-0.5 C 9,13.111 9.112,13 9.25,13 Z"/>
</svg>
