<svg xmlns="http://www.w3.org/2000/svg" width="22" height="22" version="1.1">
 <defs>
  <style id="current-color-scheme" type="text/css">
    .ColorScheme-Text { color: #d3dae3; } .ColorScheme-Highlight { color:#5294e2; }
  </style>
  <linearGradient id="60spsycho" x1="0%" x2="0%" y1="0%" y2="100%">
    <stop offset="0%" style="stop-color:#df5940; stop-opacity:1"/>
    <stop offset="100%" style="stop-color:#d8d15f; stop-opacity:1"/>
    <stop offset="0%" style="stop-color:#e9882a; stop-opacity:1"/>
    <stop offset="100%" style="stop-color:#279362; stop-opacity:1"/>
  </linearGradient>
 </defs>
  <path fill="url(#60spsycho)" class="ColorScheme-Text" d="M 7 1 L 7 2.0898438 A 6 6 0 0 0 2.0859375 7 L 1 7 L 1 9 L 2.0898438 9 A 6 6 0 0 0 7 13.914062 L 7 15 L 9 15 L 9 13.910156 A 6 6 0 0 0 13.914062 9 L 15 9 L 15 7 L 13.910156 7 A 6 6 0 0 0 9 2.0859375 L 9 1 L 7 1 z M 7 4.1308594 L 7 7 L 4.1328125 7 A 4 4 0 0 1 7 4.1308594 z M 9 4.1328125 A 4 4 0 0 1 11.869141 7 L 9 7 L 9 4.1328125 z M 4.1308594 9 L 7 9 L 7 11.867188 A 4 4 0 0 1 4.1308594 9 z M 9 9 L 11.867188 9 A 4 4 0 0 1 9 11.869141 L 9 9 z" transform="translate(3 3)"/>
</svg>
