<svg xmlns="http://www.w3.org/2000/svg" width="22" height="22" version="1.1">
 <defs>
  <style id="current-color-scheme" type="text/css">
    .ColorScheme-Text { color: #d3dae3; } .ColorScheme-Highlight { color:#5294e2; }
  </style>
  <linearGradient id="60spsycho" x1="0%" x2="0%" y1="0%" y2="100%">
    <stop offset="0%" style="stop-color:#df5940; stop-opacity:1"/>
    <stop offset="100%" style="stop-color:#d8d15f; stop-opacity:1"/>
    <stop offset="0%" style="stop-color:#e9882a; stop-opacity:1"/>
    <stop offset="100%" style="stop-color:#279362; stop-opacity:1"/>
  </linearGradient>
 </defs>
  <path fill="url(#60spsycho)" class="ColorScheme-Text" d="m10.094 1l2 2h-5.094v1h5.094l-2 2h1.406l2.312-2.2812 0.188-0.2188-0.188-0.2188-2.312-2.2812h-1.406zm-5.594 2l-2.3125 2.2812-0.1875 0.2188 0.1875 0.2188 2.3125 2.2812h1.4062l-2-2h5.0938v-1h-5.0938l2-2h-1.4062zm-2.5 4.9902v6.0098c0 1 1 1 1 1h10s1 0 1-1v-5.9902h-2v4.9862h-8v-5.0058h-2z" transform="translate(3 3)"/>
</svg>
