<svg xmlns="http://www.w3.org/2000/svg" width="22" height="22" version="1.1">
 <defs>
  <style id="current-color-scheme" type="text/css">
    .ColorScheme-Text { color: #d3dae3; } .ColorScheme-Highlight { color:#5294e2; }
  </style>
  <linearGradient id="60spsycho" x1="0%" x2="0%" y1="0%" y2="100%">
    <stop offset="0%" style="stop-color:#df5940; stop-opacity:1"/>
    <stop offset="100%" style="stop-color:#d8d15f; stop-opacity:1"/>
    <stop offset="0%" style="stop-color:#e9882a; stop-opacity:1"/>
    <stop offset="100%" style="stop-color:#279362; stop-opacity:1"/>
  </linearGradient>
 </defs>
 <g transform="matrix(1,0,0,1,3,3)">
  <path fill="url(#60spsycho)" class="ColorScheme-Text" opacity="0.3" d="M 2 0 C 0.892 0 0 0.892 0 2 L 0 14 C 0 15.108 0.892 16 2 16 L 14 16 C 15.108 16 16 15.108 16 14 L 16 2 C 16 0.892 15.108 0 14 0 L 2 0 z M 11.613281 2 C 11.795329 2 11.975831 2.0715354 12.117188 2.2128906 L 13.787109 3.8828125 C 14.06982 4.165523 14.06982 4.611821 13.787109 4.8945312 L 12.382812 6.2890625 L 9.7109375 3.6171875 L 11.105469 2.2128906 C 11.246824 2.0715352 11.431233 2 11.613281 2 z M 8.75 4.5761719 L 11.423828 7.25 L 4.671875 14 L 2 14 L 2 11.328125 L 8.75 4.5761719 z"/>
 </g>
</svg>
