<svg xmlns="http://www.w3.org/2000/svg" width="22" height="22" version="1.1">
 <defs>
  <style id="current-color-scheme" type="text/css">
    .ColorScheme-Text { color: #d3dae3; } .ColorScheme-Highlight { color:#5294e2; }
  </style>
  <linearGradient id="60spsycho" x1="0%" x2="0%" y1="0%" y2="100%">
    <stop offset="0%" style="stop-color:#df5940; stop-opacity:1"/>
    <stop offset="100%" style="stop-color:#d8d15f; stop-opacity:1"/>
    <stop offset="0%" style="stop-color:#e9882a; stop-opacity:1"/>
    <stop offset="100%" style="stop-color:#279362; stop-opacity:1"/>
  </linearGradient>
 </defs>
  <path fill="url(#60spsycho)" class="ColorScheme-Text" d="M 4 3 L 4 5 L 9 5 C 9.42816 5 10 5.61414 10 6 L 10 7 L 5 7 C 4.08073 7 3.2644 7.38396 2.75 7.96875 C 2.2356 8.55354 1.99361 9.2794 2 10 C 2.006 10.72062 2.26893 11.45275 2.78125 12.03125 C 3.29357 12.60979 4.0917 13 5 13 L 14 13 L 14 6 C 14 4.3657 12.6802 3 11 3 L 4 3 z M 7 9 L 10 9 L 10 11 L 7 11 C 6.60213 11 6.43309 10.89021 6.28125 10.71875 C 6.12941 10.54729 6.00248 10.27938 6 10 C 5.998 9.72062 6.10467 9.44646 6.25 9.28125 C 6.39533 9.11604 6.57764 9 7 9 z" transform="translate(3 3)"/>
</svg>
