<svg xmlns="http://www.w3.org/2000/svg" width="22" height="22" version="1.1">
 <defs>
  <style id="current-color-scheme" type="text/css">
    .ColorScheme-Text { color: #d3dae3; } .ColorScheme-Highlight { color:#5294e2; }
  </style>
  <linearGradient id="60spsycho" x1="0%" x2="0%" y1="0%" y2="100%">
    <stop offset="0%" style="stop-color:#df5940; stop-opacity:1"/>
    <stop offset="100%" style="stop-color:#d8d15f; stop-opacity:1"/>
    <stop offset="0%" style="stop-color:#e9882a; stop-opacity:1"/>
    <stop offset="100%" style="stop-color:#279362; stop-opacity:1"/>
  </linearGradient>
 </defs>
  <path fill="url(#60spsycho)" class="ColorScheme-Text" d="M 1 1.0039062 L 1 6.0039062 L 6 6.0039062 L 6 4.0039062 L 7 4.0039062 L 7 3.0039062 L 6 3.0039062 L 6 1.0039062 L 1 1.0039062 z M 10 1.0039062 L 10 3.0039062 L 9 3.0039062 L 9 4.0039062 L 10 4.0039062 L 10 6.0039062 L 15 6.0039062 L 15 1.0039062 L 10 1.0039062 z M 6 7.0039062 L 8 10.003906 L 10 7.0039062 L 6 7.0039062 z M 1 10.003906 L 1 15.003906 L 6 15.003906 L 6 13.003906 L 10 13.003906 L 10 15.003906 L 15 15.003906 L 15 10.003906 L 10 10.003906 L 10 12.003906 L 6 12.003906 L 6 10.003906 L 1 10.003906 z" transform="translate(3 3)"/>
</svg>
