<svg xmlns="http://www.w3.org/2000/svg" width="22" height="22" version="1.1">
 <defs>
  <style id="current-color-scheme" type="text/css">
    .ColorScheme-Text { color: #d3dae3; } .ColorScheme-Highlight { color:#5294e2; }
  </style>
  <linearGradient id="60spsycho" x1="0%" x2="0%" y1="0%" y2="100%">
    <stop offset="0%" style="stop-color:#df5940; stop-opacity:1"/>
    <stop offset="100%" style="stop-color:#d8d15f; stop-opacity:1"/>
    <stop offset="0%" style="stop-color:#e9882a; stop-opacity:1"/>
    <stop offset="100%" style="stop-color:#279362; stop-opacity:1"/>
  </linearGradient>
 </defs>
  <path fill="url(#60spsycho)" class="ColorScheme-Text" d="M 3 0.00390625 C 2 0.00390625 2 1.0039062 2 1.0039062 L 2 9 C 2.00003 10 3 10 3 10 L 13 10 C 13 10 14 10 14 9 L 14 1.0039062 C 13.99997 0.0039063 13 0.00390625 13 0.00390625 L 3 0.00390625 z M 6 3.5 L 9 6.5 L 10.5 5 L 12 6.5 L 12 8 L 4 8 L 4 5.5 L 6 3.5 z M 5 12 L 8 16 L 11 12 L 5 12 z" transform="translate(3 3)"/>
</svg>
