<svg xmlns="http://www.w3.org/2000/svg" width="22" height="22" version="1.1">
 <defs>
  <style id="current-color-scheme" type="text/css">
    .ColorScheme-Text { color: #d3dae3; } .ColorScheme-Highlight { color:#5294e2; }
  </style>
  <linearGradient id="60spsycho" x1="0%" x2="0%" y1="0%" y2="100%">
    <stop offset="0%" style="stop-color:#df5940; stop-opacity:1"/>
    <stop offset="100%" style="stop-color:#d8d15f; stop-opacity:1"/>
    <stop offset="0%" style="stop-color:#e9882a; stop-opacity:1"/>
    <stop offset="100%" style="stop-color:#279362; stop-opacity:1"/>
  </linearGradient>
 </defs>
  <path fill="url(#60spsycho)" class="ColorScheme-Text" d="M 7 2 L 7 4 L 5.859375 4 C 4.895575 4 5.0039062 4.6660156 5.0039062 4.6660156 L 5.0039062 6 L 4.4335938 6 C 2.8273937 6 3.0058594 7 3.0058594 7 L 3.0058594 9 L 3 9 C 0.75 9 1 11 1 11 L 1 15 L 15 15 L 15 11 C 15 9 13 9 13 9 L 13 7 C 13 6 11.572266 6 11.572266 6 L 11 6 L 11 4.6660156 C 11 3.9993156 10.142578 4 10.142578 4 L 8 4 L 8 2 L 7 2 z" transform="translate(3 3)"/>
</svg>
