<svg xmlns="http://www.w3.org/2000/svg" width="22" height="22" version="1.1">
 <defs>
  <style id="current-color-scheme" type="text/css">
    .ColorScheme-Text { color: #d3dae3; } .ColorScheme-Highlight { color:#5294e2; }
  </style>
  <linearGradient id="telinkrin" x1="0%" x2="0%" y1="0%" y2="100%">
    <stop offset="0%" style="stop-color:#b2ced6; stop-opacity:1"/>
    <stop offset="100%" style="stop-color:#6da5b7; stop-opacity:1"/>
  </linearGradient>
 </defs>
  <path fill="url(#telinkrin)" class="ColorScheme-Text" d="m11 3a8 8 0 0 0 -8 8 8 8 0 0 0 8 8 8 8 0 0 0 8 -8 8 8 0 0 0 -8 -8zm0 2c3.3137 0 6 2.6863 6 6-0.0026 1.7042-0.7298 3.3268-2 4.4629v-6.463h-2v2.5 5.1504c-0.642 0.23-1.318 0.348-2 0.35-3.3137 0-6-2.686-6-6 0-3.3137 2.6863-6 6-6zm2 6.5-2.5-1.75-2.5-1.75v3.5 3.5l2.5-1.75 2.5-1.75z"/>
</svg>
