<svg xmlns="http://www.w3.org/2000/svg" width="16" height="16" version="1.1">
 <defs>
  <style id="current-color-scheme" type="text/css">
    .ColorScheme-Text { color: #d3dae3; } .ColorScheme-Highlight { color:#5294e2; }
  </style>
  <linearGradient id="oomox" x1="0%" x2="0%" y1="0%" y2="100%">
    <stop offset="0%" style="stop-color:#a4d8d4; stop-opacity:1"/>
    <stop offset="100%" style="stop-color:#318c85; stop-opacity:1"/>
  </linearGradient>
 </defs>
  <path fill="url(#oomox)" class="ColorScheme-Text" d="M 8 0 A 8.0000006 8.0000006 0 0 0 0 8 A 8.0000006 8.0000006 0 0 0 8 16 L 8 13.599609 A 5.6000002 5.6000002 0 0 1 2.4003906 8 A 5.6000002 5.6000002 0 0 1 8 2.4003906 A 5.6000002 5.6000002 0 0 1 13.599609 8 L 16 8 A 8.0000006 8.0000006 0 0 0 8 0 z M 8 4 A 4.0000003 4.0000003 0 0 0 4 8 L 6.4003906 8 A 1.6 1.6 0 0 1 8 6.4003906 A 1.6 1.6 0 0 1 9.5996094 8 L 12 8 A 4.0000003 4.0000003 0 0 0 8 4 z"/>
</svg>
