<svg xmlns="http://www.w3.org/2000/svg" width="16" height="16" version="1.1">
 <defs>
  <style id="current-color-scheme" type="text/css">
    .ColorScheme-Text { color: #d3dae3; } .ColorScheme-Highlight { color:#5294e2; }
  </style>
  <linearGradient id="telinkrin" x1="0%" x2="0%" y1="0%" y2="100%">
    <stop offset="0%" style="stop-color:#b2ced6; stop-opacity:1"/>
    <stop offset="100%" style="stop-color:#6da5b7; stop-opacity:1"/>
  </linearGradient>
 </defs>
  <path fill="url(#telinkrin)" class="ColorScheme-Text" fill-rule="evenodd" d="M 0 0 L 3.173554 0 L 3.173554 3.692308 L 0 3.692308 L 0 0 L 0 0 L 0 0 L 0 0 L 0 0 Z M 5.289256 0 L 16 0 L 16 3.692308 L 5.289256 3.692308 L 5.289256 0 L 5.289256 0 L 5.289256 0 L 5.289256 0 L 5.289256 0 Z M 0 6.153846 L 3.173554 6.153846 L 3.173554 9.846154 L 0 9.846154 L 0 6.153846 L 0 6.153846 L 0 6.153846 L 0 6.153846 Z M 5.289256 6.153846 L 16 6.153846 L 16 9.846154 L 5.289256 9.846154 L 5.289256 6.153846 L 5.289256 6.153846 L 5.289256 6.153846 Z M 0 12.307692 L 3.173554 12.307692 L 3.173554 16 L 0 16 L 0 12.307692 L 0 12.307692 Z M 5.289256 12.307692 L 16 12.307692 L 16 16 L 5.289256 16 L 5.289256 12.307692 Z"/>
</svg>
