<svg xmlns="http://www.w3.org/2000/svg" width="22" height="22" version="1.1">
 <defs>
  <style id="current-color-scheme" type="text/css">
    .ColorScheme-Text { color: #d3dae3; } .ColorScheme-Highlight { color:#5294e2; }
  </style>
  <linearGradient id="cyberneon" x1="0%" x2="0%" y1="0%" y2="100%">
    <stop offset="0%" style="stop-color:#0abdc6; stop-opacity:1"/>
    <stop offset="100%" style="stop-color:#ea00d9; stop-opacity:1"/>
  </linearGradient>
 </defs>
  <path fill="url(#cyberneon)" class="ColorScheme-Text" d="M 11 3 A 8 8 0 0 0 3 11 A 8 8 0 0 0 11 19 A 8 8 0 0 0 19 11 A 8 8 0 0 0 11 3 z M 12.984375 4.9355469 A 1.0001 1.0001 0 0 1 14 5.9492188 L 14 9.859375 A 1.0001 1.0001 0 0 1 14 10.185547 L 14 13.982422 A 1.0001 1.0001 0 0 1 14 14 L 14 14.986328 A 1.0001 1.0001 0 1 1 12 15 L 9 15 L 8 14 L 8 10.017578 L 9 9.0175781 L 12 9.0175781 L 12 5.9492188 A 1.0001 1.0001 0 0 1 12.984375 4.9355469 z M 10 11.017578 L 10 13 L 12 13 L 12 11.017578 L 10 11.017578 z"/>
</svg>
