<svg xmlns="http://www.w3.org/2000/svg" width="22" height="22" version="1.1">
 <defs>
  <style id="current-color-scheme" type="text/css">
    .ColorScheme-Text { color: #d3dae3; } .ColorScheme-Highlight { color:#5294e2; }
  </style>
  <linearGradient id="cyberneon" x1="0%" x2="0%" y1="0%" y2="100%">
    <stop offset="0%" style="stop-color:#0abdc6; stop-opacity:1"/>
    <stop offset="100%" style="stop-color:#ea00d9; stop-opacity:1"/>
  </linearGradient>
 </defs>
  <path fill="url(#cyberneon)" class="ColorScheme-Text" d="m11 3a5 5 0 0 0 -5 5 5 5 0 0 0 3 4.576172v5.423828l2 2 2-2v-0.699219l1-0.75-1-0.75v-0.75l1-1-1-1v-0.470703a5 5 0 0 0 3 -4.580078 5 5 0 0 0 -5 -5zm0 1a2.0000002 2.0000002 0 0 1 2 2 2.0000002 2.0000002 0 0 1 -2 2 2.0000002 2.0000002 0 0 1 -2 -2 2.0000002 2.0000002 0 0 1 2 -2zm-1 9h1v4h-1z"/>
</svg>
