<svg xmlns="http://www.w3.org/2000/svg" width="22" height="22" version="1.1">
 <defs>
  <style id="current-color-scheme" type="text/css">
    .ColorScheme-Text { color: #d3dae3; } .ColorScheme-Highlight { color:#5294e2; }
  </style>
  <linearGradient id="cyberneon" x1="0%" x2="0%" y1="0%" y2="100%">
    <stop offset="0%" style="stop-color:#0abdc6; stop-opacity:1"/>
    <stop offset="100%" style="stop-color:#ea00d9; stop-opacity:1"/>
  </linearGradient>
 </defs>
  <path fill="url(#cyberneon)" class="ColorScheme-Text" d="m11 3c-4.432 0-8 3.568-8 8s3.568 8 8 8 8-3.568 8-8-3.568-8-8-8zm0 1a2 2 0 0 1 2 2 2 2 0 0 1 -2 2 2 2 0 0 1 -2 -2 2 2 0 0 1 2 -2zm-5 5a2 2 0 0 1 2 2 2 2 0 0 1 -2 2 2 2 0 0 1 -2 -2 2 2 0 0 1 2 -2zm10 0a2 2 0 0 1 2 2 2 2 0 0 1 -2 2 2 2 0 0 1 -2 -2 2 2 0 0 1 2 -2zm-5.5117 0.63477a0.5 0.5 0 0 1 0.44531 0.25 0.5 0.5 0 0 1 -0.183 0.6812 0.5 0.5 0 0 1 -0.684 -0.181 0.5 0.5 0 0 1 0.184 -0.6838 0.5 0.5 0 0 1 0.238 -0.0664zm1.366 0.3652a0.5 0.5 0 0 1 0.44531 0.25 0.5 0.5 0 0 1 -0.18359 0.68359 0.5 0.5 0 0 1 -0.682 -0.184 0.5 0.5 0 0 1 0.181 -0.684 0.5 0.5 0 0 1 0.239 -0.066zm-1.7305 1a0.5 0.5 0 0 1 0.44336 0.25 0.5 0.5 0 0 1 -0.18164 0.68359 0.5 0.5 0 0 1 -0.6848 -0.184 0.5 0.5 0 0 1 0.1836 -0.684 0.5 0.5 0 0 1 0.2382 -0.066zm1.3652 0.36523a0.5 0.5 0 0 1 0.44531 0.25 0.5 0.5 0 0 1 -0.184 0.684 0.5 0.5 0 0 1 -0.684 -0.184 0.5 0.5 0 0 1 0.184 -0.681 0.5 0.5 0 0 1 0.238 -0.069zm-0.489 2.635a2 2 0 0 1 2 2 2 2 0 0 1 -2 2 2 2 0 0 1 -2 -2 2 2 0 0 1 2 -2z"/>
</svg>
