<svg xmlns="http://www.w3.org/2000/svg" width="16" height="16" version="1.1">
 <defs>
  <style id="current-color-scheme" type="text/css">
    .ColorScheme-Text { color: #d3dae3; } .ColorScheme-Highlight { color:#5294e2; }
  </style>
  <linearGradient id="bark" x1="0%" x2="0%" y1="0%" y2="100%">
    <stop offset="0%" style="stop-color:#9D9D87; stop-opacity:1"/>
    <stop offset="100%" style="stop-color:#52523F; stop-opacity:1"/>
  </linearGradient>
 </defs>
  <path fill="url(#bark)" class="ColorScheme-Text" d="M 1.36 0 C 0.631 0 0 0.619 0 1.357 L 0 6.643 C 0 7.381 0.631 8.009 1.36 8 L 8 8 L 8 15.985 C 9.259 15.992 10.06 15.989 10.4 15.973 L 10.4 6.72 C 10.4 6.101 9.899 5.6 9.28 5.6 L 2.4 5.6 L 2.4 2.4 L 13.6 2.4 L 13.6 3.6 L 13.6 6.483 L 13.6 16 L 16 15.903 L 16 6.483 L 16 3.6 L 16 1.357 C 16 0.619 15.369 0 14.64 0 L 1.36 0 Z"/>
</svg>
