<svg xmlns="http://www.w3.org/2000/svg" width="16" height="16" version="1.1">
 <defs>
  <style id="current-color-scheme" type="text/css">
    .ColorScheme-Text { color: #d3dae3; } .ColorScheme-Highlight { color:#5294e2; }
  </style>
  <linearGradient id="60spsycho" x1="0%" x2="0%" y1="0%" y2="100%">
    <stop offset="0%" style="stop-color:#df5940; stop-opacity:1"/>
    <stop offset="100%" style="stop-color:#d8d15f; stop-opacity:1"/>
    <stop offset="0%" style="stop-color:#e9882a; stop-opacity:1"/>
    <stop offset="100%" style="stop-color:#279362; stop-opacity:1"/>
  </linearGradient>
 </defs>
  <path fill="url(#60spsycho)" class="ColorScheme-Text" opacity="1.0" d="m 7.6211867,3.8204884 a 3.8096267,3.8096267 0 0 1 -7.61925336,0 3.8096267,3.8096267 0 1 1 7.61925336,0 z"/>
  <path fill="url(#60spsycho)" class="ColorScheme-Text" opacity="1.0" d="m 15.999999,12.192156 a 3.8096267,3.8096267 0 0 1 -7.619252,0 3.8096267,3.8096267 0 1 1 7.619252,0 z"/>
  <path fill="url(#60spsycho)" class="ColorScheme-Text" opacity="0.6" d="m 15.999999,3.8114029 a 3.8096267,3.8096267 0 0 1 -7.619252,0 3.8096267,3.8096267 0 1 1 7.619252,0 z"/>
  <path fill="url(#60spsycho)" class="ColorScheme-Text" opacity="0.6" d="m 7.6192522,12.192543 a 3.8096264,3.8096264 0 0 1 -7.61925192591324,0 3.8096264,3.8096264 0 1 1 7.61925192591324,0 z"/>
</svg>
