<svg xmlns="http://www.w3.org/2000/svg" width="16" height="16" version="1.1">
 <defs>
  <style id="current-color-scheme" type="text/css">
    .ColorScheme-Text { color: #d3dae3; } .ColorScheme-Highlight { color:#5294e2; }
  </style>
  <linearGradient id="60spsycho" x1="0%" x2="0%" y1="0%" y2="100%">
    <stop offset="0%" style="stop-color:#df5940; stop-opacity:1"/>
    <stop offset="100%" style="stop-color:#d8d15f; stop-opacity:1"/>
    <stop offset="0%" style="stop-color:#e9882a; stop-opacity:1"/>
    <stop offset="100%" style="stop-color:#279362; stop-opacity:1"/>
  </linearGradient>
 </defs>
  <path fill="url(#60spsycho)" class="ColorScheme-Text" d="M 7.7265625 0.59765625 L 7.7265625 1.7460938 L 7.7265625 5.2871094 L 10.779297 8 L 7.7265625 10.712891 L 7.7265625 15.402344 L 16 8 L 7.7265625 0.59765625 z M 8.7519531 2.890625 L 14.460938 8 L 8.7519531 13.109375 L 8.7519531 11.173828 L 12.324219 8 L 8.7519531 4.8261719 L 8.7519531 2.890625 z"/>
  <path fill="url(#60spsycho)" class="ColorScheme-Text" d="M 3.3105469 0.59765625 L 3.3105469 5.2792969 L 0 5.2792969 L 0 5.7929688 L 0 10.720703 L 3.3105469 10.720703 L 3.3105469 15.402344 L 11.583984 8 L 3.3105469 0.59765625 z M 4.3378906 2.8925781 L 10.044922 8 L 4.3378906 13.107422 L 4.3378906 9.6953125 L 1.0273438 9.6953125 L 1.0273438 6.3046875 L 4.3378906 6.3046875 L 4.3378906 2.8925781 z"/>
</svg>
