<svg xmlns="http://www.w3.org/2000/svg" width="16" height="16" version="1.1">
 <defs>
  <style id="current-color-scheme" type="text/css">
    .ColorScheme-Text { color: #d3dae3; } .ColorScheme-Highlight { color:#5294e2; }
  </style>
  <linearGradient id="60spsycho" x1="0%" x2="0%" y1="0%" y2="100%">
    <stop offset="0%" style="stop-color:#df5940; stop-opacity:1"/>
    <stop offset="100%" style="stop-color:#d8d15f; stop-opacity:1"/>
    <stop offset="0%" style="stop-color:#e9882a; stop-opacity:1"/>
    <stop offset="100%" style="stop-color:#279362; stop-opacity:1"/>
  </linearGradient>
 </defs>
  <path fill="url(#60spsycho)" class="ColorScheme-Text" d="M 7.478 2.166 L 7.478 5.516 L 8.522 5.516 L 8.522 3.37 L 8.914 3.11 L 7.478 2.166 Z M 5.673 3.639 L 5.61 4.733 L 4.234 4.732 L 5.004 4.472 L 0 4.472 L 2.793 4.733 L 1.822 5.516 L 6.694 5.516 L 6.694 4.087 L 5.673 3.639 Z M 10.327 3.639 L 9.306 4.087 L 9.306 5.516 L 14.178 5.516 L 13.207 4.733 L 16 4.472 L 10.996 4.472 L 11.766 4.732 L 10.39 4.733 L 10.327 3.639 Z M 4.543 6.038 L 5.65 6.918 L 5.65 13.826 L 7.478 12.711 L 7.478 13.834 L 10.35 11.712 L 10.35 6.941 L 11.473 6.038 L 9.306 6.038 L 9.306 11.233 L 8.533 11.774 L 8.512 6.038 L 7.478 6.038 L 7.478 11.244 L 6.707 11.774 L 6.682 6.038 L 4.543 6.038 Z"/>
</svg>
