<svg xmlns="http://www.w3.org/2000/svg" width="22" height="22" version="1.1">
 <defs>
  <style id="current-color-scheme" type="text/css">
    .ColorScheme-Text { color: #d3dae3; } .ColorScheme-Highlight { color:#5294e2; }
  </style>
  <linearGradient id="rainblue" x1="0%" x2="0%" y1="0%" y2="100%">
    <stop offset="0%" style="stop-color:#00F260; stop-opacity:1"/>
    <stop offset="100%" style="stop-color:#0575E6; stop-opacity:1"/>
  </linearGradient>
 </defs>
  <path fill="url(#rainblue)" class="ColorScheme-Text" d="M 3 10 A 1.0001 1.0001 0 0 0 2 11 L 2 13 A 1.0001 1.0001 0 0 0 3 14 L 13 14 A 1.0001 1.0001 0 0 0 14 13 L 14 11 A 1.0001 1.0001 0 0 0 13 10 L 12 10 A 1.0001 1.0001 0 0 0 11 11 L 5 11 A 1.0001 1.0001 0 0 0 4 10 L 3 10 z" transform="translate(3 3)"/>
</svg>
