<svg xmlns="http://www.w3.org/2000/svg" width="16" height="16" version="1.1">
 <defs>
  <style id="current-color-scheme" type="text/css">
    .ColorScheme-Text { color: #d3dae3; } .ColorScheme-Highlight { color:#5294e2; }
  </style>
  <linearGradient id="rainblue" x1="0%" x2="0%" y1="0%" y2="100%">
    <stop offset="0%" style="stop-color:#00F260; stop-opacity:1"/>
    <stop offset="100%" style="stop-color:#0575E6; stop-opacity:1"/>
  </linearGradient>
 </defs>
  <path fill="url(#rainblue)" class="ColorScheme-Text" fill-rule="evenodd" d="M 0.142 8.05 C 0.129 8.889 0.252 9.723 0.506 10.522 C 1.545 13.786 4.576 16.001 8.001 16 C 11.426 16.001 14.458 13.786 15.497 10.522 C 16.526 7.257 15.314 3.702 12.508 1.744 L 11.222 3.585 C 13.23 4.978 14.095 7.516 13.356 9.845 C 12.617 12.177 10.448 13.76 8.001 13.754 C 5.553 13.761 3.385 12.178 2.645 9.845 C 1.906 7.516 2.772 4.978 4.779 3.585 L 3.494 1.744 C 1.429 3.185 0.181 5.532 0.142 8.05 L 0.142 8.05 Z M 6.879 0.281 L 6.879 8.14 L 9.124 8.14 L 9.124 0 L 6.879 0.281 L 6.879 0.281 Z"/>
</svg>
