<svg xmlns="http://www.w3.org/2000/svg" width="24" height="24" version="1.1">
 <defs>
  <style id="current-color-scheme" type="text/css">
    .ColorScheme-Text { color: #d3dae3; } .ColorScheme-Highlight { color:#5294e2; }
  </style>
  <linearGradient id="aurora" x1="0%" x2="0%" y1="0%" y2="100%">
    <stop offset="0%" style="stop-color:#09D4DF; stop-opacity:1"/>
    <stop offset="100%" style="stop-color:#ad6c16; stop-opacity:1"/>
  </linearGradient>
 </defs>
  <path fill="url(#aurora)" class="ColorScheme-Text" d="M 1 0 L 1 14 L 0 14 L 0 15 L 1 15 L 1 16 L 2 16 L 2 15 L 16 15 L 16 14 L 2 14 L 2 10.875 L 5.9980469 6.8769531 L 8.1210938 9 L 8.1269531 8.9960938 L 8.1308594 9 L 16 1.125 L 16 0 L 15.710938 0 C 15.718138 -0.012362 8.1269531 7.5898437 8.1269531 7.5898438 L 6 5.4648438 L 5.9980469 5.4667969 L 5.9960938 5.4648438 L 2 9.4609375 L 2 0 L 1 0 z" transform="translate(4 4)"/>
</svg>
