<svg xmlns="http://www.w3.org/2000/svg" width="16" height="16" version="1.1">
 <defs>
  <style id="current-color-scheme" type="text/css">
    .ColorScheme-Text { color: #d3dae3; } .ColorScheme-Highlight { color:#5294e2; }
  </style>
  <linearGradient id="60spsycho" x1="0%" x2="0%" y1="0%" y2="100%">
    <stop offset="0%" style="stop-color:#df5940; stop-opacity:1"/>
    <stop offset="100%" style="stop-color:#d8d15f; stop-opacity:1"/>
    <stop offset="0%" style="stop-color:#e9882a; stop-opacity:1"/>
    <stop offset="100%" style="stop-color:#279362; stop-opacity:1"/>
  </linearGradient>
 </defs>
  <path fill="url(#60spsycho)" class="ColorScheme-Text" d="M 8 0 C 6.676 0.004 5.604 1.076 5.6 2.4 C 4.276 2.404 3.204 3.476 3.2 4.8 C 3.2 5.197 3.303 5.568 3.475 5.9 C 2.337 6.417 1.604 7.55 1.6 8.8 C 1.6 10.56 3.04 12 4.8 12 L 7.075 12 L 6.4 16 L 9.6 16 L 8.925 12 L 11.2 12 C 12.96 12 14.4 10.56 14.4 8.8 C 14.4 7.512 13.628 6.406 12.525 5.9 C 12.697 5.569 12.8 5.197 12.8 4.8 C 12.8 3.482 11.718 2.4 10.4 2.4 C 10.4 1.082 9.318 0 8 0 Z"/>
</svg>
