<svg xmlns="http://www.w3.org/2000/svg" width="16" height="16" version="1.1">
 <defs>
  <style id="current-color-scheme" type="text/css">
    .ColorScheme-Text { color: #d3dae3; } .ColorScheme-Highlight { color:#5294e2; }
  </style>
  <linearGradient id="90ssummer" x1="0%" x2="0%" y1="0%" y2="100%">
    <stop offset="0%" style="stop-color:#f618c7; stop-opacity:1"/>
    <stop offset="100%" style="stop-color:#94ffab; stop-opacity:1"/>
    <stop offset="0%" style="stop-color:#fbfd54; stop-opacity:1"/>
    <stop offset="100%" style="stop-color:#0f83ae; stop-opacity:1"/>
  </linearGradient>
 </defs>
  <path fill="url(#90ssummer)" class="ColorScheme-Text" d="M 8,1 C 4.13,1 1,4.13 1,8 1,11.87 4.13,15 8,15 11.87,15 15,11.87 15,8 15,4.13 11.87,1 8,1 Z M 7,4 H 9 V 7 L 8.75,9 H 7.28 L 7,7 Z M 8,9.75 C 8.69,9.75 9.25,10.31 9.25,11 9.25,11.69 8.69,12.25 8,12.25 7.31,12.25 6.75,11.69 6.75,11 6.75,10.31 7.31,9.75 8,9.75 Z"/>
</svg>
