<svg xmlns="http://www.w3.org/2000/svg" width="16" height="16" version="1.1">
 <defs>
  <style id="current-color-scheme" type="text/css">
    .ColorScheme-Text { color: #d3dae3; } .ColorScheme-Highlight { color:#5294e2; }
  </style>
  <linearGradient id="90ssummer" x1="0%" x2="0%" y1="0%" y2="100%">
    <stop offset="0%" style="stop-color:#f618c7; stop-opacity:1"/>
    <stop offset="100%" style="stop-color:#94ffab; stop-opacity:1"/>
    <stop offset="0%" style="stop-color:#fbfd54; stop-opacity:1"/>
    <stop offset="100%" style="stop-color:#0f83ae; stop-opacity:1"/>
  </linearGradient>
 </defs>
  <path fill="url(#90ssummer)" class="ColorScheme-Text" d="M 8,2 A 6,6 0 0 0 3.9414,3.5898 L 5.1484,5.1992 A 4,4 0 0 1 8,4 4,4 0 0 1 12,8 H 10 L 13,12 16,8 H 14 A 6,6 0 0 0 8,2 Z M 3,4 0,8 H 2 A 6,6 0 0 0 8,14 6,6 0 0 0 12.059,12.41 L 10.85,10.801 A 4,4 0 0 1 8,12 4,4 0 0 1 4,8 H 6 Z"/>
</svg>
