<svg xmlns="http://www.w3.org/2000/svg" width="16" height="16" version="1.1">
 <defs>
  <style id="current-color-scheme" type="text/css">
    .ColorScheme-Text { color: #d3dae3; } .ColorScheme-Highlight { color:#5294e2; }
  </style>
  <linearGradient id="telinkrin" x1="0%" x2="0%" y1="0%" y2="100%">
    <stop offset="0%" style="stop-color:#b2ced6; stop-opacity:1"/>
    <stop offset="100%" style="stop-color:#6da5b7; stop-opacity:1"/>
  </linearGradient>
 </defs>
  <path fill="url(#telinkrin)" class="ColorScheme-Text" fill-rule="evenodd" d="m 3.054166,0.8 c 0,0 0.919803,2.96352 0.358339,4.863508 C 2.851028,7.563569 0,9.703138 0,9.703138 c 0,0 3.727532,0.202831 5.142769,1.107324 C 6.557908,11.714831 7.996923,15.2 7.996923,15.2 c 0,0 1.910892,-3.84 2.7104,-4.389538 C 11.506831,10.2608 16,9.697969 16,9.697969 c 0,0 -3.285292,-3.091692 -3.564554,-3.954215 -0.279261,-0.862523 0.511385,-4.941674 0.511385,-4.941674 0,0 -2.9568,1.99792 -5.033231,1.99792 -2.076554,0 -4.859434,-2 -4.859434,-2 z m 7.210449,3.731249 C 10.218585,5.082954 10.107077,5.476062 10.406277,6.4 c 0.332308,1.026585 0.671754,1.225969 1.073969,1.702031 0.04899,0.05809 0.109662,0.115569 0.160369,0.174031 -0.08948,0.02043 -0.186461,0.03385 -0.273969,0.05514 -0.614892,0.149908 -1.039138,0.151262 -1.867692,0.720862 -0.828554,0.5696 -0.984739,0.978338 -1.327139,1.491692 -0.04394,0.06597 -0.08234,0.1408 -0.12603,0.208369 C 7.619938,10.129479 7.092185,9.524064 6.291692,9.012556 5.674092,8.617725 5.060677,8.399756 4.457292,8.230156 4.858585,7.669664 5.228677,7.044925 5.458338,6.267694 5.636923,5.66351 5.660923,5.100187 5.682338,4.543756 6.3552,4.766033 7.089969,4.933294 7.9136,4.933294 c 0.863138,0 1.644062,-0.165784 2.351015,-0.402043 z" clip-rule="evenodd"/>
</svg>
