<svg xmlns="http://www.w3.org/2000/svg" width="16" height="16" version="1.1">
 <defs>
  <style id="current-color-scheme" type="text/css">
    .ColorScheme-Text { color: #d3dae3; } .ColorScheme-Highlight { color:#5294e2; }
  </style>
  <linearGradient id="telinkrin" x1="0%" x2="0%" y1="0%" y2="100%">
    <stop offset="0%" style="stop-color:#b2ced6; stop-opacity:1"/>
    <stop offset="100%" style="stop-color:#6da5b7; stop-opacity:1"/>
  </linearGradient>
 </defs>
 <g fill="url(#telinkrin)" class="ColorScheme-Text">
  <path opacity="0.6" d="M 11.826288,5.9532857 C 11.850574,8.0728571 10.728717,10.039857 8.8888598,11.107 7.984717,11.631 6.9582884,11.906857 5.9134314,11.906857 4.8684314,11.906857 3.8420171,11.631 2.9378742,11.107 1.1007314,10.040571 -0.02126857,8.0727142 3.0285577e-4,5.9532857 -0.02112572,3.8339144 1.1007314,1.8667715 2.9378742,0.79977156 3.8420171,0.27588586 4.8684314,1.5164526e-7 5.9134314,1.5164526e-7 6.9582884,1.5164526e-7 7.984717,0.27588586 8.8888598,0.79977156 10.728717,1.8662001 11.850717,3.8339144 11.826288,5.9532857 Z"/>
  <path opacity="1.0" d="M 6.2614314,6.2997142 H 16.000003 V 16 H 6.2614314"/>
 </g>
</svg>
