<svg xmlns="http://www.w3.org/2000/svg" width="24" height="24" version="1.1">
 <defs>
  <style id="current-color-scheme" type="text/css">
    .ColorScheme-Text { color: #d3dae3; } .ColorScheme-Highlight { color:#5294e2; }
  </style>
  <linearGradient id="fitdance" x1="0%" x2="0%" y1="0%" y2="100%">
    <stop offset="0%" style="stop-color:#1AD6AB; stop-opacity:1"/>
    <stop offset="100%" style="stop-color:#329DB6; stop-opacity:1"/>
  </linearGradient>
 </defs>
 <g transform="translate(-248 -524.36)">
  <path fill="url(#fitdance)" class="ColorScheme-Text" d="m253 529.36s-2 0-2 2.0625v9.9375c0 2 2 2 2 2h14c2 0 2-2 2-2v-10s0-2-2-2zm2 2.002h4v2h-4v2h3v2h-3v2h4v2h-4s-2 0-2-2v-6c0-2 2-2 2-2zm5 0h2c0.50346 2.6669 1 8 1 8h1l1-8h2l-1 8s0 2-2 2h-1s-2 0-2-2z"/>
 </g>
</svg>
