<svg xmlns="http://www.w3.org/2000/svg" width="24" height="24" version="1.1">
 <defs>
  <style id="current-color-scheme" type="text/css">
    .ColorScheme-Text { color: #d3dae3; } .ColorScheme-Highlight { color:#5294e2; }
  </style>
  <linearGradient id="fitdance" x1="0%" x2="0%" y1="0%" y2="100%">
    <stop offset="0%" style="stop-color:#1AD6AB; stop-opacity:1"/>
    <stop offset="100%" style="stop-color:#329DB6; stop-opacity:1"/>
  </linearGradient>
 </defs>
  <path fill="#d3dae3" d="M4 6.34493H7.41089C7.92343 6.34493 8.37995 6.66893 8.54912 7.15274L12.9044 19.6087L11.6986 15.4812L17.4957 7.87536L20 10.2406L15.3159 5H19.258C19.6678 5 20 5.33222 20 5.74203V10.2406L12.9044 19.6087H9.4714C8.99956 19.6087 8.579 19.3112 8.42188 18.8663L4 6.34493Z"/>
 <rect fill="url(#paint0_linear)" width="4" height="6" x="14" y="13"/>
  <path fill="url(#paint1_linear)" d="M16 12C13.7909 12 12 13.7909 12 16C12 18.2091 13.7909 20 16 20C18.2091 20 20 18.2091 20 16C20 13.7909 18.2091 12 16 12ZM15.4286 13.7143H16.5714V16H18L16 18.8571L14 16H15.4286V13.7143Z"/>
</svg>
