<svg xmlns="http://www.w3.org/2000/svg" width="22" height="22" version="1.1">
 <defs>
  <style id="current-color-scheme" type="text/css">
    .ColorScheme-Text { color: #d3dae3; } .ColorScheme-Highlight { color:#5294e2; }
  </style>
  <linearGradient id="rainblue" x1="0%" x2="0%" y1="0%" y2="100%">
    <stop offset="0%" style="stop-color:#00F260; stop-opacity:1"/>
    <stop offset="100%" style="stop-color:#0575E6; stop-opacity:1"/>
  </linearGradient>
 </defs>
  <path fill="url(#rainblue)" class="ColorScheme-Text" opacity="0.3" d="M 3,3 C 2.446,3 2,3.446 2,4 V 18 C 2,18.554 2.446,19 3,19 H 19 C 19.554,19 20,18.554 20,18 V 4 C 20,3.446 19.554,3 19,3 Z M 16,5 H 18 V 6 H 16 Z M 16,7 H 18 V 8 H 16 Z M 16,9 H 18 V 10 H 16 Z M 16,11 H 18 V 12 H 16 Z M 4,14 H 10 V 17 H 4 Z M 12,14 H 18 V 17 H 12 Z"/>
</svg>
