<svg xmlns="http://www.w3.org/2000/svg" width="22" height="22" version="1.1">
 <defs>
  <style id="current-color-scheme" type="text/css">
    .ColorScheme-Text { color: #d3dae3; } .ColorScheme-Highlight { color:#5294e2; }
  </style>
  <linearGradient id="rainblue" x1="0%" x2="0%" y1="0%" y2="100%">
    <stop offset="0%" style="stop-color:#00F260; stop-opacity:1"/>
    <stop offset="100%" style="stop-color:#0575E6; stop-opacity:1"/>
  </linearGradient>
 </defs>
  <path fill="url(#rainblue)" class="ColorScheme-Text" d="M 3.1816406,5 C 2.5269406,5 2,5.5344188 2,6.1992188 L 2,15.800781 C 2,16.465781 2.5269406,17 3.1816406,17 l 11.6365384,0 c 0.655,0 1.181641,-0.534219 1.181641,-1.199219 l 0,-2.800781 5,2 0,-8 -5,2 0,-2.8007812 C 15.99982,5.5344188 15.473179,5 14.818179,5 Z m 5.8181797,2 c 2.2091387,0 3.9999997,1.790861 3.9999997,4 0,2.209139 -1.790861,4 -3.9999997,4 -2.209139,0 -4,-1.790861 -4,-4 0,-2.209139 1.790861,-4 4,-4 z"/>
</svg>
