<svg xmlns="http://www.w3.org/2000/svg" width="16" height="16" version="1.1">
 <defs>
  <style id="current-color-scheme" type="text/css">
    .ColorScheme-Text { color: #d3dae3; } .ColorScheme-Highlight { color:#5294e2; }
  </style>
  <linearGradient id="telinkrin" x1="0%" x2="0%" y1="0%" y2="100%">
    <stop offset="0%" style="stop-color:#b2ced6; stop-opacity:1"/>
    <stop offset="100%" style="stop-color:#6da5b7; stop-opacity:1"/>
  </linearGradient>
 </defs>
  <path fill="url(#telinkrin)" class="ColorScheme-Text" d="M 4 2.0039062 C 4 2.0039062 2 2.0039062 2 4.0039062 L 2 11.003906 C 2 12.003906 1 12.003906 1 12.003906 L 0 12.003906 L 0 14.003906 L 16 14.003906 L 16 12.003906 L 15 12.003906 C 15 12.003906 14 12.003906 14 11.003906 L 14 4.0039062 C 14 4.0039062 14 2.0039062 12 2.0039062 L 4 2.0039062 z M 6.5859375 5.1757812 L 8 6.5898438 L 9.4140625 5.1757812 L 10.828125 6.5898438 L 9.4140625 8.0039062 L 10.828125 9.4179688 L 9.4140625 10.832031 L 8 9.4179688 L 6.5859375 10.832031 L 5.171875 9.4179688 L 6.5859375 8.0039062 L 5.171875 6.5898438 L 6.5859375 5.1757812 z"/>
</svg>
