<svg xmlns="http://www.w3.org/2000/svg" width="16" height="16" version="1.1">
 <defs>
  <style id="current-color-scheme" type="text/css">
    .ColorScheme-Text { color: #d3dae3; } .ColorScheme-Highlight { color:#5294e2; }
  </style>
  <linearGradient id="grey" x1="0%" x2="0%" y1="0%" y2="100%">
    <stop offset="0%" style="stop-color:#8C8C8C; stop-opacity:1"/>
    <stop offset="100%" style="stop-color:#4B4B4B; stop-opacity:1"/>
  </linearGradient>
 </defs>
  <path fill="url(#grey)" class="ColorScheme-Text" opacity="0.3" d="M 2,1 C 2,1 1,1 1,2 V 5 C 1,4 2,4 2,4 H 7 L 9,6 H 14 C 14,6 15,6 15,7 V 4 C 15,3 14,3 14,3 H 9 L 7,1 Z"/>
  <path fill="url(#grey)" class="ColorScheme-Text" d="M 2,5 C 2,5 1,5 1,6 V 13 C 1,13 1,14 2,14 H 14 C 14,14 15,14 15,13 V 8 C 15,7 14,7 14,7 H 9 L 7,5 Z"/>
</svg>
