<svg xmlns="http://www.w3.org/2000/svg" width="16" height="16" version="1.1">
 <defs>
  <style id="current-color-scheme" type="text/css">
    .ColorScheme-Text { color: #d3dae3; } .ColorScheme-Highlight { color:#5294e2; }
  </style>
  <linearGradient id="grey" x1="0%" x2="0%" y1="0%" y2="100%">
    <stop offset="0%" style="stop-color:#8C8C8C; stop-opacity:1"/>
    <stop offset="100%" style="stop-color:#4B4B4B; stop-opacity:1"/>
  </linearGradient>
 </defs>
  <path fill="url(#grey)" class="ColorScheme-Text" d="M 1,0 C -0.325,0 -0.325,2 1,2 H 2 V 5 H 0 V 8 H 2 V 9 H 0 V 12 H 2 V 14 C 2,15.325 4,15.325 4,14 V 0.99996 C 4,0 3,0 3,0 Z M 5,3 V 5 H 14 V 13 H 8 V 11 H 5 V 13 H 6 V 15 H 16 V 3 Z M 1,6 H 2 V 7 H 1 Z M 6,6 V 10 H 7 V 6 Z M 8,6 V 10 H 9 V 6 Z M 10,6 V 10 H 11 V 6 Z M 12,6 V 10 H 13 V 6 Z M 1,10 H 2 V 11 H 1 Z"/>
</svg>
