<svg xmlns="http://www.w3.org/2000/svg" width="16" height="16" version="1.1">
 <defs>
  <style id="current-color-scheme" type="text/css">
    .ColorScheme-Text { color: #d3dae3; } .ColorScheme-Highlight { color:#5294e2; }
  </style>
  <linearGradient id="grey" x1="0%" x2="0%" y1="0%" y2="100%">
    <stop offset="0%" style="stop-color:#8C8C8C; stop-opacity:1"/>
    <stop offset="100%" style="stop-color:#4B4B4B; stop-opacity:1"/>
  </linearGradient>
 </defs>
  <path fill="url(#grey)" class="ColorScheme-Text" opacity="0.3" d="M 2,2 C 1.446,2 1,2.446 1,3 V 5 H 15 V 3 C 15,2.446 14.554,2 14,2 Z M 1,11 V 13 C 1,13.554 1.446,14 2,14 H 14 C 14.554,14 15,13.554 15,13 V 11 Z"/>
  <path fill="url(#grey)" class="ColorScheme-Text" d="M 5,8 A 2,2 0 0 1 3,10 2,2 0 0 1 1,8 2,2 0 0 1 3,6 2,2 0 0 1 5,8 Z"/>
  <path fill="url(#grey)" class="ColorScheme-Text" d="M 10,8 A 2,2 0 0 1 8,10 2,2 0 0 1 6,8 2,2 0 0 1 8,6 2,2 0 0 1 10,8 Z"/>
  <path fill="url(#grey)" class="ColorScheme-Text" d="M 15,8 A 2,2 0 0 1 13,10 2,2 0 0 1 11,8 2,2 0 0 1 13,6 2,2 0 0 1 15,8 Z"/>
</svg>
