<svg xmlns="http://www.w3.org/2000/svg" width="24" height="24" version="1.1">
 <defs>
  <style id="current-color-scheme" type="text/css">
    .ColorScheme-Text { color: #d3dae3; } .ColorScheme-Highlight { color:#5294e2; }
  </style>
  <linearGradient id="grey" x1="0%" x2="0%" y1="0%" y2="100%">
    <stop offset="0%" style="stop-color:#8C8C8C; stop-opacity:1"/>
    <stop offset="100%" style="stop-color:#4B4B4B; stop-opacity:1"/>
  </linearGradient>
 </defs>
  <path fill="url(#grey)" class="ColorScheme-Text" d="M 2 2 L 2 14 L 6 14 L 6 6 L 14 6 L 14 2 L 2 2 z M 3 3 L 13 3 L 13 5 L 5 5 L 5 13 L 3 13 L 3 3 z M 8 8 L 8 14 L 12 14 L 12 12 L 14 12 L 14 8 L 8 8 z M 9 9 L 13 9 L 13 11 L 11 11 L 11 13 L 9 13 L 9 9 z" transform="translate(4 4)"/>
</svg>
