<svg xmlns="http://www.w3.org/2000/svg" width="16" height="16" version="1.1">
 <defs>
  <style id="current-color-scheme" type="text/css">
    .ColorScheme-Text { color: #d3dae3; } .ColorScheme-Highlight { color:#5294e2; }
  </style>
  <linearGradient id="arrongin" x1="0%" x2="0%" y1="0%" y2="100%">
    <stop offset="0%" style="stop-color:#dd9b44; stop-opacity:1"/>
    <stop offset="100%" style="stop-color:#ad6c16; stop-opacity:1"/>
  </linearGradient>
 </defs>
  <path fill="url(#arrongin)" class="ColorScheme-Text" fill-rule="evenodd" d="M 0 8 L 4.667 8 C 4.918 5.838 6.042 4.625 8 4.667 L 14.5 4.667 C 15.328 4.667 16 3.995 16 3.167 L 16 1.667 C 16 0.839 15.328 0.167 14.5 0.167 L 7 0.167 C 2.458 0.375 0.125 3.625 0 8 Z M 16 8 L 11.333 8 C 11.082 10.162 9.958 11.375 8 11.333 L 1.5 11.333 C 0.672 11.333 0 12.005 0 12.833 L 0 14.333 C 0 15.161 0.672 15.833 1.5 15.833 L 9 15.833 C 13.542 15.625 15.875 12.375 16 8 Z"/>
</svg>
