<svg xmlns="http://www.w3.org/2000/svg" width="16" height="16" version="1.1">
 <defs>
  <style id="current-color-scheme" type="text/css">
    .ColorScheme-Text { color: #d3dae3; } .ColorScheme-Highlight { color:#5294e2; }
  </style>
  <linearGradient id="telinkrin" x1="0%" x2="0%" y1="0%" y2="100%">
    <stop offset="0%" style="stop-color:#b2ced6; stop-opacity:1"/>
    <stop offset="100%" style="stop-color:#6da5b7; stop-opacity:1"/>
  </linearGradient>
 </defs>
  <path fill="url(#telinkrin)" class="ColorScheme-Text" fill-rule="evenodd" d="M 4.186 2.993 L 4.186 11.379 L 6.629 11.379 L 6.629 13.007 L 0 13.007 L 0 11.379 L 2.486 11.379 L 2.486 5.164 L 0.314 5.75 L 0.314 4.15 L 4.186 2.993 Z M 14.729 13.007 L 13.071 13.007 L 13.071 10.836 L 8.286 10.836 L 8.286 9.779 L 13.071 3.007 L 14.729 3.007 L 14.729 9.279 L 16 9.279 L 16 10.836 L 14.729 10.836 L 14.729 13.007 Z M 10.486 9.279 L 13.071 9.279 L 13.071 5.379 L 10.486 9.279 Z"/>
</svg>
