<svg xmlns="http://www.w3.org/2000/svg" width="16" height="16" version="1.1">
 <defs>
  <style id="current-color-scheme" type="text/css">
    .ColorScheme-Text { color: #d3dae3; } .ColorScheme-Highlight { color:#5294e2; }
  </style>
  <linearGradient id="arrongin" x1="0%" x2="0%" y1="0%" y2="100%">
    <stop offset="0%" style="stop-color:#dd9b44; stop-opacity:1"/>
    <stop offset="100%" style="stop-color:#ad6c16; stop-opacity:1"/>
  </linearGradient>
 </defs>
  <path fill="url(#arrongin)" class="ColorScheme-Text" d="M 0 3.333 L 0 12.667 C 0 13.587 0.746 14.333 1.667 14.333 L 14.333 14.333 C 15.254 14.333 16 13.587 16 12.667 L 16 3.333 C 16 2.413 15.254 1.667 14.333 1.667 L 1.667 1.667 C 0.746 1.667 0 2.413 0 3.333 Z M 15.333 8 C 15.333 8.553 14.887 9 14.333 9 C 13.78 9 13.333 8.553 13.333 8 C 13.333 7.447 13.78 7 14.333 7 C 14.887 7 15.333 7.447 15.333 8 Z M 12.667 3 L 12.667 13 L 2 13 L 2 3 L 12.667 3 Z"/>
</svg>
