<svg xmlns="http://www.w3.org/2000/svg" width="22" height="22" version="1.1">
 <defs>
  <style id="current-color-scheme" type="text/css">
    .ColorScheme-Text { color: #d3dae3; } .ColorScheme-Highlight { color:#5294e2; }
  </style>
  <linearGradient id="sunrise" x1="0%" x2="0%" y1="0%" y2="100%">
    <stop offset="0%" style="stop-color:#FF8501; stop-opacity:1"/>
    <stop offset="100%" style="stop-color:#FFCB01; stop-opacity:1"/>
  </linearGradient>
 </defs>
  <path fill="url(#sunrise)" class="ColorScheme-Text" fill-rule="evenodd" d="m12 2.5v3l7 4v-3l-7-4zm-8 0.7227c-0.552 0-1 0.448-1 1v1.2773l7 4v-2.998c-1.833-1.048-3.6739-2.1035-5.5039-3.1465-0.151-0.087-0.3221-0.1328-0.4961-0.1328zm-1 4.2773v3l7 4v-3l-7-4zm9 0v3l7 4v-3l-7-4zm-9 5v3l7 4v-3l-7-4zm9 0v2.998c1.833 1.048 3.674 2.104 5.504 3.147 0.151 0.087 0.322 0.132 0.496 0.132 0.552 0 1-0.448 1-1v-1.277l-7-4z"/>
</svg>
