<svg xmlns="http://www.w3.org/2000/svg" width="16" height="16" version="1.1">
 <defs>
  <style id="current-color-scheme" type="text/css">
    .ColorScheme-Text { color: #d3dae3; } .ColorScheme-Highlight { color:#5294e2; }
  </style>
  <linearGradient id="grey" x1="0%" x2="0%" y1="0%" y2="100%">
    <stop offset="0%" style="stop-color:#8C8C8C; stop-opacity:1"/>
    <stop offset="100%" style="stop-color:#4B4B4B; stop-opacity:1"/>
  </linearGradient>
 </defs>
  <path fill="url(#grey)" class="ColorScheme-Text" d="M 8 0 C 3.6 0 0 3.6 0 8 C 0 12.4 3.6 16 8 16 C 12.4 16 16 12.4 16 8 C 16 3.6 12.4 0 8 0 Z M 12.8 3.2 L 9.675 9.675 L 3.2 12.8 L 6.325 6.325 L 12.8 3.2 Z M 8 7.125 C 7.512 7.125 7.125 7.513 7.125 8 C 7.125 8.488 7.513 8.875 8 8.875 C 8.488 8.875 8.875 8.487 8.875 8 C 8.875 7.512 8.487 7.125 8 7.125 Z"/>
</svg>
