<svg xmlns="http://www.w3.org/2000/svg" width="22" height="22" version="1.1">
 <defs>
  <style id="current-color-scheme" type="text/css">
    .ColorScheme-Text { color: #d3dae3; } .ColorScheme-Highlight { color:#5294e2; }
  </style>
  <linearGradient id="fitdance" x1="0%" x2="0%" y1="0%" y2="100%">
    <stop offset="0%" style="stop-color:#1AD6AB; stop-opacity:1"/>
    <stop offset="100%" style="stop-color:#329DB6; stop-opacity:1"/>
  </linearGradient>
 </defs>
  <path fill="url(#fitdance)" class="ColorScheme-Text" d="M 2 1 C 1 1 1 2 1 2 L 1 14 C 1 15 2 15 2 15 L 9 15 L 9 13 L 3 13 L 3 6 L 13 6 L 13 9 L 15 9 L 15 2 C 15 1 14 1 14 1 L 2 1 z M 12 9 L 11.425781 10.613281 L 9.8789062 9.8789062 L 10.613281 11.425781 L 9.0039062 12 L 10.617188 12.574219 L 9.8828125 14.121094 L 11.429688 13.386719 L 12 15 L 12.568359 13.386719 L 14.119141 14.121094 L 13.388672 12.574219 L 15 12 L 13.388672 11.425781 L 14.119141 9.8789062 L 12.568359 10.613281 L 12 9 z" transform="translate(3 3)"/>
</svg>
