<svg xmlns="http://www.w3.org/2000/svg" width="22" height="22" version="1.1">
 <defs>
  <style id="current-color-scheme" type="text/css">
    .ColorScheme-Text { color: #d3dae3; } .ColorScheme-Highlight { color:#5294e2; }
  </style>
  <linearGradient id="arrongin" x1="0%" x2="0%" y1="0%" y2="100%">
    <stop offset="0%" style="stop-color:#dd9b44; stop-opacity:1"/>
    <stop offset="100%" style="stop-color:#ad6c16; stop-opacity:1"/>
  </linearGradient>
 </defs>
  <path fill="url(#arrongin)" class="ColorScheme-Text" d="M 6.5 3 C 5.669 3 5 3.669 5 4.5 L 5 5 L 17 5 L 17 4.5 C 17 3.669 16.331 3 15.5 3 L 6.5 3 z M 5 7 L 5 9 L 17 9 L 17 7 L 5 7 z M 5 11 L 5 13 L 16 13 L 17 13 L 17 11 L 5 11 z M 5 15 L 5 17 L 13 17 L 13 16 A 1.0001 1.0001 0 0 1 14 15 L 5 15 z"/>
  <path fill="url(#arrongin)" class="ColorScheme-Text" opacity="0.3" d="M 5 5 L 5 7 L 17 7 L 17 5 L 5 5 z M 5 9 L 5 11 L 17 11 L 17 9 L 5 9 z M 5 13 L 5 15 L 14 15 L 15 15 L 15 14 A 1.0001 1.0001 0 0 1 16 13 L 5 13 z M 5 17 L 5 17.5 C 5 18.331 5.669 19 6.5 19 L 14 19 A 1.0001 1.0001 0 0 1 13 18 L 13 17 L 5 17 z"/>
  <path fill="url(#arrongin)" class="ColorScheme-Text" opacity="0.3" d="M 15 3 L 15 14 A 1.0001 1.0001 0 0 1 16 13 L 17 13 L 17 11 L 17 9 L 17 7 L 17 5 L 17 4.5 C 17 3.669 16.331 3 15.5 3 L 15 3 z"/>
  <path fill="url(#arrongin)" class="ColorScheme-Text" d="M 16 14 L 16 16 L 14 16 L 14 18 L 16 18 L 16 20 L 18 20 L 18 18 L 20 18 L 20 16 L 18 16 L 18 14 L 16 14 z"/>
</svg>
