<svg xmlns="http://www.w3.org/2000/svg" width="22" height="22" version="1.1">
 <defs>
  <style id="current-color-scheme" type="text/css">
    .ColorScheme-Text { color: #d3dae3; } .ColorScheme-Highlight { color:#5294e2; }
  </style>
  <linearGradient id="arrongin" x1="0%" x2="0%" y1="0%" y2="100%">
    <stop offset="0%" style="stop-color:#dd9b44; stop-opacity:1"/>
    <stop offset="100%" style="stop-color:#ad6c16; stop-opacity:1"/>
  </linearGradient>
 </defs>
  <path fill="url(#arrongin)" class="ColorScheme-Text" d="m3 1.0098s-1 0-1 1v12c0 1 1 1 1 1h10s1 0 1-1v-4c0-3.0002-3-3.0002-3-3.0002l-1-0.0039v-2l-4.5 3 4.5 3.0001v-2.0001l1 0.0039s1 0 1 1.0002v3h-8v-9.9963h8v2.9961l2-0.0039v-3.9961c0-1-1-1-1-1h-10z" transform="translate(3 3)"/>
</svg>
