<svg xmlns="http://www.w3.org/2000/svg" width="22" height="22" version="1.1">
 <defs>
  <style id="current-color-scheme" type="text/css">
    .ColorScheme-Text { color: #d3dae3; } .ColorScheme-Highlight { color:#5294e2; }
  </style>
  <linearGradient id="telinkrin" x1="0%" x2="0%" y1="0%" y2="100%">
    <stop offset="0%" style="stop-color:#b2ced6; stop-opacity:1"/>
    <stop offset="100%" style="stop-color:#6da5b7; stop-opacity:1"/>
  </linearGradient>
 </defs>
  <path fill="url(#telinkrin)" class="ColorScheme-Text" d="M 5 1.0039062 L 5 3.0039062 L 1 3.0039062 L 1 4.0039062 L 5 4.0039062 L 5 6.0039062 L 11 6.0039062 L 11 4.0039062 L 15 4.0039062 L 15 3.0039062 L 11 3.0039062 L 11 1.0039062 L 5 1.0039062 z M 6 7.0039062 L 8 10.003906 L 10 7.0039062 L 6 7.0039062 z M 1 10.003906 L 1 15.003906 L 6 15.003906 L 6 13.003906 L 7 13.003906 L 7 12.003906 L 6 12.003906 L 6 10.003906 L 1 10.003906 z M 10 10.003906 L 10 12.003906 L 9 12.003906 L 9 13.003906 L 10 13.003906 L 10 15.003906 L 15 15.003906 L 15 10.003906 L 10 10.003906 z" transform="translate(3 3)"/>
</svg>
