<svg xmlns="http://www.w3.org/2000/svg" width="22" height="22" version="1.1">
 <defs>
  <style id="current-color-scheme" type="text/css">
    .ColorScheme-Text { color: #d3dae3; } .ColorScheme-Highlight { color:#5294e2; }
  </style>
  <linearGradient id="telinkrin" x1="0%" x2="0%" y1="0%" y2="100%">
    <stop offset="0%" style="stop-color:#b2ced6; stop-opacity:1"/>
    <stop offset="100%" style="stop-color:#6da5b7; stop-opacity:1"/>
  </linearGradient>
 </defs>
  <path fill="url(#telinkrin)" class="ColorScheme-Text" d="M 8 1 L 1 8 L 3 8 L 3 15 L 13 15 L 13 8 L 15 8 L 8 1 z M 8 6 C 9.1046 6 10 6.89547 10 8 C 10 9.10453 9.10457 10 8 10 C 10.9999 9.9982 11 12.400391 11 12.400391 L 11 13 L 5 13 L 5 12.400391 C 5 12.400391 4.99989 10.0018 8 10 C 6.8954 10 6 9.10453 6 8 C 6 6.89547 6.89543 6 8 6 z" transform="translate(3 3)"/>
</svg>
