<svg xmlns="http://www.w3.org/2000/svg" width="24" height="24" version="1.1">
 <defs>
  <style id="current-color-scheme" type="text/css">
    .ColorScheme-Text { color: #d3dae3; } .ColorScheme-Highlight { color:#5294e2; }
  </style>
  <linearGradient id="telinkrin" x1="0%" x2="0%" y1="0%" y2="100%">
    <stop offset="0%" style="stop-color:#b2ced6; stop-opacity:1"/>
    <stop offset="100%" style="stop-color:#6da5b7; stop-opacity:1"/>
  </linearGradient>
 </defs>
  <path fill="url(#telinkrin)" class="ColorScheme-Text" d="m 14,14 v 1.414062 L 15.585938,17 14,18.585938 V 20 h 1.414062 L 17,18.414062 18.585938,20 H 20 V 18.585938 L 18.414062,17 20,15.414062 V 14 H 18.585938 L 17,15.585938 15.414062,14 Z"/>
  <path fill="url(#telinkrin)" class="ColorScheme-Text" opacity="0.3" d="M 6,5 C 5,5 5,6 5,6 v 12 c 0,1 1,1 1,1 h 7 V 17 H 7 v -7 h 10 v 3 h 2 V 6 C 19,5 18,5 18,5 Z"/>
</svg>
