<svg xmlns="http://www.w3.org/2000/svg" width="24" height="24" version="1.1">
 <defs>
  <style id="current-color-scheme" type="text/css">
    .ColorScheme-Text { color: #d3dae3; } .ColorScheme-Highlight { color:#5294e2; }
  </style>
  <linearGradient id="telinkrin" x1="0%" x2="0%" y1="0%" y2="100%">
    <stop offset="0%" style="stop-color:#b2ced6; stop-opacity:1"/>
    <stop offset="100%" style="stop-color:#6da5b7; stop-opacity:1"/>
  </linearGradient>
 </defs>
  <path fill="url(#telinkrin)" class="ColorScheme-Text" d="M 12 1 L 12 2 L 12 2.0527344 A 12 12 0 0 0 5.0957031 5 L 3 5 L 3 7.4140625 A 12 12 0 0 0 1.0585938 13 L 1 13 L 0 13 L 0 16 L 3 16 L 3 13 L 2.0507812 13 A 11 11 0 0 1 3.796875 8 L 6 8 L 6 5.5429688 A 11 11 0 0 1 12 3.0566406 L 12 4 L 15 4 L 15 1 L 12 1 z" transform="translate(4 4)"/>
</svg>
