<svg xmlns="http://www.w3.org/2000/svg" width="16" height="16" version="1.1">
 <defs>
  <style id="current-color-scheme" type="text/css">
    .ColorScheme-Text { color: #d3dae3; } .ColorScheme-Highlight { color:#5294e2; }
  </style>
  <linearGradient id="rainblue" x1="0%" x2="0%" y1="0%" y2="100%">
    <stop offset="0%" style="stop-color:#00F260; stop-opacity:1"/>
    <stop offset="100%" style="stop-color:#0575E6; stop-opacity:1"/>
  </linearGradient>
 </defs>
  <path fill="url(#rainblue)" class="ColorScheme-Text" d="M 6.002,0.9902 C 5.002,0.9902 5.002,1.9902 5.002,1.9902 H 2.002 C 2.002,1.9902 1,1.9937 1,2.9941 V 2.9961 3.9961 L 14,3.9941 V 2.9941 C 14,1.9941 13.002,1.9902 13.002,1.9902 H 10.002 C 10.002,1.9902 10.002,0.9902 9.002,0.9902 Z M 2,4.9961 C 2,4.9961 0.9612,8.3 1.002,10 1.032,11.38 2.002,14 2.002,14 2.002,14.524 2.4784,15 3.002,15 H 11.002 12.002 C 12.526,15 13.002,14.524 13.002,14 13.002,14 13.969,11.377 14.002,10.004 14.042,8.304 13.002,5.0039 13.002,5.0039 Z"/>
</svg>
