<svg xmlns="http://www.w3.org/2000/svg" width="16" height="16" version="1.1">
 <defs>
  <style id="current-color-scheme" type="text/css">
    .ColorScheme-Text { color: #d3dae3; } .ColorScheme-Highlight { color:#5294e2; }
  </style>
  <linearGradient id="rainblue" x1="0%" x2="0%" y1="0%" y2="100%">
    <stop offset="0%" style="stop-color:#00F260; stop-opacity:1"/>
    <stop offset="100%" style="stop-color:#0575E6; stop-opacity:1"/>
  </linearGradient>
 </defs>
  <path fill="url(#rainblue)" class="ColorScheme-Text" d="M 7.5,1 A 4.5,4.5 0 0 0 3,5.5 4.5,4.5 0 0 0 6,9.7363 V 14 L 7.5,16 9,14 10,13.5 9,12.801 V 12.051 L 10,11.051 9,10.051 V 9.7363 A 4.5,4.5 0 0 0 12,5.5 4.5,4.5 0 0 0 7.5,1 Z M 7.5,2 A 1.5,1.5 0 0 1 9,3.5 1.5,1.5 0 0 1 7.5,5 1.5,1.5 0 0 1 6,3.5 1.5,1.5 0 0 1 7.5,2 Z M 7,10 H 7.5 8 V 14 H 7 Z"/>
</svg>
