<svg xmlns="http://www.w3.org/2000/svg" width="16" height="16" version="1.1">
 <defs>
  <style id="current-color-scheme" type="text/css">
    .ColorScheme-Text { color: #d3dae3; } .ColorScheme-Highlight { color:#5294e2; }
  </style>
  <linearGradient id="arrongin" x1="0%" x2="0%" y1="0%" y2="100%">
    <stop offset="0%" style="stop-color:#dd9b44; stop-opacity:1"/>
    <stop offset="100%" style="stop-color:#ad6c16; stop-opacity:1"/>
  </linearGradient>
 </defs>
  <path fill="url(#arrongin)" class="ColorScheme-Text" d="M 8,1 C 4.14,1 1,4.137 1,8 1,11.863 4.14,15 8,15 11.86,15 15,11.863 15,8 15,4.137 11.86,1 8,1 Z M 8,3 C 9.02,3 9.96,3.287 10.75,3.812 L 3.81,10.75 C 3.29,9.959 3,9.019 3,8 3,5.24 5.24,3 8,3 Z M 12.19,5.25 C 12.71,6.041 13,6.98 13,8 13,10.759 10.76,13 8,13 6.98,13 6.04,12.712 5.25,12.187 Z"/>
</svg>
