<svg xmlns="http://www.w3.org/2000/svg" width="16" height="16" version="1.1">
 <defs>
  <style id="current-color-scheme" type="text/css">
    .ColorScheme-Text { color: #d3dae3; } .ColorScheme-Highlight { color:#5294e2; }
  </style>
  <linearGradient id="arrongin" x1="0%" x2="0%" y1="0%" y2="100%">
    <stop offset="0%" style="stop-color:#dd9b44; stop-opacity:1"/>
    <stop offset="100%" style="stop-color:#ad6c16; stop-opacity:1"/>
  </linearGradient>
 </defs>
  <path fill="url(#arrongin)" class="ColorScheme-Text" d="M 3,1 C 1.89,1 1,1.892 1,3 V 6 H 3 V 3 H 13 V 13 H 3 V 10 H 1 V 13 C 1,14.108 1.89,15 3,15 H 13 C 14.11,15 15,14.108 15,13 V 3 C 15,1.892 14.11,1 13,1 Z"/>
  <path fill="url(#arrongin)" class="ColorScheme-Text" d="M 7.21,4 5.83,5.386 7.46,7.021 0,7 V 9 L 7.46,9.021 5.83,10.655 7.21,12.041 11.21,8 Z"/>
</svg>
