<svg xmlns="http://www.w3.org/2000/svg" width="16" height="16" version="1.1">
 <defs>
  <style id="current-color-scheme" type="text/css">
    .ColorScheme-Text { color: #d3dae3; } .ColorScheme-Highlight { color:#5294e2; }
  </style>
  <linearGradient id="arrongin" x1="0%" x2="0%" y1="0%" y2="100%">
    <stop offset="0%" style="stop-color:#dd9b44; stop-opacity:1"/>
    <stop offset="100%" style="stop-color:#ad6c16; stop-opacity:1"/>
  </linearGradient>
 </defs>
  <path fill="url(#arrongin)" class="ColorScheme-Text" d="M 6,11 V 9 H 5 C 4,9 4,10 4,10 V 14 H 2 V 10 C 2,7 5,7 5,7 H 6 V 5 L 10.5,8 Z"/>
  <path fill="url(#arrongin)" class="ColorScheme-Text" d="M 13,15 C 13,15 14,15 14,14 V 2 C 14,1 13,1 13,1 H 3 C 3,1 2,1 2,2 V 6 H 4 V 3 H 12 V 13 H 4 2 V 14 C 2,15 3,15 3,15 Z"/>
</svg>
