<svg xmlns="http://www.w3.org/2000/svg" width="16" height="16" version="1.1">
 <defs>
  <style id="current-color-scheme" type="text/css">
    .ColorScheme-Text { color: #d3dae3; } .ColorScheme-Highlight { color:#5294e2; }
  </style>
  <linearGradient id="arrongin" x1="0%" x2="0%" y1="0%" y2="100%">
    <stop offset="0%" style="stop-color:#dd9b44; stop-opacity:1"/>
    <stop offset="100%" style="stop-color:#ad6c16; stop-opacity:1"/>
  </linearGradient>
 </defs>
  <path fill="url(#arrongin)" class="ColorScheme-Text" d="M 10,2 A 2,2 0 0 0 8,0 2,2 0 0 0 6,2 2,2 0 0 0 8,4 2,2 0 0 0 10,2 Z M 10,8 A 2,2 0 0 0 8,6 2,2 0 0 0 6,8 2,2 0 0 0 8,10 2,2 0 0 0 10,8 Z M 10,14 A 2,2 0 0 0 8,12 2,2 0 0 0 6,14 2,2 0 0 0 8,16 2,2 0 0 0 10,14 Z"/>
</svg>
