<svg xmlns="http://www.w3.org/2000/svg" width="22" height="22" version="1.1">
 <defs>
  <style id="current-color-scheme" type="text/css">
    .ColorScheme-Text { color: #d3dae3; } .ColorScheme-Highlight { color:#5294e2; }
  </style>
  <linearGradient id="90ssummer" x1="0%" x2="0%" y1="0%" y2="100%">
    <stop offset="0%" style="stop-color:#f618c7; stop-opacity:1"/>
    <stop offset="100%" style="stop-color:#94ffab; stop-opacity:1"/>
    <stop offset="0%" style="stop-color:#fbfd54; stop-opacity:1"/>
    <stop offset="100%" style="stop-color:#0f83ae; stop-opacity:1"/>
  </linearGradient>
 </defs>
 <rect fill="url(#90ssummer)" class="ColorScheme-Text" width="7" height="2" x="3" y="17" rx=".538" ry=".5"/>
 <rect fill="url(#90ssummer)" class="ColorScheme-Text" opacity="0.3" width="7" height="2" x="3" y="15" rx=".538" ry=".5"/>
 <rect fill="url(#90ssummer)" class="ColorScheme-Text" width="7" height="2" x="3" y="13" rx=".538" ry=".5"/>
 <rect fill="url(#90ssummer)" class="ColorScheme-Text" opacity="0.3" width="7" height="2" x="3" y="11" rx=".538" ry=".5"/>
 <rect fill="url(#90ssummer)" class="ColorScheme-Text" width="7" height="2" x="3" y="9" rx=".538" ry=".5"/>
 <rect fill="url(#90ssummer)" class="ColorScheme-Text" opacity="0.3" width="7" height="2" x="3" y="7" rx=".538" ry=".5"/>
 <rect fill="url(#90ssummer)" class="ColorScheme-Text" width="7" height="2" x="3" y="5" rx=".538" ry=".5"/>
 <rect fill="url(#90ssummer)" class="ColorScheme-Text" opacity="0.3" width="7" height="2" x="3" y="3" rx=".538" ry=".5"/>
 <rect fill="url(#90ssummer)" class="ColorScheme-Text" opacity="0.3" width="7" height="2" x="12" y="17" rx=".538" ry=".5"/>
 <rect fill="url(#90ssummer)" class="ColorScheme-Text" width="7" height="2" x="12" y="15" rx=".538" ry=".5"/>
 <rect fill="url(#90ssummer)" class="ColorScheme-Text" opacity="0.3" width="7" height="2" x="12" y="13" rx=".538" ry=".5"/>
 <rect fill="url(#90ssummer)" class="ColorScheme-Text" width="7" height="2" x="12" y="11" rx=".538" ry=".5"/>
  <path fill="url(#90ssummer)" class="ColorScheme-Text" d="m 15,2 v 1 h -2 v 1 h 6 V 3 H 17 V 2 Z m -1,3 v 4 h 4 V 5 Z"/>
</svg>
