<svg xmlns="http://www.w3.org/2000/svg" width="22" height="22" version="1.1">
 <defs>
  <style id="current-color-scheme" type="text/css">
    .ColorScheme-Text { color: #d3dae3; } .ColorScheme-Highlight { color:#5294e2; }
  </style>
  <linearGradient id="90ssummer" x1="0%" x2="0%" y1="0%" y2="100%">
    <stop offset="0%" style="stop-color:#f618c7; stop-opacity:1"/>
    <stop offset="100%" style="stop-color:#94ffab; stop-opacity:1"/>
    <stop offset="0%" style="stop-color:#fbfd54; stop-opacity:1"/>
    <stop offset="100%" style="stop-color:#0f83ae; stop-opacity:1"/>
  </linearGradient>
 </defs>
  <path fill="url(#90ssummer)" class="ColorScheme-Text" d="M 3 1.0097656 C 1.892 1.0097656 1 1.9017656 1 3.0097656 L 1 13.009766 C 1 14.117766 1.892 15.009766 3 15.009766 L 13 15.009766 C 14.108 15.009766 15 14.117766 15 13.009766 L 15 3.0097656 C 15 1.9017656 14.108 1.0097656 13 1.0097656 L 3 1.0097656 z M 8 4.0097656 C 9.1046 4.0097656 10 4.9052356 10 6.0097656 C 10 7.1142956 9.10458 8.0097656 8 8.0097656 C 6.89542 8.0097656 6 7.1142956 6 6.0097656 C 6 4.9052356 6.89543 4.0097656 8 4.0097656 z M 8 9.0097656 C 11.9998 9.0077656 12 11.677734 12 11.677734 L 12 12.009766 L 4 12.009766 L 4 11.677734 C 4 11.677734 3.99985 9.0120656 8 9.0097656 z" transform="translate(3 3)"/>
</svg>
