<svg xmlns="http://www.w3.org/2000/svg" width="22" height="22" version="1.1">
 <defs>
  <style id="current-color-scheme" type="text/css">
    .ColorScheme-Text { color: #d3dae3; } .ColorScheme-Highlight { color:#5294e2; }
  </style>
  <linearGradient id="90ssummer" x1="0%" x2="0%" y1="0%" y2="100%">
    <stop offset="0%" style="stop-color:#f618c7; stop-opacity:1"/>
    <stop offset="100%" style="stop-color:#94ffab; stop-opacity:1"/>
    <stop offset="0%" style="stop-color:#fbfd54; stop-opacity:1"/>
    <stop offset="100%" style="stop-color:#0f83ae; stop-opacity:1"/>
  </linearGradient>
 </defs>
  <path fill="url(#90ssummer)" class="ColorScheme-Text" d="M 2 2 A 1.0001 1.0001 0 0 0 1 3 L 1 4 A 1.0001 1.0001 0 0 0 2 5 L 5 5 L 5 11 L 2 11 A 1.0001 1.0001 0 0 0 1 12 L 1 13 A 1.0001 1.0001 0 0 0 2 14 L 7 14 A 1.0001 1.0001 0 0 0 8 13 L 8 10 L 10 10 L 10 12 L 15 8 L 10 4 L 10 6 L 8 6 L 8 3 A 1.0001 1.0001 0 0 0 7 2 L 2 2 z" transform="translate(3 3)"/>
</svg>
