<svg xmlns="http://www.w3.org/2000/svg" width="24" height="24" version="1.1">
 <defs>
  <style id="current-color-scheme" type="text/css">
    .ColorScheme-Text { color: #d3dae3; } .ColorScheme-Highlight { color:#5294e2; }
  </style>
  <linearGradient id="90ssummer" x1="0%" x2="0%" y1="0%" y2="100%">
    <stop offset="0%" style="stop-color:#f618c7; stop-opacity:1"/>
    <stop offset="100%" style="stop-color:#94ffab; stop-opacity:1"/>
    <stop offset="0%" style="stop-color:#fbfd54; stop-opacity:1"/>
    <stop offset="100%" style="stop-color:#0f83ae; stop-opacity:1"/>
  </linearGradient>
 </defs>
  <path fill="url(#90ssummer)" class="ColorScheme-Text" d="M 2 1 C 1 1 1 2 1 2 L 1 14 C 1 15 2 15 2 15 L 9 15 L 9 13 L 3 13 L 3 6 L 13 6 L 13 9 L 15 9 L 15 2 C 15 1 14 1 14 1 L 2 1 z M 12 10 L 12 12 L 10 12 L 10 14 L 12 14 L 12 16 L 14 16 L 14 14 L 16 14 L 16 12 L 14 12 L 14 10 L 12 10 z" transform="translate(4 4)"/>
</svg>
