<svg xmlns="http://www.w3.org/2000/svg" width="16" height="16" version="1.1">
 <defs>
  <style id="current-color-scheme" type="text/css">
    .ColorScheme-Text { color: #d3dae3; } .ColorScheme-Highlight { color:#5294e2; }
  </style>
  <linearGradient id="sunrise" x1="0%" x2="0%" y1="0%" y2="100%">
    <stop offset="0%" style="stop-color:#FF8501; stop-opacity:1"/>
    <stop offset="100%" style="stop-color:#FFCB01; stop-opacity:1"/>
  </linearGradient>
 </defs>
  <path fill="url(#sunrise)" class="ColorScheme-Text" d="m 8.2106252,0.0425159 a 7.9866245,7.9876399 0 0 0 -7.14112,3.99953 c -2.19375,3.81669 -0.87978004,8.7189901 2.93643,10.9244401 3.82764,2.20546 8.7292998,0.90275 10.9344798,-2.91394 2.20518,-3.8167001 0.87978,-8.7189901 -2.93643,-10.9358701 a 7.9751988,7.9762128 0 0 0 -3.7933598,-1.07416 z m -0.20566,1.14272 a 6.8554717,6.8563433 0 0 1 6.8554698,6.85635 6.8554717,6.8563433 0 0 1 -6.8554698,6.8563401 6.8554717,6.8563433 0 0 1 -6.85547,-6.8563401 6.8554717,6.8563433 0 0 1 6.85547,-6.85635 z"/>
</svg>
