<svg xmlns="http://www.w3.org/2000/svg" width="16" height="16" version="1.1">
 <defs>
  <style id="current-color-scheme" type="text/css">
    .ColorScheme-Text { color: #d3dae3; } .ColorScheme-Highlight { color:#5294e2; }
  </style>
  <linearGradient id="sunrise" x1="0%" x2="0%" y1="0%" y2="100%">
    <stop offset="0%" style="stop-color:#FF8501; stop-opacity:1"/>
    <stop offset="100%" style="stop-color:#FFCB01; stop-opacity:1"/>
  </linearGradient>
 </defs>
  <path fill="url(#sunrise)" class="ColorScheme-Text" d="M 0.5 0.578125 L 0.5 1.078125 L 0.5 1.578125 L 0.5 15.578125 L 15.5 15.578125 L 15.5 0.578125 L 1.5 0.578125 L 0.5 0.578125 z M 1.5 1.578125 L 4 1.578125 L 4 1.6230469 L 4 10.078125 L 4.5 10.078125 L 4.5 14.578125 L 1.5 14.578125 L 1.5 1.578125 z M 6 1.578125 L 10 1.578125 L 10 1.6230469 L 10 10.078125 L 10.5 10.078125 L 10.5 14.578125 L 5.5 14.578125 L 5.5 10.078125 L 6 10.078125 L 6 1.578125 z M 12 1.578125 L 14.5 1.578125 L 14.5 14.578125 L 11.5 14.578125 L 11.5 10.078125 L 12 10.078125 L 12 1.578125 z"/>
</svg>
