<svg xmlns="http://www.w3.org/2000/svg" width="16" height="16" version="1.1">
 <defs>
  <style id="current-color-scheme" type="text/css">
    .ColorScheme-Text { color: #d3dae3; } .ColorScheme-Highlight { color:#5294e2; }
  </style>
  <linearGradient id="sunrise" x1="0%" x2="0%" y1="0%" y2="100%">
    <stop offset="0%" style="stop-color:#FF8501; stop-opacity:1"/>
    <stop offset="100%" style="stop-color:#FFCB01; stop-opacity:1"/>
  </linearGradient>
 </defs>
  <path fill="url(#sunrise)" class="ColorScheme-Text" d="m 8.0010004,0 c -4.424,0 -8,3.576 -8,8 0,4.424 3.576,8 8,8 C 12.425,16 16.001,12.424 16.001,8 16.001,3.576 12.425,0 8.0010004,0 Z m 0,1 C 11.871,1 15.001,4.13 15.001,8 c 0,3.87 -3.13,7 -6.9999996,7 -3.87,0 -7,-3.13 -7,-7 0,-3.87 3.13,-7 7,-7 z m 1,2 -3.5,6 h 2 l -0.5,4 L 10.501,7 H 8.5010004 Z" color="#d3dae3" overflow="visible"/>
</svg>
