<svg xmlns="http://www.w3.org/2000/svg" width="16" height="16" version="1.1">
 <defs>
  <style id="current-color-scheme" type="text/css">
    .ColorScheme-Text { color: #d3dae3; } .ColorScheme-Highlight { color:#5294e2; }
  </style>
  <linearGradient id="oomox" x1="0%" x2="0%" y1="0%" y2="100%">
    <stop offset="0%" style="stop-color:#a4d8d4; stop-opacity:1"/>
    <stop offset="100%" style="stop-color:#318c85; stop-opacity:1"/>
  </linearGradient>
 </defs>
  <path fill="url(#oomox)" class="ColorScheme-Text" d="m 7.9875,0 a 8,8 0 0 0 -7.4,4.97083 L 5.89791,5.88125 5.71875,6.93333 0.25416,5.99583 A 8,8 0 0 0 0.0125,7.46667 H 5.85416 V 8.53333 H 0.01458 a 8,8 0 0 0 0.24167,1.46875 L 5.71875,9.06667 5.89791,10.11875 0.6,11.02708 A 8,8 0 0 0 7.9875,16 a 8,8 0 0 0 8,-8 8,8 0 0 0 -8,-8 z"/>
</svg>
