<svg xmlns="http://www.w3.org/2000/svg" width="16" height="16" version="1.1">
 <defs>
  <style id="current-color-scheme" type="text/css">
    .ColorScheme-Text { color: #d3dae3; } .ColorScheme-Highlight { color:#5294e2; }
  </style>
  <linearGradient id="bark" x1="0%" x2="0%" y1="0%" y2="100%">
    <stop offset="0%" style="stop-color:#9D9D87; stop-opacity:1"/>
    <stop offset="100%" style="stop-color:#52523F; stop-opacity:1"/>
  </linearGradient>
 </defs>
  <path fill="url(#bark)" class="ColorScheme-Text" d="M 7.467,2 A 5.3333,5.4545 0 0 0 2.4191,5.7073 4.2667,4.3636 0 0 0 3e-4,9.636 4.2667,4.3636 0 0 0 4.267,14 4.2667,4.3636 0 0 0 7.102,12.889 5.3333,5.4545 0 0 0 7.467,12.909 5.3333,5.4545 0 0 0 9.721,12.391 4.2667,4.3636 0 0 0 11.734,12.909 4.2667,4.3636 0 0 0 16,8.544 4.2667,4.3636 0 0 0 11.733,4.1808 4.2667,4.3636 0 0 0 11.724,4.1808 5.3333,5.4545 0 0 0 7.466,1.999 Z"/>
</svg>
