<svg xmlns="http://www.w3.org/2000/svg" width="16" height="16" version="1.1">
 <defs>
  <style id="current-color-scheme" type="text/css">
    .ColorScheme-Text { color: #d3dae3; } .ColorScheme-Highlight { color:#5294e2; }
  </style>
  <linearGradient id="bark" x1="0%" x2="0%" y1="0%" y2="100%">
    <stop offset="0%" style="stop-color:#9D9D87; stop-opacity:1"/>
    <stop offset="100%" style="stop-color:#52523F; stop-opacity:1"/>
  </linearGradient>
 </defs>
  <path fill="url(#bark)" class="ColorScheme-Text" opacity="0.3" d="M 2.7589,1 C 2.3385,1 2,1.3122 2,1.7 V 14.3 C 2,14.688 2.3385,15 2.7589,15 H 5 V 1 Z"/>
  <path fill="url(#bark)" class="ColorScheme-Text" d="M 5,1 V 15 H 13.25 C 13.666,15 14,14.686 14,14.299 V 1.7012 C 14,1.3134 13.666,1 13.25,1 H 7.9922 Z M 7.5,4 H 11.5 C 11.899,4.0001 12.137,4.4451 11.916,4.7773 L 8.4336,11 H 11.5 C 12.176,10.99 12.176,12.01 11.5,12 H 7.5 C 7.101,12 6.863,11.555 7.084,11.223 L 10.566,5 H 7.5 C 6.8238,5.0096 6.8238,3.9904 7.5,4 Z"/>
</svg>
