<svg xmlns="http://www.w3.org/2000/svg" width="24" height="24" version="1.1">
 <defs>
  <style id="current-color-scheme" type="text/css">
    .ColorScheme-Text { color: #d3dae3; } .ColorScheme-Highlight { color:#5294e2; }
  </style>
  <linearGradient id="cyberneon" x1="0%" x2="0%" y1="0%" y2="100%">
    <stop offset="0%" style="stop-color:#0abdc6; stop-opacity:1"/>
    <stop offset="100%" style="stop-color:#ea00d9; stop-opacity:1"/>
  </linearGradient>
 </defs>
  <path fill="currentColor" fill-rule="evenodd" opacity=".3" class="ColorScheme-Text" d="m 19,13 c 0,-0.554 -0.446,-1 -1,-1 H 5 c -0.554,0 -1,0.446 -1,1 v 5 c 0,0.554 0.446,1 1,1 h 13 c 0.554,0 1,-0.446 1,-1 z m -3,0 v 1 h -1 v -1 z m 0,2 v 1 h -1 v -1 z m -1,2 v 1 H 8.0000002 v -1 z m -1,-4 v 1 h -1 v -1 z m 0,2 v 1 h -1 v -1 z m -2,-2 v 1 h -1 v -1 z m 0,2 v 1 h -1 v -1 z m -2,-2 v 1 H 9.0000002 v -1 z m 0,2 v 1 H 9.0000002 V 15 Z M 8.0000002,13 v 1 h -1 v -1 z m 0,2 v 1 h -1 v -1 z"/>
  <path fill="currentColor" class="ColorScheme-Highlight" d="m 11,5 v 4 h 2 V 5 Z m 0,5 v 1 h 2 v -1 z"/>
</svg>
