<svg xmlns="http://www.w3.org/2000/svg" width="24" height="24" version="1.1">
 <defs>
  <style id="current-color-scheme" type="text/css">
    .ColorScheme-Text { color: #d3dae3; } .ColorScheme-Highlight { color:#5294e2; }
  </style>
  <linearGradient id="cyberneon" x1="0%" x2="0%" y1="0%" y2="100%">
    <stop offset="0%" style="stop-color:#0abdc6; stop-opacity:1"/>
    <stop offset="100%" style="stop-color:#ea00d9; stop-opacity:1"/>
  </linearGradient>
 </defs>
 <g transform="translate(0 -1028.4)">
  <path fill="url(#cyberneon)" class="ColorScheme-Text" d="m11 1032.4a7 8 0 0 0 -7 8 7 8 0 0 0 7 8 7 8 0 0 0 3.7949 -1.2852l-1.2812-1.5371a5 6 0 0 1 -2.514 0.8 5 6 0 0 1 -5 -6 5 6 0 0 1 5 -6 5 6 0 0 1 4.2383 2.8242l2.7422 2.7422a7 8 0 0 0 -6.98 -7.5zm3 5 2 4.5-3 1.5 5 6-2-5 3-2-5-5z"/>
 </g>
</svg>
