<svg xmlns="http://www.w3.org/2000/svg" width="22" height="22" version="1.1">
 <defs>
  <style id="current-color-scheme" type="text/css">
    .ColorScheme-Text { color: #d3dae3; } .ColorScheme-Highlight { color:#5294e2; }
  </style>
  <linearGradient id="grey" x1="0%" x2="0%" y1="0%" y2="100%">
    <stop offset="0%" style="stop-color:#8C8C8C; stop-opacity:1"/>
    <stop offset="100%" style="stop-color:#4B4B4B; stop-opacity:1"/>
  </linearGradient>
 </defs>
 <g transform="translate(-385 125)">
  <path fill="url(#grey)" class="ColorScheme-Text" d="m10.912 3.002a1.6243 1.8185 0 0 0 -1.3182 0.9062l-3.1876 6.1818-3.1894 6.181a1.6243 1.8185 0 0 0 -0.2168 0.868 1.6243 1.8185 0 0 0 1.623 1.861h6.377 6.375a1.6243 1.8185 0 0 0 1.406 -2.729l-3.187-6.181-3.188-6.1818a1.6243 1.8185 0 0 0 -1.332 -0.9062 1.6243 1.8185 0 0 0 -0.162 0zm-0.912 3.998h2v7h-2v-7zm0 8h2v2h-2v-2z" transform="translate(385 -125)"/>
 </g>
</svg>
