<svg xmlns="http://www.w3.org/2000/svg" width="22" height="22" version="1.1">
 <defs>
  <style id="current-color-scheme" type="text/css">
    .ColorScheme-Text { color: #d3dae3; } .ColorScheme-Highlight { color:#5294e2; }
  </style>
  <linearGradient id="sage" x1="0%" x2="0%" y1="0%" y2="100%">
    <stop offset="0%" style="stop-color:#919D87; stop-opacity:1"/>
    <stop offset="100%" style="stop-color:#49594C; stop-opacity:1"/>
  </linearGradient>
 </defs>
  <path fill="url(#sage)" class="ColorScheme-Text" d="m 6.0002645,4 c -2.0002645,0 -2,2 -2,2 l 0,12 L 18,18 18.000264,6 c 4.4e-5,-2 -2,-2 -2,-2 z m 0,2 9.9999995,0 0,10 -9.9999995,0 z m 1,1 0,2 2,0 0,-2 z m 3.0000995,0 0,2 2,0 0,-2 z m 3,0 0,2 2,0 0,-2 z m -6.0000995,3 0,2 2,0 0,-2 z m 3.0000995,0 0,2 2,0 0,-2 z m 3,0 0,2 2,0 0,-2 z m -6.0000995,3 0,2 2,0 0,-2 z m 3.0000995,0 0,2 2,0 0,-2 z m 3,0 0,2 2,0 0,-2 z"/>
</svg>
