<svg xmlns="http://www.w3.org/2000/svg" width="16" height="16" version="1.1">
 <defs>
  <style id="current-color-scheme" type="text/css">
    .ColorScheme-Text { color: #d3dae3; } .ColorScheme-Highlight { color:#5294e2; }
  </style>
  <linearGradient id="telinkrin" x1="0%" x2="0%" y1="0%" y2="100%">
    <stop offset="0%" style="stop-color:#b2ced6; stop-opacity:1"/>
    <stop offset="100%" style="stop-color:#6da5b7; stop-opacity:1"/>
  </linearGradient>
 </defs>
 <rect fill="url(#telinkrin)" class="ColorScheme-Text" width="4.625" height="3.594" x="17.09" y="-.09" transform="matrix(1,0,0,1,0,0)"/>
  <path fill="url(#telinkrin)" class="ColorScheme-Text" d="M 11.274 0 L 6.95 2.95 L 10.225 8.4 L 14.874 6 L 11.274 0 Z M 6.625 4.15 L 3.825 6.15 L 5.899 9.675 L 9.025 8.075 L 6.625 4.15 Z M 3.374 7.2 L 1.126 8.55 L 2.55 10.95 L 4.825 9.6 L 3.374 7.2 Z M 8.15 10 L 6.55 10.95 L 6.55 11.2 L 4.15 15.2 L 5.75 15.2 L 6.55 13.85 L 6.55 16 L 8.15 16 L 8.15 13.85 L 8.95 15.2 L 10.55 15.2 L 8.15 11.2 L 8.15 10 Z"/>
</svg>
