<svg xmlns="http://www.w3.org/2000/svg" width="24" height="24" version="1.1">
 <defs>
  <style id="current-color-scheme" type="text/css">
    .ColorScheme-Text { color: #d3dae3; } .ColorScheme-Highlight { color:#5294e2; }
  </style>
  <linearGradient id="bark" x1="0%" x2="0%" y1="0%" y2="100%">
    <stop offset="0%" style="stop-color:#9D9D87; stop-opacity:1"/>
    <stop offset="100%" style="stop-color:#52523F; stop-opacity:1"/>
  </linearGradient>
 </defs>
 <g transform="translate(-56 -620.36)">
  <path fill="currentColor" opacity=".35" class="ColorScheme-Text" d="m75 625.37-14 14h8v-4.004h1.0137c0.01965-1.6349 1.3425-3 2.9863-3 0.77442 0 1.4708 0.30948 2 0.80078z"/>
  <path fill="url(#bark)" class="ColorScheme-Text" d="m72 628.37-11 11h8v-4.004h1.0137c0.01543-1.2841 0.83892-2.392 1.9863-2.8125v-4.1836z"/>
  <path fill="url(#bark)" class="ColorScheme-Text" d="m73 633.36c-1.108 0-2 0.91085-2 2.0312v0.96875h-1v4h6v-4h-1v-0.96875c0-1.1199-0.892-2.0312-2-2.0312zm0 1c0.554 0 1 0.4424 1 1v1h-2v-1c0-0.5576 0.446-1 1-1z"/>
 </g>
</svg>
