<svg xmlns="http://www.w3.org/2000/svg" width="16" height="16" version="1.1">
 <defs>
  <style id="current-color-scheme" type="text/css">
    .ColorScheme-Text { color: #d3dae3; } .ColorScheme-Highlight { color:#5294e2; }
  </style>
  <linearGradient id="bark" x1="0%" x2="0%" y1="0%" y2="100%">
    <stop offset="0%" style="stop-color:#9D9D87; stop-opacity:1"/>
    <stop offset="100%" style="stop-color:#52523F; stop-opacity:1"/>
  </linearGradient>
 </defs>
  <path fill="url(#bark)" class="ColorScheme-Text" d="M 5.892 5.892 C 5.84 5.634 5.818 5.365 5.818 5.091 C 5.818 2.269 8.087 0 10.909 0 L 16 0 L 16 5.091 C 16 7.913 13.731 10.182 10.909 10.182 C 10.635 10.182 10.366 10.16 10.108 10.108 C 10.16 10.366 10.182 10.635 10.182 10.909 C 10.182 13.731 7.913 16 5.091 16 L 0 16 L 0 10.909 C 0 8.087 2.269 5.818 5.091 5.818 C 5.365 5.818 5.634 5.84 5.892 5.892 Z"/>
</svg>
