<svg xmlns="http://www.w3.org/2000/svg" width="16" height="16" version="1.1">
 <defs>
  <style id="current-color-scheme" type="text/css">
    .ColorScheme-Text { color: #d3dae3; } .ColorScheme-Highlight { color:#5294e2; }
  </style>
  <linearGradient id="sunrise" x1="0%" x2="0%" y1="0%" y2="100%">
    <stop offset="0%" style="stop-color:#FF8501; stop-opacity:1"/>
    <stop offset="100%" style="stop-color:#FFCB01; stop-opacity:1"/>
  </linearGradient>
 </defs>
  <path fill="url(#sunrise)" class="ColorScheme-Text" d="M 1,14.5 V 6.5 C 1,6 1.52,6 1.52,6 H 5 V 9 H 3 V 13 H 9 V 11 H 11 V 14.5 C 11,14.98 10.5,15 10.5,15 H 1.5 C 1.5,15 1,15 1,14.5 Z"/>
  <path fill="url(#sunrise)" class="ColorScheme-Text" d="M 6.5,1 C 6,1 6,1.5 6,1.5 V 9.5 C 6,10 6.5,10 6.5,10 H 15.5 C 15.5,10 16,10 16,9.5 V 1.5 C 16,1 15.5,1 15.5,1 Z M 8,4 H 14 V 8 H 8 Z"/>
</svg>
