<svg xmlns="http://www.w3.org/2000/svg" width="16" height="16" version="1.1">
 <defs>
  <style id="current-color-scheme" type="text/css">
    .ColorScheme-Text { color: #d3dae3; } .ColorScheme-Highlight { color:#5294e2; }
  </style>
  <linearGradient id="sunrise" x1="0%" x2="0%" y1="0%" y2="100%">
    <stop offset="0%" style="stop-color:#FF8501; stop-opacity:1"/>
    <stop offset="100%" style="stop-color:#FFCB01; stop-opacity:1"/>
  </linearGradient>
 </defs>
  <path fill="url(#sunrise)" class="ColorScheme-Text" d="M 5,2 4,3 H 3 C 1,3 1,5 1,5 V 12 C 1,14 3,14 3,14 H 13 C 15,14 15,12 15,12 V 5 C 15,3 13,3 13,3 H 12 L 11,2 Z M 8,5 C 9.66,5 11,6.343 11,8 11,9.657 9.66,11 8,11 6.34,11 5,9.657 5,8 5,6.343 6.34,5 8,5 Z"/>
</svg>
