<svg xmlns="http://www.w3.org/2000/svg" width="16" height="16" version="1.1">
 <defs>
  <style id="current-color-scheme" type="text/css">
    .ColorScheme-Text { color: #d3dae3; } .ColorScheme-Highlight { color:#5294e2; }
  </style>
  <linearGradient id="cyberneon" x1="0%" x2="0%" y1="0%" y2="100%">
    <stop offset="0%" style="stop-color:#0abdc6; stop-opacity:1"/>
    <stop offset="100%" style="stop-color:#ea00d9; stop-opacity:1"/>
  </linearGradient>
 </defs>
  <path fill="url(#cyberneon)" class="ColorScheme-Text" d="M 4.659 2.667 C 4.368 2.671 4.113 2.863 4.029 3.141 L 2.172 9.334 L 0.667 9.334 L 0 9.334 L 0 10.667 L 0.667 10.667 L 2.667 10.667 C 2.961 10.667 3.22 10.475 3.305 10.194 L 4.656 5.688 L 6.734 12.852 C 6.815 13.129 7.064 13.322 7.351 13.332 C 7.639 13.342 7.9 13.167 8 12.897 L 9.427 9.011 L 10.07 10.298 C 10.183 10.524 10.414 10.667 10.667 10.667 L 15.333 10.667 L 16 10.667 L 16 9.334 L 15.333 9.334 L 11.078 9.334 L 9.93 7.037 C 9.811 6.8 9.562 6.656 9.297 6.67 C 9.032 6.685 8.8 6.856 8.708 7.105 L 7.448 10.532 L 5.307 3.149 C 5.224 2.861 4.959 2.664 4.659 2.667 L 4.659 2.667 Z"/>
</svg>
