<svg xmlns="http://www.w3.org/2000/svg" width="16" height="16" version="1.1">
 <defs>
  <style id="current-color-scheme" type="text/css">
    .ColorScheme-Text { color: #d3dae3; } .ColorScheme-Highlight { color:#5294e2; }
  </style>
  <linearGradient id="telinkrin" x1="0%" x2="0%" y1="0%" y2="100%">
    <stop offset="0%" style="stop-color:#b2ced6; stop-opacity:1"/>
    <stop offset="100%" style="stop-color:#6da5b7; stop-opacity:1"/>
  </linearGradient>
 </defs>
  <path fill="url(#telinkrin)" class="ColorScheme-Text" d="M 4.6660156 1 C 3.7427156 1 3 1.7805 3 2.75 L 3 13.25 C 3 14.22 3.7427156 15 4.6660156 15 L 11.333984 15 C 12.256984 15 13 14.22 13 13.25 L 13 2.75 C 13 1.7805 12.256984 1 11.333984 1 L 4.6660156 1 z M 7 2 L 9 2 L 9 10 L 7 10 L 7 2 z M 7 11 L 9 11 L 9 13 L 7 13 L 7 11 z"/>
</svg>
