<svg xmlns="http://www.w3.org/2000/svg" width="16" height="16" version="1.1">
 <defs>
  <style id="current-color-scheme" type="text/css">
    .ColorScheme-Text { color: #d3dae3; } .ColorScheme-Highlight { color:#5294e2; }
  </style>
  <linearGradient id="sunrise" x1="0%" x2="0%" y1="0%" y2="100%">
    <stop offset="0%" style="stop-color:#FF8501; stop-opacity:1"/>
    <stop offset="100%" style="stop-color:#FFCB01; stop-opacity:1"/>
  </linearGradient>
 </defs>
  <path fill="url(#sunrise)" class="ColorScheme-Text" opacity="0.3" d="M 8,0.721 5.8105,3.0003 H 3 V 5.8108 L 0.7207,8.0003 3,10.221 V 13 H 5.8105 L 8,15.279 10.221,13 H 13 V 10.221 L 15.279,8.0003 13,6.0003 V 3.0003 H 10.221 Z M 8,4.0003 C 10.21,4.0003 12,5.7903 12,8.0003 12,10.21 10.21,12 8,12 5.79,12 4,10.21 4,8.0003 4,5.7903 5.79,4.0003 8,4.0003 Z M 8,5.0003 C 6.3431,5.0003 5,6.3434 5,8.0003 5,9.6572 6.3431,11 8,11 Z"/>
</svg>
