<svg xmlns="http://www.w3.org/2000/svg" width="16" height="16" version="1.1">
 <defs>
  <style id="current-color-scheme" type="text/css">
    .ColorScheme-Text { color: #d3dae3; } .ColorScheme-Highlight { color:#5294e2; }
  </style>
  <linearGradient id="sunrise" x1="0%" x2="0%" y1="0%" y2="100%">
    <stop offset="0%" style="stop-color:#FF8501; stop-opacity:1"/>
    <stop offset="100%" style="stop-color:#FFCB01; stop-opacity:1"/>
  </linearGradient>
 </defs>
  <path fill="url(#sunrise)" class="ColorScheme-Text" d="M 8,5 C 6.34,5 5,6.34 5,8 5,9.66 6.34,11 8,11 Z"/>
  <path fill="url(#sunrise)" class="ColorScheme-Text" opacity="0.3" d="M 8 0.7207 L 5.8105 3 L 3 3 L 3 5.8105 L 0.7207 8 L 3 10.221 L 3 13 L 5.8105 13 L 8 15.279 L 10.221 13 L 13 13 L 13 10.221 L 15.279 8 L 13 6 L 13 3 L 10.221 3 L 8 0.7207 z M 8 4 C 10.21 4 12 5.79 12 8 C 12 10.21 10.21 12 8 12 C 5.79 12 4 10.21 4 8 C 4 5.79 5.79 4 8 4 z"/>
</svg>
