<svg xmlns="http://www.w3.org/2000/svg" width="16" height="16" version="1.1">
 <defs>
  <style id="current-color-scheme" type="text/css">
    .ColorScheme-Text { color: #d3dae3; } .ColorScheme-Highlight { color:#5294e2; }
  </style>
  <linearGradient id="sunrise" x1="0%" x2="0%" y1="0%" y2="100%">
    <stop offset="0%" style="stop-color:#FF8501; stop-opacity:1"/>
    <stop offset="100%" style="stop-color:#FFCB01; stop-opacity:1"/>
  </linearGradient>
 </defs>
  <path fill="url(#sunrise)" class="ColorScheme-Text" d="M 8 1 C 7.45 1 7 1.45 7 2 C 7 2.03 6.9998 2.0696 7.0098 2.0996 C 6.513 2.1994 6.0506 2.385 5.6191 2.6191 L 13 10 L 13 9 L 13 7 C 13 4.57 11.28 2.5596 8.9902 2.0996 C 9.0002 2.0696 9 2.03 9 2 C 9 1.45 8.55 1 8 1 z M 4.0078 4.0078 C 3.3813 4.8419 3 5.8717 3 7 L 3 11.5 L 1 13.5 L 1 14 L 3 14 L 13 14 L 14 14 L 4.0078 4.0078 z M 6.2695 15 C 6.6295 15.62 7.29 16 8 16 C 8.71 16 9.3705 15.62 9.7305 15 L 6.2695 15 z"/>
  <path fill="url(#sunrise)" class="ColorScheme-Text" d="M 2.5,1.5 15,14 13.5,15.5 1,3 Z"/>
</svg>
