<svg xmlns="http://www.w3.org/2000/svg" width="16" height="16" version="1.1">
 <defs>
  <style id="current-color-scheme" type="text/css">
    .ColorScheme-Text { color: #d3dae3; } .ColorScheme-Highlight { color:#5294e2; }
  </style>
  <linearGradient id="fitdance" x1="0%" x2="0%" y1="0%" y2="100%">
    <stop offset="0%" style="stop-color:#1AD6AB; stop-opacity:1"/>
    <stop offset="100%" style="stop-color:#329DB6; stop-opacity:1"/>
  </linearGradient>
 </defs>
  <path fill="url(#fitdance)" class="ColorScheme-Text" d="M 4 1 C 4 1 2 1 2 3 L 2 8 L 9 15 L 16 8 L 9 1 L 4 1 z M 8 3 C 10.216 3 12 4.784 12 7 C 12 9.216 10.216 11 8 11 C 5.784 11 4 9.216 4 7 C 4 4.784 5.784 3 8 3 z M 8 4 C 6.338 4 5 5.338 5 7 C 5 8.662 6.338 10 8 10 C 9.662 10 11 8.662 11 7 C 11 5.338 9.662 4 8 4 z M 7 5 L 8 5 L 8 7 L 9 7 L 9 8 L 7 8 L 7 5 z"/>
</svg>
