<svg xmlns="http://www.w3.org/2000/svg" width="16" height="16" version="1.1">
 <defs>
  <style id="current-color-scheme" type="text/css">
    .ColorScheme-Text { color: #d3dae3; } .ColorScheme-Highlight { color:#5294e2; }
  </style>
  <linearGradient id="oomox" x1="0%" x2="0%" y1="0%" y2="100%">
    <stop offset="0%" style="stop-color:#a4d8d4; stop-opacity:1"/>
    <stop offset="100%" style="stop-color:#318c85; stop-opacity:1"/>
  </linearGradient>
 </defs>
  <path fill="url(#oomox)" class="ColorScheme-Text" opacity="0.3" d="M 4.5,3 C 2.02,3 0,5.02 0,7.5 0,9.99 2.02,12 4.5,12 6.41,12 8.1,10.8 8.74,9 H 11 V 6 H 8.74 C 8.1,4.21 6.41,3.01 4.5,3 Z M 15,6 V 9 H 16 V 6 Z M 4.5,6.01 C 5.33,6.01 6,6.68 6,7.51 6,8.33 5.33,9.01 4.5,9.01 3.68,9.01 3,8.33 3,7.51 3,6.68 3.68,6.01 4.5,6.01 Z"/>
  <path fill="currentColor" class="ColorScheme-Highlight warning" d="M 12,6 V 10 L 12.25,12 H 13.75 L 14,10 V 6 Z M 12,13 V 15 H 14 V 13 Z"/>
</svg>
