<svg xmlns="http://www.w3.org/2000/svg" width="22" height="22" version="1.1">
 <defs>
  <style id="current-color-scheme" type="text/css">
    .ColorScheme-Text { color: #d3dae3; } .ColorScheme-Highlight { color:#5294e2; }
  </style>
  <linearGradient id="bark" x1="0%" x2="0%" y1="0%" y2="100%">
    <stop offset="0%" style="stop-color:#9D9D87; stop-opacity:1"/>
    <stop offset="100%" style="stop-color:#52523F; stop-opacity:1"/>
  </linearGradient>
 </defs>
  <path fill="url(#bark)" class="ColorScheme-Text" d="m 4.99989,5 c -1.108,0 -2,0.892 -2,2 l 0,8 c 0,1.108 0.892,2 2,2 l 11,0 c -1.645,0 -3,-1.355 -3,-3 0,-1.645 1.355,-3 3,-3 1.645,0 3,1.355 3,3 l 0,-7 c 0,-1.108 -0.892,-2 -2,-2 l -12,0 z m 0,2 6,3 6,-3 0,2 -6,3 -6,-3 0,-2 z"/>
  <path fill="currentColor" class="ColorScheme-Highlight" d="m 15.99989,12 a 2,2 0 0 0 -2,2 2,2 0 0 0 2,2 2,2 0 0 0 2,-2 2,2 0 0 0 -2,-2 z"/>
</svg>
