<svg xmlns="http://www.w3.org/2000/svg" width="22" height="22" version="1.1">
 <defs>
  <style id="current-color-scheme" type="text/css">
    .ColorScheme-Text { color: #d3dae3; } .ColorScheme-Highlight { color:#5294e2; }
  </style>
  <linearGradient id="bark" x1="0%" x2="0%" y1="0%" y2="100%">
    <stop offset="0%" style="stop-color:#9D9D87; stop-opacity:1"/>
    <stop offset="100%" style="stop-color:#52523F; stop-opacity:1"/>
  </linearGradient>
 </defs>
 <g transform="translate(0 -1030.4)">
  <path fill="url(#bark)" class="ColorScheme-Text" d="m11 1032.4c-2.1276 0-4.0845 0.7343-5.625 1.9687l-1.8125-1.8125-1.4062 1.4063 1.8125 1.8125c-1.2343 1.5405-1.9688 3.4974-1.9688 5.625 0 4.9706 4.0294 9 9 9s9-4.0294 9-9c0-2.1276-0.73441-4.0845-1.9688-5.625l1.8125-1.8125-1.4062-1.4063-1.8125 1.8125c-1.5405-1.2344-3.4974-1.9687-5.625-1.9687zm0 2c3.866 0 7 3.134 7 7s-3.134 7-7 7-7-3.134-7-7 3.134-7 7-7z"/>
 </g>
</svg>
