<svg xmlns="http://www.w3.org/2000/svg" width="16" height="16" version="1.1">
 <defs>
  <style id="current-color-scheme" type="text/css">
    .ColorScheme-Text { color: #d3dae3; } .ColorScheme-Highlight { color:#5294e2; }
  </style>
  <linearGradient id="cyberneon" x1="0%" x2="0%" y1="0%" y2="100%">
    <stop offset="0%" style="stop-color:#0abdc6; stop-opacity:1"/>
    <stop offset="100%" style="stop-color:#ea00d9; stop-opacity:1"/>
  </linearGradient>
 </defs>
  <path fill="url(#cyberneon)" class="ColorScheme-Text" d="M 10.285156 1 L 10.285156 2.1660156 L 0 2.1660156 L 0 4.5 L 10.285156 4.5 L 10.285156 5.6660156 L 12.572266 5.6660156 L 12.572266 4.5 L 12.572266 2.1660156 L 12.572266 1 L 10.285156 1 z M 13.714844 2.1660156 L 13.714844 4.5 L 16 4.5 L 16 2.1660156 L 13.714844 2.1660156 z M 3.4277344 5.6660156 L 3.4277344 6.8339844 L 0 6.8339844 L 0 9.1660156 L 3.4277344 9.1660156 L 3.4277344 10.333984 L 5.7148438 10.333984 L 5.7148438 9.1660156 L 5.7148438 6.8339844 L 5.7148438 5.6660156 L 3.4277344 5.6660156 z M 6.8574219 6.8339844 L 6.8574219 9.1660156 L 16 9.1660156 L 16 6.8339844 L 6.8574219 6.8339844 z M 8 10.333984 L 8 11.5 L 0 11.5 L 0 13.833984 L 8 13.833984 L 8 15 L 10.285156 15 L 10.285156 13.833984 L 10.285156 11.5 L 10.285156 10.333984 L 8 10.333984 z M 11.427734 11.5 L 11.427734 13.833984 L 16 13.833984 L 16 11.5 L 11.427734 11.5 z"/>
</svg>
