<svg xmlns="http://www.w3.org/2000/svg" width="24" height="24" version="1.1">
 <defs>
  <style id="current-color-scheme" type="text/css">
    .ColorScheme-Text { color: #d3dae3; } .ColorScheme-Highlight { color:#5294e2; }
  </style>
  <linearGradient id="grey" x1="0%" x2="0%" y1="0%" y2="100%">
    <stop offset="0%" style="stop-color:#8C8C8C; stop-opacity:1"/>
    <stop offset="100%" style="stop-color:#4B4B4B; stop-opacity:1"/>
  </linearGradient>
 </defs>
  <path fill="url(#grey)" class="ColorScheme-Text" d="M 7,5 C 4.9997355,5 5,7 5,7 L 5,19 18.999736,19 19,7 c 4.4e-5,-2 -2,-2 -2,-2 z m 0,2 10,0 0,10 -10,0 z m 1,1 0,2 2,0 0,-2 z m 3.0001,0 0,2 2,0 0,-2 z m 3,0 0,2 2,0 0,-2 z M 8,11 l 0,2 2,0 0,-2 z m 3.0001,0 0,2 2,0 0,-2 z m 3,0 0,2 2,0 0,-2 z M 8,14 l 0,2 2,0 0,-2 z m 3.0001,0 0,2 2,0 0,-2 z m 3,0 0,2 2,0 0,-2 z"/>
</svg>
