<svg xmlns="http://www.w3.org/2000/svg" width="16" height="16" version="1.1">
 <defs>
  <style id="current-color-scheme" type="text/css">
    .ColorScheme-Text { color: #d3dae3; } .ColorScheme-Highlight { color:#5294e2; }
  </style>
  <linearGradient id="90ssummer" x1="0%" x2="0%" y1="0%" y2="100%">
    <stop offset="0%" style="stop-color:#f618c7; stop-opacity:1"/>
    <stop offset="100%" style="stop-color:#94ffab; stop-opacity:1"/>
    <stop offset="0%" style="stop-color:#fbfd54; stop-opacity:1"/>
    <stop offset="100%" style="stop-color:#0f83ae; stop-opacity:1"/>
  </linearGradient>
 </defs>
  <path fill="url(#90ssummer)" class="ColorScheme-Text" d="M 8,1 C 11.87,1 15,4.13 15,8 15,11.86 11.87,15 8,15 4.13,15 1,11.86 1,8 1,4.13 4.13,1 8,1 Z M 5.53,4 C 4.8,4 4.06,4.44 4,5.31 3.88,7.04 5.5,4.97 7,5.31 7,4.44 6.27,4 5.53,4 Z M 10.47,4 C 9.73,4 9,4.44 9,5.31 10.5,4.97 12.13,7.04 12,5.31 11.94,4.44 11.2,4 10.47,4 Z M 8,7 C 6.62,7 5.5,8.34 5.5,10 5.5,11.65 6.62,13 8,13 9.38,13 10.5,11.65 10.5,10 10.5,8.34 9.38,7 8,7 Z"/>
</svg>
