<svg xmlns="http://www.w3.org/2000/svg" width="16" height="16" version="1.1">
 <defs>
  <style id="current-color-scheme" type="text/css">
    .ColorScheme-Text { color: #d3dae3; } .ColorScheme-Highlight { color:#5294e2; }
  </style>
  <linearGradient id="aurora" x1="0%" x2="0%" y1="0%" y2="100%">
    <stop offset="0%" style="stop-color:#09D4DF; stop-opacity:1"/>
    <stop offset="100%" style="stop-color:#ad6c16; stop-opacity:1"/>
  </linearGradient>
 </defs>
  <path fill="url(#aurora)" class="ColorScheme-Text" d="M 13.5,1 A 1.5,1.5 0 0 0 12.439,1.4395 L 10.018,4.0176 8,2 6.5,3.5 8,5 1,12 V 15 H 4 L 11,8 12.5,9.5 14,8 12.012,6.0117 14.566,3.5605 14.562,3.5566 A 1.5,1.5 0 0 0 15,2.5 1.5,1.5 0 0 0 13.5,1 Z M 9,6 10,7 3,14 2,13 Z"/>
</svg>
