<svg xmlns="http://www.w3.org/2000/svg" width="16" height="16" version="1.1">
 <defs>
  <style id="current-color-scheme" type="text/css">
    .ColorScheme-Text { color: #d3dae3; } .ColorScheme-Highlight { color:#5294e2; }
  </style>
  <linearGradient id="sunrise" x1="0%" x2="0%" y1="0%" y2="100%">
    <stop offset="0%" style="stop-color:#FF8501; stop-opacity:1"/>
    <stop offset="100%" style="stop-color:#FFCB01; stop-opacity:1"/>
  </linearGradient>
 </defs>
  <path fill="url(#sunrise)" class="ColorScheme-Text" d="M 5 3.0117188 C 2.23 3.0117188 0 5.2417187 0 8.0117188 C 0 10.781719 2.23 13.011719 5 13.011719 L 7 13.011719 L 7 11.011719 L 5 11.011719 C 3.338 11.011719 2 9.6737187 2 8.0117188 C 2 6.3497188 3.338 5.0117188 5 5.0117188 L 7 5.0117188 L 7 3.0117188 L 5 3.0117188 z M 9 3.0117188 L 9 5.0117188 L 11 5.0117188 C 12.662 5.0117188 14 6.3497188 14 8.0117188 C 14 9.6737187 12.662 11.011719 11 11.011719 L 9 11.011719 L 9 13.011719 L 11 13.011719 C 13.77 13.011719 16 10.781719 16 8.0117188 C 16 5.2417187 13.77 3.0117188 11 3.0117188 L 9 3.0117188 z M 5 7.0117188 L 5 9.0117188 L 11 9.0117188 L 11 7.0117188 L 5 7.0117188 z"/>
</svg>
