<svg xmlns="http://www.w3.org/2000/svg" width="16" height="16" version="1.1">
 <defs>
  <style id="current-color-scheme" type="text/css">
    .ColorScheme-Text { color: #d3dae3; } .ColorScheme-Highlight { color:#5294e2; }
  </style>
  <linearGradient id="sunrise" x1="0%" x2="0%" y1="0%" y2="100%">
    <stop offset="0%" style="stop-color:#FF8501; stop-opacity:1"/>
    <stop offset="100%" style="stop-color:#FFCB01; stop-opacity:1"/>
  </linearGradient>
 </defs>
  <path fill="url(#sunrise)" class="ColorScheme-Text" d="M 3 1 L 3 5 L 1 5 L 1 10 L 3 10 L 3 15 L 4 15 L 4 10 L 6 10 L 6 5 L 4 5 L 4 1 L 3 1 z M 9 5 L 9 10 L 14 10 L 14 8 L 16 8 L 16 7 L 14 7 L 14 5 L 9 5 z M 7 7 L 7 8 L 8 8 L 8 7 L 7 7 z"/>
</svg>
