<svg xmlns="http://www.w3.org/2000/svg" width="16" height="16" version="1.1">
 <defs>
  <style id="current-color-scheme" type="text/css">
    .ColorScheme-Text { color: #d3dae3; } .ColorScheme-Highlight { color:#5294e2; }
  </style>
  <linearGradient id="sunrise" x1="0%" x2="0%" y1="0%" y2="100%">
    <stop offset="0%" style="stop-color:#FF8501; stop-opacity:1"/>
    <stop offset="100%" style="stop-color:#FFCB01; stop-opacity:1"/>
  </linearGradient>
 </defs>
  <path fill="url(#sunrise)" class="ColorScheme-Text" d="M 7.9999998,-1.5e-7 A 8,8 0 0 0 -2.5e-7,8.0000001 8,8 0 0 0 7.9999998,16 8,8 0 0 0 16,8.0000001 8,8 0 0 0 7.9999998,-1.5e-7 Z m -1,3.00000025 0,2.9980469 0,0.00977 0,3.992188 c 0,1 -1,1 -1,1 0,0 -1,0 -1,-1 l 0,-3.9980474 -2,0 4,-3.0019531 z m 3.0000002,2 c 0,0 1,0 1,1 l 0,3.9980469 2,0 L 8.9999998,13 l 0,-2.998047 0,-0.00977 0,-3.9921875 c 0,-1 1.0000002,-1 1.0000002,-1 z"/>
</svg>
