<svg xmlns="http://www.w3.org/2000/svg" width="16" height="16" version="1.1">
 <defs>
  <style id="current-color-scheme" type="text/css">
    .ColorScheme-Text { color: #d3dae3; } .ColorScheme-Highlight { color:#5294e2; }
  </style>
  <linearGradient id="sage" x1="0%" x2="0%" y1="0%" y2="100%">
    <stop offset="0%" style="stop-color:#919D87; stop-opacity:1"/>
    <stop offset="100%" style="stop-color:#49594C; stop-opacity:1"/>
  </linearGradient>
 </defs>
  <path fill="url(#sage)" class="ColorScheme-Text" d="M 8 0 A 5 5 0 0 0 3 5 L 3 7 L 2 7 L 2 16 L 14 16 L 14 7 L 13 7 L 13 5 A 5 5 0 0 0 8 0 z M 8 1 C 10.222 1 12 2.778 12 5 L 12 7 L 4 7 L 4 5 C 4 2.778 5.778 1 8 1 z M 3 8 L 13 8 L 13 15 L 3 15 L 3 8 z M 9 9.75 L 7 10 L 7 13 L 9 13 L 9 9.75 z"/>
</svg>
