<svg xmlns="http://www.w3.org/2000/svg" width="16" height="16" version="1.1">
 <defs>
  <style id="current-color-scheme" type="text/css">
    .ColorScheme-Text { color: #d3dae3; } .ColorScheme-Highlight { color:#5294e2; }
  </style>
  <linearGradient id="sage" x1="0%" x2="0%" y1="0%" y2="100%">
    <stop offset="0%" style="stop-color:#919D87; stop-opacity:1"/>
    <stop offset="100%" style="stop-color:#49594C; stop-opacity:1"/>
  </linearGradient>
 </defs>
 <g fill="url(#sage)" class="ColorScheme-Text">
  <path    opacity="0.8" d="M 1.5917969 0.5 C 0.63725186 0.5 0.5 2.0401564 0.5 3.1601562 L 0.5 6 C 0.4664931 12 2.9996535 12.929483 5.7265625 13.660156 C 6.072085 13.962572 6.4085579 14.5 6.5449219 14.5 L 9.4550781 14.5 C 9.5914421 14.5 9.9279145 13.962572 10.273438 13.660156 C 13.000345 12.929483 15.484248 12 15.5 6 L 15.5 3.1601562 C 15.5 2.0401566 15.362748 0.5 14.408203 0.5 C 14.408203 2.04 12.5 3.2442295 11 3.3007812 L 5 3.3007812 C 3.5 3.3007812 1.5917969 2.04 1.5917969 0.5 z M 5 4.5 A 2.5 2.4999731 0 0 1 7.5 7 A 2.5 2.4999731 0 0 1 5 9.5 A 2.5 2.4999731 0 0 1 2.5 7 A 2.5 2.4999731 0 0 1 5 4.5 z M 11 4.5 A 2.5 2.4999731 0 0 1 13.5 7 A 2.5 2.4999731 0 0 1 11 9.5 A 2.5 2.4999731 0 0 1 8.5 7 A 2.5 2.4999731 0 0 1 11 4.5 z"/>
 </g>
</svg>
