<svg xmlns="http://www.w3.org/2000/svg" width="24" height="24" version="1.1">
 <defs>
  <style id="current-color-scheme" type="text/css">
    .ColorScheme-Text { color: #d3dae3; } .ColorScheme-Highlight { color:#5294e2; }
  </style>
  <linearGradient id="rainblue" x1="0%" x2="0%" y1="0%" y2="100%">
    <stop offset="0%" style="stop-color:#00F260; stop-opacity:1"/>
    <stop offset="100%" style="stop-color:#0575E6; stop-opacity:1"/>
  </linearGradient>
 </defs>
 <g transform="translate(-423 -221)">
  <path fill="url(#rainblue)" class="ColorScheme-Text" d="m429 230s-1.0405 3.3033-0.99977 5.0036c0.03 1.38 1 4 1 4 0.00005 0.52358 0.47642 0.99995 1 1h8 1c0.52358-0.00005 0.99995-0.47642 1-1 0 0 0.96731-2.6235 1.0002-3.9964 0.04-1.7-1-5-1-5z"/>
  <path fill="url(#rainblue)" class="ColorScheme-Text" d="m428 228v1l13-0.003v-1c0-1-0.9998-1.0034-0.9998-1.0034h-3s0-1-1-1h-3c-1 0-1 1-1 1h-3s-1.0002 0.003-1.0002 1.0034z"/>
 </g>
</svg>
