<svg xmlns="http://www.w3.org/2000/svg" width="24" height="24" version="1.1">
 <defs>
  <style id="current-color-scheme" type="text/css">
    .ColorScheme-Text { color: #d3dae3; } .ColorScheme-Highlight { color:#5294e2; }
  </style>
  <linearGradient id="arrongin" x1="0%" x2="0%" y1="0%" y2="100%">
    <stop offset="0%" style="stop-color:#dd9b44; stop-opacity:1"/>
    <stop offset="100%" style="stop-color:#ad6c16; stop-opacity:1"/>
  </linearGradient>
 </defs>
  <path fill="url(#arrongin)" class="ColorScheme-Text" d="M 6,5 C 5,5 5,6 5,6 v 12 c 0,1 1,1 1,1 h 6.761719 A 4.5,4.5 0 0 1 12.033203,17 H 7 v -7 h 10 v 2.03125 a 4.5,4.5 0 0 1 2,0.728516 V 6 C 19,5 18,5 18,5 Z m 10.5,8 A 3.5,3.5 0 0 0 13,16.5 3.5,3.5 0 0 0 16.5,20 3.5,3.5 0 0 0 20,16.5 3.5,3.5 0 0 0 16.5,13 Z M 16,14 h 1 v 2 h 2 v 1 h -2 -1 v -1 z"/>
</svg>
