<svg xmlns="http://www.w3.org/2000/svg" width="24" height="24" version="1.1">
 <defs>
  <style id="current-color-scheme" type="text/css">
    .ColorScheme-Text { color: #d3dae3; } .ColorScheme-Highlight { color:#5294e2; }
  </style>
  <linearGradient id="arrongin" x1="0%" x2="0%" y1="0%" y2="100%">
    <stop offset="0%" style="stop-color:#dd9b44; stop-opacity:1"/>
    <stop offset="100%" style="stop-color:#ad6c16; stop-opacity:1"/>
  </linearGradient>
 </defs>
  <path fill="url(#arrongin)" class="ColorScheme-Text" opacity="0.3" d="M 4 1 L 4 4 L 1 4 L 1 6 L 4 6 L 4 10 L 1 10 L 1 12 L 4 12 L 4 15 L 6 15 L 6 12 L 10 12 L 10 15 L 12 15 L 12 12 L 15 12 L 15 10 L 12 10 L 12 6 L 15 6 L 15 4 L 12 4 L 12 1 L 10 1 L 10 4 L 6 4 L 6 1 L 4 1 z M 6 6 L 10 6 L 10 10 L 6 10 L 6 6 z" transform="translate(4 4)"/>
</svg>
