<svg xmlns="http://www.w3.org/2000/svg" width="22" height="22" version="1.1">
 <defs>
  <style id="current-color-scheme" type="text/css">
    .ColorScheme-Text { color: #d3dae3; } .ColorScheme-Highlight { color:#5294e2; }
  </style>
  <linearGradient id="telinkrin" x1="0%" x2="0%" y1="0%" y2="100%">
    <stop offset="0%" style="stop-color:#b2ced6; stop-opacity:1"/>
    <stop offset="100%" style="stop-color:#6da5b7; stop-opacity:1"/>
  </linearGradient>
 </defs>
  <path fill="url(#telinkrin)" class="ColorScheme-Text" d="M 2 1 A 1.0001 1.0001 0 0 0 1 2 L 1 3 A 1.0001 1.0001 0 0 0 2 4 L 3 4 L 3 12 L 2 12 A 1.0001 1.0001 0 0 0 1 13 L 1 14 A 1.0001 1.0001 0 0 0 2 15 L 7 15 A 1.0001 1.0001 0 0 0 8 14 L 8 13 A 1.0001 1.0001 0 0 0 7 12 L 6 12 L 6 4 L 7 4 A 1.0001 1.0001 0 0 0 8 3 L 8 2 A 1.0001 1.0001 0 0 0 7 1 L 2 1 z M 8 8 A 1.0001 1.0001 0 0 0 7 9 L 7 11 A 1.0001 1.0001 0 0 0 8 12 L 15 12 A 1.0001 1.0001 0 0 0 16 11 L 16 9 A 1.0001 1.0001 0 0 0 15 8 L 14 8 A 1.0001 1.0001 0 0 0 13 9 L 10 9 A 1.0001 1.0001 0 0 0 9 8 L 8 8 z" transform="translate(3 3)"/>
</svg>
