<svg xmlns="http://www.w3.org/2000/svg" width="24" height="24" version="1.1">
 <defs>
  <style id="current-color-scheme" type="text/css">
    .ColorScheme-Text { color: #d3dae3; } .ColorScheme-Highlight { color:#5294e2; }
  </style>
  <linearGradient id="rainblue" x1="0%" x2="0%" y1="0%" y2="100%">
    <stop offset="0%" style="stop-color:#00F260; stop-opacity:1"/>
    <stop offset="100%" style="stop-color:#0575E6; stop-opacity:1"/>
  </linearGradient>
 </defs>
  <path fill="currentColor" opacity=".35" class="ColorScheme-Highlight" d="m6.5 4c-0.277 0-0.5 0.223-0.5 0.5v0.5l-2-0.002v-0.00026l-0.00002 14.502c0 0.277 0.223 0.5 0.5 0.5h6c0.277 0 0.5-0.223 0.5-0.5l0.00002-14.501-0.50002 0.002h-1.5v-0.5c0-0.277-0.223-0.50001-0.5-0.50001z"/>
  <path fill="url(#rainblue)" class="ColorScheme-Text" d="m14 5c-0.554 0-1 0.446-1 1v13c0 0.554 0.446 1 1 1h5c0.554 0 1-0.446 1-1v-13c0-0.554-0.446-1-1-1h-5zm0 3h1v1h-1v-1zm2 0h1v1h-1v-1zm2 1h1v7h-1v-7zm-4 1h1v1h-1v-1zm2 0h1v1h-1v-1zm-2 2h1v1h-1v-1zm2 0h1v1h-1v-1zm-2 2h1v1h-1v-1zm2 0h1v1h-1v-1zm-2 2h1v1h-1v-1zm2 0h1v1h-1v-1z"/>
</svg>
