<svg xmlns="http://www.w3.org/2000/svg" width="16" height="16" version="1.1">
 <defs>
  <style id="current-color-scheme" type="text/css">
    .ColorScheme-Text { color: #d3dae3; } .ColorScheme-Highlight { color:#5294e2; }
  </style>
  <linearGradient id="60spsycho" x1="0%" x2="0%" y1="0%" y2="100%">
    <stop offset="0%" style="stop-color:#df5940; stop-opacity:1"/>
    <stop offset="100%" style="stop-color:#d8d15f; stop-opacity:1"/>
    <stop offset="0%" style="stop-color:#e9882a; stop-opacity:1"/>
    <stop offset="100%" style="stop-color:#279362; stop-opacity:1"/>
  </linearGradient>
 </defs>
  <path fill="url(#60spsycho)" class="ColorScheme-Text" d="M 0.1816,2 C -0.4731,2 -1,2.5344 -1,3.1992 V 12.801 C -1,13.466 -0.4731,14 0.1816,14 H 10.818 C 11.473,14 12,13.466 12,12.801 V 10 L 17,12 V 4 L 12,6 V 3.1992 C 12,2.5344 11.473,2 10.818,2 Z M 5,4 A 4,4 0 0 1 9,8 4,4 0 0 1 5,12 4,4 0 0 1 1,8 4,4 0 0 1 5,4 Z M 5,5 A 3,3 0 0 0 2,8 3,3 0 0 0 5,11 3,3 0 0 0 8,8 3,3 0 0 0 5,5 Z"/>
</svg>
