<svg xmlns="http://www.w3.org/2000/svg" width="16" height="16" version="1.1">
 <defs>
  <style id="current-color-scheme" type="text/css">
    .ColorScheme-Text { color: #d3dae3; } .ColorScheme-Highlight { color:#5294e2; }
  </style>
  <linearGradient id="60spsycho" x1="0%" x2="0%" y1="0%" y2="100%">
    <stop offset="0%" style="stop-color:#df5940; stop-opacity:1"/>
    <stop offset="100%" style="stop-color:#d8d15f; stop-opacity:1"/>
    <stop offset="0%" style="stop-color:#e9882a; stop-opacity:1"/>
    <stop offset="100%" style="stop-color:#279362; stop-opacity:1"/>
  </linearGradient>
 </defs>
  <path fill="url(#60spsycho)" class="ColorScheme-Text" d="M 4 1 L 4 3.1738281 A 3 3 0 0 0 2 6 A 3 3 0 0 0 4 8.8242188 L 4 15 L 6 15 L 6 8.8261719 A 3 3 0 0 0 8 6 A 3 3 0 0 0 6 3.1757812 L 6 1 L 4 1 z M 10 1 L 10 8.1738281 A 3 3 0 0 0 8 11 A 3 3 0 0 0 10 13.824219 L 10 15 L 12 15 L 12 13.826172 A 3 3 0 0 0 14 11 A 3 3 0 0 0 12 8.1757812 L 12 1 L 10 1 z"/>
</svg>
