<svg xmlns="http://www.w3.org/2000/svg" width="16" height="16" version="1.1">
 <defs>
  <style id="current-color-scheme" type="text/css">
    .ColorScheme-Text { color: #d3dae3; } .ColorScheme-Highlight { color:#5294e2; }
  </style>
  <linearGradient id="60spsycho" x1="0%" x2="0%" y1="0%" y2="100%">
    <stop offset="0%" style="stop-color:#df5940; stop-opacity:1"/>
    <stop offset="100%" style="stop-color:#d8d15f; stop-opacity:1"/>
    <stop offset="0%" style="stop-color:#e9882a; stop-opacity:1"/>
    <stop offset="100%" style="stop-color:#279362; stop-opacity:1"/>
  </linearGradient>
 </defs>
  <path fill="url(#60spsycho)" class="ColorScheme-Text" d="M 0 2.0097656 L 0 14.009766 L 10 14.009766 L 10 4.0097656 C 10 2.0097656 8 2.0097656 8 2.0097656 L 0 2.0097656 z M 10 2.0097656 C 10 2.0097656 11 2.0097656 11 4.0097656 L 11 14.009766 L 12 14.009766 L 12 4.0097656 C 12 2.0097656 10 2.0097656 10 2.0097656 z M 12 2.0097656 C 12 2.0097656 13 2.0097656 13 4.0097656 L 13 14.009766 L 14 14.009766 L 14 4.0097656 C 14 2.0097656 12 2.0097656 12 2.0097656 z M 3 5.0097656 L 7.5 8.0097656 L 3 11.009766 L 3 5.0097656 z"/>
</svg>
