<svg xmlns="http://www.w3.org/2000/svg" width="16" height="16" version="1.1">
 <defs>
  <style id="current-color-scheme" type="text/css">
    .ColorScheme-Text { color: #d3dae3; } .ColorScheme-Highlight { color:#5294e2; }
  </style>
  <linearGradient id="60spsycho" x1="0%" x2="0%" y1="0%" y2="100%">
    <stop offset="0%" style="stop-color:#df5940; stop-opacity:1"/>
    <stop offset="100%" style="stop-color:#d8d15f; stop-opacity:1"/>
    <stop offset="0%" style="stop-color:#e9882a; stop-opacity:1"/>
    <stop offset="100%" style="stop-color:#279362; stop-opacity:1"/>
  </linearGradient>
 </defs>
  <path fill="url(#60spsycho)" class="ColorScheme-Text" d="M 1.6035156,1.0058594 C 1.4026226,1.0484546 1,1.2326045 1,1.9140625 L 1,10.091797 C 1,10.091797 1.000558,11 1.7148438,11 l 8.5703122,0 C 10.285156,11 11,11.000407 11,10.091797 L 11,3.9316406 C 11,3.0230301 10.285156,3 10.285156,3 L 7,3 5,1.0058594 l -3.2851562,0 c 0,0 -0.044364,-0.014175 -0.1113282,0 z"/>
  <path fill="url(#60spsycho)" class="ColorScheme-Text" opacity="0.3" d="m 12,7 0,4.091797 C 12,12.000407 11.285156,12 11.285156,12 L 5,12 5,14.091797 C 5,14.091797 5.000558,15 5.7148438,15 l 8.5703122,0 C 14.285156,15 15,15.000407 15,14.091797 L 15,7.9316406 C 15,7.0230301 14.285156,7 14.285156,7 L 12,7 Z"/>
</svg>
