<svg xmlns="http://www.w3.org/2000/svg" width="16" height="16" version="1.1">
 <defs>
  <style id="current-color-scheme" type="text/css">
    .ColorScheme-Text { color: #d3dae3; } .ColorScheme-Highlight { color:#5294e2; }
  </style>
  <linearGradient id="60spsycho" x1="0%" x2="0%" y1="0%" y2="100%">
    <stop offset="0%" style="stop-color:#df5940; stop-opacity:1"/>
    <stop offset="100%" style="stop-color:#d8d15f; stop-opacity:1"/>
    <stop offset="0%" style="stop-color:#e9882a; stop-opacity:1"/>
    <stop offset="100%" style="stop-color:#279362; stop-opacity:1"/>
  </linearGradient>
 </defs>
  <path fill="url(#60spsycho)" class="ColorScheme-Text" d="M 2.5,1 C 1.669,1 1,1.669 1,2.5 V 13.5 C 1,14.331 1.669,15 2.5,15 H 13.5 C 14.331,15 15,14.331 15,13.5 V 2.5 C 15,1.669 14.331,1 13.5,1 Z M 11.5,3 C 12.328,3 13,3.6716 13,4.5 13,5.3284 12.328,6 11.5,6 10.672,6 10,5.3284 10,4.5 10,3.6716 10.672,3 11.5,3 Z M 4.5,10 C 5.3284,10 6,10.672 6,11.5 6,12.328 5.3284,13 4.5,13 3.6716,13 3,12.328 3,11.5 3,10.672 3.6716,10 4.5,10 Z"/>
</svg>
