<svg xmlns="http://www.w3.org/2000/svg" width="22" height="22" version="1.1">
 <defs>
  <style id="current-color-scheme" type="text/css">
    .ColorScheme-Text { color: #d3dae3; } .ColorScheme-Highlight { color:#5294e2; }
  </style>
  <linearGradient id="sage" x1="0%" x2="0%" y1="0%" y2="100%">
    <stop offset="0%" style="stop-color:#919D87; stop-opacity:1"/>
    <stop offset="100%" style="stop-color:#49594C; stop-opacity:1"/>
  </linearGradient>
 </defs>
 <g transform="translate(-152.99999,-743.36389)">
  <path fill="url(#sage)" class="ColorScheme-Text" d="m 163.99998,746.36389 c -1,0 -1,1.00001 -1,1.00001 l 0,14 c 0,0 0,1 1,1 l 8,0 c 1,0 1,-1 1,-1 l 0,-14 c 0,0 0,-1.00001 -1,-1.00001 z m 0.9998,2.00336 6,0 0,11 -6,0 z"/>
  <path fill="currentColor" opacity=".3" class="ColorScheme-Highlight" d="m 156.49998,746.36389 c -0.277,0 -0.5,0.22301 -0.5,0.50001 l 0,0.5 -1.99998,-0.002 0,-2.6e-4 -2e-5,14.50174 c 0,0.277 0.223,0.5 0.5,0.5 l 6,0 c 0.277,0 0.5,-0.223 0.5,-0.5 l 2e-5,-14.50122 -0.50002,0.002 -1.5,0 0,-0.5 c 0,-0.277 -0.223,-0.50001 -0.5,-0.50001 z"/>
 </g>
</svg>
