<svg xmlns="http://www.w3.org/2000/svg" width="16" height="16" version="1.1">
 <defs>
  <style id="current-color-scheme" type="text/css">
    .ColorScheme-Text { color: #d3dae3; } .ColorScheme-Highlight { color:#5294e2; }
  </style>
  <linearGradient id="60spsycho" x1="0%" x2="0%" y1="0%" y2="100%">
    <stop offset="0%" style="stop-color:#df5940; stop-opacity:1"/>
    <stop offset="100%" style="stop-color:#d8d15f; stop-opacity:1"/>
    <stop offset="0%" style="stop-color:#e9882a; stop-opacity:1"/>
    <stop offset="100%" style="stop-color:#279362; stop-opacity:1"/>
  </linearGradient>
 </defs>
  <path fill="url(#60spsycho)" class="ColorScheme-Text" d="M 4,2 C 2.89,2 2,2.89 2,4 V 12 C 2,13.11 2.89,14 4,14 H 12 C 13.11,14 14,13.11 14,12 V 7.25 L 13,8.41 V 12 C 13,12.55 12.55,13 12,13 H 4 C 3.45,13 3,12.55 3,12 V 4 C 3,3.45 3.45,3 4,3 H 12 C 12.13,3 12.23,3.05 12.34,3.09 L 13.03,2.28 C 12.73,2.1 12.38,2 12,2 Z"/>
  <path fill="url(#60spsycho)" class="ColorScheme-Text" d="M 14.278,2.3705 8.0005,9.561 5.7505,7.3105 C 5.2887,6.8608 4.6905,6.9405 4.3105,7.3105 3.9405,7.6905 3.8548,8.2947 4.3105,8.7505 L 8.0905,12.5 15.778,3.6905 C 16.537,2.8206 15.214,1.2986 14.278,2.3705 Z"/>
</svg>
