<svg xmlns="http://www.w3.org/2000/svg" width="16" height="16" version="1.1">
 <defs>
  <style id="current-color-scheme" type="text/css">
    .ColorScheme-Text { color: #d3dae3; } .ColorScheme-Highlight { color:#5294e2; }
  </style>
  <linearGradient id="60spsycho" x1="0%" x2="0%" y1="0%" y2="100%">
    <stop offset="0%" style="stop-color:#df5940; stop-opacity:1"/>
    <stop offset="100%" style="stop-color:#d8d15f; stop-opacity:1"/>
    <stop offset="0%" style="stop-color:#e9882a; stop-opacity:1"/>
    <stop offset="100%" style="stop-color:#279362; stop-opacity:1"/>
  </linearGradient>
 </defs>
  <path fill="url(#60spsycho)" class="ColorScheme-Text" opacity="0.3" d="M 2,1 C 2,1 1,1 1,2 V 7 C 1,6 2,6 2,6 H 7 L 9,8 H 14 C 14,8 15,8 15,9 V 4 C 15,3 14,3 14,3 H 9 L 7,1 Z"/>
  <path fill="url(#60spsycho)" class="ColorScheme-Text" d="M 2,7 C 2,7 1,7 1,8 V 13 C 1,13 1,14 2,14 H 14 C 14,14 15,14 15,13 V 10 C 15,9 14,9 14,9 H 9 L 7,7 Z"/>
</svg>
