<svg xmlns="http://www.w3.org/2000/svg" width="16" height="16" version="1.1">
 <defs>
  <style id="current-color-scheme" type="text/css">
    .ColorScheme-Text { color: #d3dae3; } .ColorScheme-Highlight { color:#5294e2; }
  </style>
  <linearGradient id="90ssummer" x1="0%" x2="0%" y1="0%" y2="100%">
    <stop offset="0%" style="stop-color:#f618c7; stop-opacity:1"/>
    <stop offset="100%" style="stop-color:#94ffab; stop-opacity:1"/>
    <stop offset="0%" style="stop-color:#fbfd54; stop-opacity:1"/>
    <stop offset="100%" style="stop-color:#0f83ae; stop-opacity:1"/>
  </linearGradient>
 </defs>
  <path fill="url(#90ssummer)" class="ColorScheme-Text" d="M 2.96875 2 C 2.96875 2 1 2 1 4 L 1 10 C 1 11.108 1.892 12 3 12 L 8 12 L 10 15.003906 L 12 12 L 13 12 C 13 12 15 12 15 10 L 15 4 C 15 2 13 2 13 2 L 2.96875 2 z M 5 4 L 6.4140625 4 L 8 5.5859375 L 9.5859375 4 L 11 4 L 11 5.4140625 L 9.4140625 7 L 11 8.5859375 L 11 10 L 9.5859375 10 L 8 8.4140625 L 6.4140625 10 L 5 10 L 5 8.5859375 L 6.5859375 7 L 5 5.4140625 L 5 4 z"/>
</svg>
