<svg xmlns="http://www.w3.org/2000/svg" width="16" height="16" version="1.1">
 <defs>
  <style id="current-color-scheme" type="text/css">
    .ColorScheme-Text { color: #d3dae3; } .ColorScheme-Highlight { color:#5294e2; }
  </style>
  <linearGradient id="90ssummer" x1="0%" x2="0%" y1="0%" y2="100%">
    <stop offset="0%" style="stop-color:#f618c7; stop-opacity:1"/>
    <stop offset="100%" style="stop-color:#94ffab; stop-opacity:1"/>
    <stop offset="0%" style="stop-color:#fbfd54; stop-opacity:1"/>
    <stop offset="100%" style="stop-color:#0f83ae; stop-opacity:1"/>
  </linearGradient>
 </defs>
  <path fill="url(#90ssummer)" class="ColorScheme-Text" d="M 1 1 L 1 3 L 3 3 L 5 3 L 5 5 L 7 5 L 7 3 L 7 1 L 5 1 L 3 1 L 1 1 z M 7 5 L 7 7 L 9 7 L 11 7 L 11 5 L 9 5 L 7 5 z M 11 5 L 13 5 L 13 3 L 11 3 L 11 5 z M 11 3 L 11 1 L 9 1 L 9 3 L 11 3 z M 7 7 L 5 7 L 5 9 L 7 9 L 7 7 z M 5 9 L 3 9 L 3 11 L 5 11 L 5 9 z M 3 9 L 3 7 L 1 7 L 1 9 L 3 9 z M 3 7 L 5 7 L 5 5 L 3 5 L 3 7 z M 11 9 L 11 11 L 13 11 L 13 9 L 11 9 z M 13 11 L 13 13 L 13 15 L 15 15 L 15 13 L 15 11 L 13 11 z M 7 11 L 7 13 L 9 13 L 9 11 L 7 11 z M 9 13 L 9 15 L 11 15 L 11 13 L 9 13 z M 3 13 L 3 15 L 5 15 L 5 13 L 3 13 z"/>
</svg>
