<svg xmlns="http://www.w3.org/2000/svg" width="16" height="16" version="1.1">
 <defs>
  <style id="current-color-scheme" type="text/css">
    .ColorScheme-Text { color: #d3dae3; } .ColorScheme-Highlight { color:#5294e2; }
  </style>
  <linearGradient id="90ssummer" x1="0%" x2="0%" y1="0%" y2="100%">
    <stop offset="0%" style="stop-color:#f618c7; stop-opacity:1"/>
    <stop offset="100%" style="stop-color:#94ffab; stop-opacity:1"/>
    <stop offset="0%" style="stop-color:#fbfd54; stop-opacity:1"/>
    <stop offset="100%" style="stop-color:#0f83ae; stop-opacity:1"/>
  </linearGradient>
 </defs>
  <path fill="url(#90ssummer)" class="ColorScheme-Text" d="M 1,1 H 3 V 3 H 1 Z"/>
  <path fill="url(#90ssummer)" class="ColorScheme-Text" d="M 3,1 H 5 V 3 H 3 Z"/>
  <path fill="url(#90ssummer)" class="ColorScheme-Text" d="M 5,1 H 7 V 3 H 5 Z"/>
  <path fill="url(#90ssummer)" class="ColorScheme-Text" d="M 5,3 H 7 V 5 H 5 Z"/>
  <path fill="url(#90ssummer)" class="ColorScheme-Text" d="M 3,5 H 5 V 7 H 3 Z"/>
  <path fill="url(#90ssummer)" class="ColorScheme-Text" d="M 1,7 H 3 V 9 H 1 Z"/>
  <path fill="url(#90ssummer)" class="ColorScheme-Text" d="M 3,9 H 5 V 11 H 3 Z"/>
  <path fill="url(#90ssummer)" class="ColorScheme-Text" d="M 5,7 H 7 V 9 H 5 Z"/>
  <path fill="url(#90ssummer)" class="ColorScheme-Text" d="M 7,5 H 9 V 7 H 7 Z"/>
  <path fill="url(#90ssummer)" class="ColorScheme-Text" d="M 9,5 H 11 V 7 H 9 Z"/>
  <path fill="url(#90ssummer)" class="ColorScheme-Text" d="M 9,1 H 11 V 3 H 9 Z"/>
  <path fill="url(#90ssummer)" class="ColorScheme-Text" d="M 11,3 H 13 V 5 H 11 Z"/>
  <path fill="url(#90ssummer)" class="ColorScheme-Text" d="M 11,9 H 13 V 11 H 11 Z"/>
  <path fill="url(#90ssummer)" class="ColorScheme-Text" d="M 7,11 H 9 V 13 H 7 Z"/>
  <path fill="url(#90ssummer)" class="ColorScheme-Text" d="M 9,13 H 11 V 15 H 9 Z"/>
  <path fill="url(#90ssummer)" class="ColorScheme-Text" d="M 3,13 H 5 V 15 H 3 Z"/>
  <path fill="url(#90ssummer)" class="ColorScheme-Text" d="M 13,11 H 15 V 13 H 13 Z"/>
  <path fill="url(#90ssummer)" class="ColorScheme-Text" d="M 13,13 H 15 V 15 H 13 Z"/>
  <path fill="url(#90ssummer)" class="ColorScheme-Text" d="M 13,13 H 15 V 15 H 13 Z"/>
</svg>
