<svg xmlns="http://www.w3.org/2000/svg" width="16" height="16" version="1.1">
 <defs>
  <style id="current-color-scheme" type="text/css">
    .ColorScheme-Text { color: #d3dae3; } .ColorScheme-Highlight { color:#5294e2; }
  </style>
  <linearGradient id="sage" x1="0%" x2="0%" y1="0%" y2="100%">
    <stop offset="0%" style="stop-color:#919D87; stop-opacity:1"/>
    <stop offset="100%" style="stop-color:#49594C; stop-opacity:1"/>
  </linearGradient>
 </defs>
  <path fill="url(#sage)" class="ColorScheme-Text" d="M 3.2 2.667 C 1.433 2.667 0 4.099 0 5.867 C 0 7.634 1.433 9.067 3.2 9.067 C 4.967 9.067 6.4 7.634 6.4 5.867 L 3.2 5.867 L 3.2 2.667 Z M 8.533 2.667 L 8.533 4.8 L 16 4.8 L 16 2.667 L 8.533 2.667 Z M 8.533 6.933 L 8.533 9.067 L 16 9.067 L 16 6.933 L 8.533 6.933 Z M 0 11.2 L 0 13.333 L 12.8 13.333 L 12.8 11.2 L 0 11.2 Z"/>
</svg>
