<svg xmlns="http://www.w3.org/2000/svg" width="16" height="16" version="1.1">
 <defs>
  <style id="current-color-scheme" type="text/css">
    .ColorScheme-Text { color: #d3dae3; } .ColorScheme-Highlight { color:#5294e2; }
  </style>
  <linearGradient id="90ssummer" x1="0%" x2="0%" y1="0%" y2="100%">
    <stop offset="0%" style="stop-color:#f618c7; stop-opacity:1"/>
    <stop offset="100%" style="stop-color:#94ffab; stop-opacity:1"/>
    <stop offset="0%" style="stop-color:#fbfd54; stop-opacity:1"/>
    <stop offset="100%" style="stop-color:#0f83ae; stop-opacity:1"/>
  </linearGradient>
 </defs>
  <path fill="url(#90ssummer)" class="ColorScheme-Text" d="m 3.9999998,6.0000003 c -2.2091,0 -4.00000005,1.79 -4.00000005,3.9999997 0,2.21 1.79090005,4 4.00000005,4 0.2425,0 0.4842999,-0.02 0.7227,-0.07 C 5.4620003,15.48 6.9580003,16 10,16 c 6,0 6,-2 6,-9.9999997 z m 0,2 0.0078,0 c 0.0116,1.6 0.0522,2.9399997 0.1953,3.9899997 -0.0674,0 -0.1351999,0.01 -0.2030999,0.01 -1.1046,0 -2,-0.9 -2,-2 0,-1.0999997 0.8954,-1.9999997 1.9999999,-1.9999997 z"/>
</svg>
