<svg xmlns="http://www.w3.org/2000/svg" width="16" height="16" version="1.1">
 <defs>
  <style id="current-color-scheme" type="text/css">
    .ColorScheme-Text { color: #d3dae3; } .ColorScheme-Highlight { color:#5294e2; }
  </style>
  <linearGradient id="rainblue" x1="0%" x2="0%" y1="0%" y2="100%">
    <stop offset="0%" style="stop-color:#00F260; stop-opacity:1"/>
    <stop offset="100%" style="stop-color:#0575E6; stop-opacity:1"/>
  </linearGradient>
 </defs>
  <path fill="url(#rainblue)" class="ColorScheme-Text" d="M 10.285156 0.5 L 10.285156 1.75 L 0 1.75 L 0 4.25 L 10.285156 4.25 L 10.285156 5.5 L 12.572266 5.5 L 12.572266 4.25 L 12.572266 1.75 L 12.572266 0.5 L 10.285156 0.5 z M 13.714844 1.75 L 13.714844 4.25 L 16 4.25 L 16 1.75 L 13.714844 1.75 z M 3.4277344 5.5 L 3.4277344 6.75 L 0 6.75 L 0 9.25 L 3.4277344 9.25 L 3.4277344 10.5 L 5.7148438 10.5 L 5.7148438 9.25 L 5.7148438 6.75 L 5.7148438 5.5 L 3.4277344 5.5 z M 6.8574219 6.75 L 6.8574219 9.25 L 16 9.25 L 16 6.75 L 6.8574219 6.75 z M 8 10.5 L 8 11.75 L 0 11.75 L 0 14.25 L 8 14.25 L 8 15.5 L 10.285156 15.5 L 10.285156 14.25 L 10.285156 11.75 L 10.285156 10.5 L 8 10.5 z M 11.427734 11.75 L 11.427734 14.25 L 16 14.25 L 16 11.75 L 11.427734 11.75 z"/>
</svg>
