<svg xmlns="http://www.w3.org/2000/svg" width="24" height="24" version="1.1">
 <defs>
  <style id="current-color-scheme" type="text/css">
    .ColorScheme-Text { color: #d3dae3; } .ColorScheme-Highlight { color:#5294e2; }
  </style>
  <linearGradient id="bark" x1="0%" x2="0%" y1="0%" y2="100%">
    <stop offset="0%" style="stop-color:#9D9D87; stop-opacity:1"/>
    <stop offset="100%" style="stop-color:#52523F; stop-opacity:1"/>
  </linearGradient>
 </defs>
  <path fill="url(#bark)" class="ColorScheme-Text" d="M 5.9921875 3.0039062 L 5.9921875 7.2929688 L 3.7695312 5.5976562 L 3.7695312 7.3925781 L 0 7.2050781 L 0 8.8027344 L 3.7695312 8.6152344 L 3.7695312 10.410156 L 5.9921875 8.7148438 L 5.9921875 13.003906 L 9.46875 8.7324219 L 9.46875 9.8925781 L 11.662109 8.2207031 L 11.675781 8.21875 L 11.675781 11.615234 L 13.748047 8.59375 L 13.748047 9.5410156 L 16 8.0039062 L 13.748047 6.4667969 L 13.748047 7.4140625 L 11.675781 4.3925781 L 11.675781 7.7890625 L 11.662109 7.7871094 L 9.46875 6.1152344 L 9.46875 7.2753906 L 5.9921875 3.0039062 z" transform="translate(4 4)"/>
</svg>
